<?xml version="1.0" encoding="UTF-8" standalone="no" ?>
<!DOCTYPE svg PUBLIC "-//W3C//DTD SVG 1.1//EN" "http://www.w3.org/Graphics/SVG/1.1/DTD/svg11.dtd">
<svg xmlns="http://www.w3.org/2000/svg" xmlns:xlink="http://www.w3.org/1999/xlink" version="1.1" width="1080" height="200" viewBox="0 0 1080 200" xml:space="preserve">
<desc>Created with Fabric.js 5.2.4</desc>
<defs>
</defs>
<g transform="matrix(0 0 0 0 0 0)" id="e463e022-9131-441c-a084-ec87462ffe5a"  >
</g>
<g transform="matrix(1 0 0 1 540 100)" id="35e8446e-a9cb-4ff3-8eb0-645c7966394a"  >
<rect style="stroke: none; stroke-width: 1; stroke-dasharray: none; stroke-linecap: butt; stroke-dashoffset: 0; stroke-linejoin: miter; stroke-miterlimit: 4; fill: rgb(255,255,255); fill-rule: nonzero; opacity: 1; visibility: hidden;" vector-effect="non-scaling-stroke"  x="-540" y="-100" rx="0" ry="0" width="1080" height="200" />
</g>
<g transform="matrix(0.19 0 0 0.19 518.05 98.93)" id="container"  >
</g>
<g transform="matrix(0.19 0 0 0.19 537.72 98.29)" id="icon_container"  >
</g>
<g transform="matrix(2.48 0 0 2.65 195.61 99.99)"  >
<path style="stroke: rgb(55,53,58); stroke-width: 0; stroke-dasharray: none; stroke-linecap: butt; stroke-dashoffset: 0; stroke-linejoin: miter; stroke-miterlimit: 2; fill: rgb(55,53,58); fill-rule: nonzero; opacity: 1;" vector-effect="non-scaling-stroke"  transform=" translate(-100, -100)" d="M 91.27637 126.36865 C 87.87061 124.92822 84.81006 122.86181 82.18213 120.23388 C 79.55371 117.60594999999999 77.49463 114.5454 76.04736 111.13915 C 74.55664 107.61132 73.79344999999999 103.85936 73.79344999999999 99.99999 C 73.79344999999999 96.14062 74.54930999999999 92.38915 76.04736 88.86082999999999 C 77.4873 85.45457999999999 79.55371 82.39452 82.18213 79.7661 C 84.81006000000001 77.13816999999999 87.87061 75.0786 91.27637 73.63132999999999 C 94.80518000000001 72.13377 98.55616 71.37741999999999 102.41553 71.37741999999999 C 111.97803 71.37741999999999 120.87061 76.12302999999999 126.20655000000001 84.07956999999999 L 116.8169 90.37302999999999 C 113.59131000000001 85.55564999999999 108.20557000000001 82.68259999999998 102.41553 82.68259999999998 C 97.79346000000001 82.68259999999998 93.44385 84.48288999999998 90.16748000000001 87.75193999999998 C 86.89111000000003 91.02098999999997 85.09814 95.37744 85.09814 100 C 85.09814 104.62305 86.89843 108.97217 90.16748 112.24854 C 93.43603 115.51807000000001 97.78564 117.3169 102.41552999999999 117.3169 C 108.17626999999999 117.3169 113.54834 114.45948 116.78075999999999 109.67823 L 126.14891999999999 116.00636 C 120.81298 123.90675 111.94188999999999 128.62257 102.41551999999999 128.62257 C 98.55615 128.62256 94.80518 127.8667 91.27637 126.36865 z" stroke-linecap="round" />
</g>
<g transform="matrix(2.48 0 0 2.65 329.62 100.17)"  >
<path style="stroke: rgb(55,53,58); stroke-width: 0; stroke-dasharray: none; stroke-linecap: butt; stroke-dashoffset: 0; stroke-linejoin: miter; stroke-miterlimit: 2; fill: rgb(55,53,58); fill-rule: nonzero; opacity: 1;" vector-effect="non-scaling-stroke"  transform=" translate(-100, -100)" d="M 88.93994 126.17456 C 85.55517 124.74145 82.51709000000001 122.69653 79.91015 120.09009 C 77.3037 117.48316 75.25878 114.44458 73.82568 111.0603 C 72.34228 107.55346 71.59326 103.83081 71.59326 100.00023999999999 C 71.59326 96.16966999999998 72.34228 92.44653 73.82568 88.94018 C 75.25879 85.5559 77.30371000000001 82.51684 79.91015 79.91038999999999 C 82.51708 77.30394 85.55517 75.25901999999999 88.93994 73.82592 C 92.44678 72.34252 96.16943 71.59349999999999 99.99951000000001 71.59349999999999 C 103.83056000000002 71.59349999999999 107.55322000000001 72.34252 111.06006000000002 73.82592 C 114.44483000000002 75.25903 117.48291000000002 77.30395 120.08936000000003 79.91038999999999 C 122.69678000000003 82.51683999999999 124.74170000000002 85.5559 126.17432000000002 88.94018 C 127.65772000000003 92.44653 128.40674 96.16967 128.40674 100.00023999999999 C 128.40674 103.83080999999999 127.65772000000001 107.55345999999999 126.17432000000001 111.06029999999998 C 124.74170000000001 114.44457999999999 122.69678 117.48314999999998 120.08936000000001 120.09008999999999 C 117.48291000000002 122.69653999999998 114.44483000000001 124.74145999999999 111.06006000000002 126.17455999999999 C 107.55322000000002 127.65795999999999 103.83057000000002 128.40649 99.99951000000001 128.40649 C 96.16943 128.40649 92.44678 127.65796 88.93994 126.17456 z M 87.90283 87.9104 C 84.66942999999999 91.14331 82.89111 95.43481 82.89111 100.00757 C 82.89111 104.57984 84.66942999999999 108.87134 87.90283 112.10425000000001 C 91.13623 115.33765000000001 95.42724 117.11597 99.99950999999999 117.11597 C 104.57274999999998 117.11597 108.86376999999999 115.33765000000001 112.09716999999999 112.10425000000001 C 115.32959 108.87134 117.10888999999999 104.57984 117.10888999999999 100.00757000000002 C 117.10888999999999 95.43482000000002 115.32958999999998 91.14331000000001 112.09716999999999 87.91040000000001 C 108.86376999999999 84.67749 104.56493999999999 82.89868000000001 99.99950999999999 82.89868000000001 C 95.43506 82.89868 91.13623 84.67749 87.90283 87.9104 z" stroke-linecap="round" />
</g>
<g transform="matrix(2.48 0 0 2.65 466.78 100.25)"  >
<path style="stroke: rgb(55,53,58); stroke-width: 0; stroke-dasharray: none; stroke-linecap: butt; stroke-dashoffset: 0; stroke-linejoin: miter; stroke-miterlimit: 2; fill: rgb(55,53,58); fill-rule: nonzero; opacity: 1;" vector-effect="non-scaling-stroke"  transform=" translate(-100, -100)" d="M 121.90405 128.08252 L 108.24486999999999 128.08252 L 94.87378 108.80614999999999 L 94.87378 97.83984 L 97.03394 97.83984 C 100.43921 97.83984 102.98804 97.09082 104.60132 95.60741999999999 C 105.98413000000001 94.33300999999999 106.68237 92.49658 106.68237 90.13475999999999 C 106.68237 87.67235999999998 105.96264000000001 85.80028999999999 104.5437 84.57616999999999 C 103.0896 83.31591999999999 100.78491 82.64648 97.89722 82.64648 L 89.40113000000001 82.64648 L 89.40113000000001 128.08252 L 78.09595 128.08252 L 78.09595 71.91748 L 98.76148 71.91748 C 101.92261 71.91748 104.77418 72.37109 107.25074000000001 73.26366999999999 C 109.69215000000001 74.14940999999999 111.78004000000001 75.47460999999998 113.45777000000001 77.19530999999999 C 116.56129000000001 80.38524999999998 118.20289000000001 84.90722 118.20289000000001 90.27881 C 118.20289000000001 95.09618999999999 116.87086000000001 99.07812999999999 114.24293000000002 102.1167 C 112.41383000000002 104.22655999999999 110.00172000000002 105.83936 107.04273000000002 106.92676 L 121.90405 128.08252 z" stroke-linecap="round" />
</g>
<g transform="matrix(2.48 0 0 2.65 572.19 100.25)"  >
<path style="stroke: rgb(55,53,58); stroke-width: 0; stroke-dasharray: none; stroke-linecap: butt; stroke-dashoffset: 0; stroke-linejoin: miter; stroke-miterlimit: 2; fill: rgb(55,53,58); fill-rule: nonzero; opacity: 1;" vector-effect="non-scaling-stroke"  transform=" translate(-100, -100)" d="M 81.8186 128.08252 L 118.18139 128.08252 L 118.18139 117.56884999999998 L 81.8186 117.56884999999998 L 81.8186 128.08252 z M 81.8186 105.47217 L 118.18139 105.47217 L 118.18139 94.74317 L 81.8186 94.74317 L 81.8186 105.47217 z M 81.8186 71.91748 L 81.8186 82.64648 L 118.18139 82.64648 L 118.18139 71.91748 L 81.8186 71.91748 z" stroke-linecap="round" />
</g>
<g transform="matrix(2.48 0 0 2.65 688 100.25)"  >
<path style="stroke: rgb(55,53,58); stroke-width: 0; stroke-dasharray: none; stroke-linecap: butt; stroke-dashoffset: 0; stroke-linejoin: miter; stroke-miterlimit: 2; fill: rgb(55,53,58); fill-rule: nonzero; opacity: 1;" vector-effect="non-scaling-stroke"  transform=" translate(-100, -100)" d="M 110.83716 106.62451 L 89.16284 106.62451 L 89.16284 128.08252 L 77.85815 128.08252 L 77.85815 71.91748 L 89.16283999999999 71.91748 L 89.16283999999999 95.89551 L 110.83715999999998 95.89551 L 110.83715999999998 71.91748 L 122.14184999999998 71.91748 L 122.14184999999998 128.08252 L 110.83715999999998 128.08252 L 110.83715999999998 106.62451 z" stroke-linecap="round" />
</g>
<g transform="matrix(2.48 0 0 2.65 830.39 100.25)"  >
<path style="stroke: rgb(55,53,58); stroke-width: 0; stroke-dasharray: none; stroke-linecap: butt; stroke-dashoffset: 0; stroke-linejoin: miter; stroke-miterlimit: 2; fill: rgb(55,53,58); fill-rule: nonzero; opacity: 1;" vector-effect="non-scaling-stroke"  transform=" translate(-100, -100)" d="M 116.38086 95.7229 L 103.57813 117.7854 L 96.4209 117.7854 L 83.69043 95.84546 L 83.69043 128.08228 L 72.31348 128.08228 L 72.31348 71.91772 L 82.63868 71.91772 L 100.03613999999999 102.52026000000001 L 117.43261999999999 71.91772 L 127.68652999999999 71.91772 L 127.68652999999999 128.08227 L 116.38086999999999 128.08227 L 116.38086999999999 95.7229 z" stroke-linecap="round" />
</g>
<g transform="matrix(2.48 0 0 2.65 958.46 100.2)"  >
<path style="stroke: rgb(55,53,58); stroke-width: 0; stroke-dasharray: none; stroke-linecap: butt; stroke-dashoffset: 0; stroke-linejoin: miter; stroke-miterlimit: 2; fill: rgb(55,53,58); fill-rule: nonzero; opacity: 1;" vector-effect="non-scaling-stroke"  transform=" translate(-100, -100)" d="M 80.97266 119.83057 L 79.45313 118.20263999999999 L 86.89161 109.30322999999999 L 88.81349 111.71533999999998 C 90.31837 113.60205999999998 92.28419 115.14990999999998 94.48829 116.18701999999999 C 96.56153 117.16601999999999 98.80079 117.67724999999999 100.96095000000001 117.67724999999999 C 103.51075000000002 117.67724999999999 105.68458000000001 117.11572999999999 107.08204 116.10058999999998 C 108.34181000000001 115.18603999999998 108.95411 113.96191999999998 108.95411 112.34912999999999 C 108.95411 110.59180999999998 108.41407 109.50488999999999 107.03907 108.47510999999999 C 105.45411 107.29395999999998 102.89063 106.32910999999999 99.917 105.20606999999998 C 99.66505000000001 105.11231999999998 99.40626 105.01172999999999 99.13966 104.91065999999998 C 95.05665 103.39161999999997 91.13282000000001 101.82911999999997 87.98536000000001 99.32325999999998 C 86.15675000000002 97.86866999999998 84.80323000000001 96.26270999999997 83.84522000000001 94.41944999999998 C 82.77979 92.37452999999998 82.23975000000002 90.04883999999998 82.23975000000002 87.50684999999999 C 82.23975000000002 83.07862999999999 84.15528000000002 78.98145999999998 87.62598000000001 75.97120999999999 C 90.99610000000001 73.05518999999998 95.52442 71.44972999999999 100.38575000000002 71.44972999999999 C 106.66407000000001 71.44972999999999 112.79200000000002 73.71046999999999 118.09864000000002 77.98048999999999 L 120.01466000000002 79.52882999999999 L 113.10841000000002 88.51515999999998 L 111.09278000000002 86.85890999999998 C 107.54298000000001 83.92824999999998 103.63965000000002 82.25050999999998 100.38575000000002 82.25050999999998 C 97.36134000000001 82.25050999999998 93.81837000000002 83.56105999999998 93.76075000000002 87.25489999999998 C 93.73927000000002 88.90382999999997 94.53126000000002 89.80372999999997 95.73341000000002 90.64649999999997 C 97.45509000000003 91.85596999999997 100.19044000000002 92.89991999999998 103.08595000000003 94.00879999999998 L 103.11427000000002 94.01611999999999 C 103.56837000000002 94.19629999999998 104.02150000000002 94.37646999999998 104.47560000000001 94.54882999999998 C 108.57228000000002 96.15478999999998 112.44630000000001 97.66698999999998 115.38380000000001 100.08642999999998 C 118.8545 102.95214999999997 120.54689 106.72509999999998 120.54689 111.62890999999998 C 120.54689 114.28613999999997 119.97853 116.75585999999997 118.85451 118.97314999999998 C 117.79592000000001 121.04736999999997 116.2842 122.85498999999997 114.33986 124.34521999999997 C 110.79787 127.05224999999997 106.02345 128.55029999999996 100.88966 128.55029999999996 C 93.2998 128.55029 86.229 125.45459 80.97266 119.83057 z" stroke-linecap="round" />
</g>
<g transform="matrix(0.19 0 0 0.19 537.72 98.29)" id="icon"  >
</g>
</svg>