<?xml version="1.0" encoding="UTF-8" standalone="no" ?>
<!DOCTYPE svg PUBLIC "-//W3C//DTD SVG 1.1//EN" "http://www.w3.org/Graphics/SVG/1.1/DTD/svg11.dtd">
<svg xmlns="http://www.w3.org/2000/svg" xmlns:xlink="http://www.w3.org/1999/xlink" version="1.1" width="1080" height="200" viewBox="0 0 1080 200" xml:space="preserve">
<desc>Created with Fabric.js 5.2.4</desc>
<defs>
</defs>
<g transform="matrix(1 0 0 1 540 100)" id="0c1a7848-4ae8-4071-954c-4488f4d7b5ea"  >
<rect style="stroke: none; stroke-width: 1; stroke-dasharray: none; stroke-linecap: butt; stroke-dashoffset: 0; stroke-linejoin: miter; stroke-miterlimit: 4; fill: rgb(255,255,255); fill-rule: nonzero; opacity: 1; visibility: hidden;" vector-effect="non-scaling-stroke"  x="-540" y="-100" rx="0" ry="0" width="1080" height="200" />
</g>
<g transform="matrix(0 0 0 0 0 0)" id="31002ace-8aab-419b-9b36-a1d77c288882"  >
</g>
<g transform="matrix(0.2 0 0 0.2 511.01 101.13)" id="container"  >
</g>
<g transform="matrix(0.2 0 0 0.2 542.4 101.8)" id="icon_container"  >
</g>
<g transform="matrix(2.55 0 0 2.55 79.32 101.35)"  >
<path style="stroke: rgb(255,255,255); stroke-width: 0; stroke-dasharray: none; stroke-linecap: butt; stroke-dashoffset: 0; stroke-linejoin: miter; stroke-miterlimit: 2; fill: rgb(0,0,0); fill-rule: nonzero; opacity: 1;" vector-effect="non-scaling-stroke"  transform=" translate(-100, -100)" d="M 117.46191 74.79761 L 117.46191 84.01441 L 93.84375 84.01441 L 93.84375 125.2024 L 82.53809 125.2024 L 82.53809 74.79761 L 117.46191 74.79761 z M 102.12402 96.97583 L 115.58886 96.97583 L 115.58886 106.19263000000001 L 100.82812 106.19263000000001 L 102.12402 96.97583 z" stroke-linecap="round" />
</g>
<g transform="matrix(2.55 0 0 2.55 197.77 101.91)"  >
<path style="stroke: rgb(255,255,255); stroke-width: 0; stroke-dasharray: none; stroke-linecap: butt; stroke-dashoffset: 0; stroke-linejoin: miter; stroke-miterlimit: 2; fill: rgb(0,0,0); fill-rule: nonzero; opacity: 1;" vector-effect="non-scaling-stroke"  transform=" translate(-100, -100)" d="M 121.70996 74.50977 L 121.70996 103.81641 C 121.70996 117.20996000000001 113.42969 125.49024 100.10839999999999 125.49024 C 86.64356 125.49024 78.29003999999999 117.20997 78.29003999999999 103.81641 L 78.29003999999999 74.50977 L 89.5957 74.50977 L 89.5957 103.81641 C 89.5957 110.87305 93.84375 115.62598 100.18065999999999 115.62598 C 106.44433 115.62598 110.47753999999999 111.01758 110.47753999999999 103.88868 L 110.47753999999999 74.58203 L 121.70996 74.50977 z" stroke-linecap="round" />
</g>
<g transform="matrix(2.55 0 0 2.55 326.61 101.69)"  >
<path style="stroke: rgb(255,255,255); stroke-width: 0; stroke-dasharray: none; stroke-linecap: butt; stroke-dashoffset: 0; stroke-linejoin: miter; stroke-miterlimit: 2; fill: rgb(0,0,0); fill-rule: nonzero; opacity: 1;" vector-effect="non-scaling-stroke"  transform=" translate(-100, -100)" d="M 118.82959 115.9856 L 118.82959 125.20240000000001 L 81.17041 125.20240000000001 L 81.17041 74.79761 L 118.0376 74.79761 L 118.0376 84.01441 L 92.40381 84.01441 L 92.40381 115.91334 L 118.82959 115.9856 z M 99.46045 104.60864 L 100.75635 95.39134999999999 L 115.58936 95.39134999999999 L 115.58936 104.60864 L 99.46045 104.60864 z" stroke-linecap="round" />
</g>
<g transform="matrix(2.55 0 0 2.55 437.91 101.52)"  >
<path style="stroke: rgb(255,255,255); stroke-width: 0; stroke-dasharray: none; stroke-linecap: butt; stroke-dashoffset: 0; stroke-linejoin: miter; stroke-miterlimit: 2; fill: rgb(0,0,0); fill-rule: nonzero; opacity: 1;" vector-effect="non-scaling-stroke"  transform=" translate(-100, -100)" d="M 115.91309 115.33716 L 115.91309 125.20239 L 84.08691 125.20239 L 84.08691 74.79761 L 95.3916 74.79761 L 95.3916 115.26587 L 115.91309 115.33716 z" stroke-linecap="round" />
</g>
<g transform="matrix(2.55 0 0 2.55 555.7 81.73)"  >
<path style="stroke: rgb(255,255,255); stroke-width: 0; stroke-dasharray: none; stroke-linecap: butt; stroke-dashoffset: 0; stroke-linejoin: miter; stroke-miterlimit: 2; fill: rgb(0,0,0); fill-rule: nonzero; opacity: 1;" vector-effect="non-scaling-stroke"  transform=" translate(-100, -92.12)" d="M 102.19629 84.1582 C 102.19629 84.1582 80.23438 83.51025 76.77832000000001 109.93700999999999 C 75.48242 106.84032999999998 74.76172000000001 103.45653999999999 74.76172000000001 99.85595999999998 C 74.76172000000001 85.31054999999998 86.49902000000002 74.29345999999998 102.05274000000001 74.29345999999998 C 112.06153000000002 74.29345999999998 120.48633000000001 78.83007999999998 125.23829 85.88622999999998 L 114.79786000000001 90.56688999999999 C 111.84473000000001 86.67870999999998 107.16505000000001 84.23046 102.19630000000001 84.23046 L 102.19630000000001 84.1582 z" stroke-linecap="round" />
</g>
<g transform="matrix(2.55 0 0 2.55 567.8 135.45)"  >
<path style="stroke: rgb(255,255,255); stroke-width: 0; stroke-dasharray: none; stroke-linecap: butt; stroke-dashoffset: 0; stroke-linejoin: miter; stroke-miterlimit: 2; fill: rgb(0,0,0); fill-rule: nonzero; opacity: 1;" vector-effect="non-scaling-stroke"  transform=" translate(-104.62, -112.82)" d="M 102.19629 115.84131 C 107.09277 115.84131 111.77344000000001 113.39307 114.72559000000001 109.50439999999999 L 125.09473000000001 114.1128 C 120.3418 121.16944 111.98926000000002 125.70655 102.05274000000001 125.70655 C 99.89258000000001 125.70655 97.80372000000001 125.48974999999999 95.85938000000002 125.05811 C 94.13184000000001 124.40967 92.47559000000001 123.54639 90.96290000000002 122.32178 C 86.78712000000002 118.86573 85.34669000000002 115.19287 84.84278000000002 113.46533000000001 C 83.11426000000002 107.92041 84.98731000000002 102.73584000000001 86.13868000000002 99.92822000000001 C 86.21095000000003 108.64111000000001 93.98731000000002 115.69775000000001 102.26856000000002 115.69775000000001 L 102.19629 115.84131 z" stroke-linecap="round" />
</g>
<g transform="matrix(2.55 0 0 2.55 682.72 101.52)"  >
<path style="stroke: rgb(255,255,255); stroke-width: 0; stroke-dasharray: none; stroke-linecap: butt; stroke-dashoffset: 0; stroke-linejoin: miter; stroke-miterlimit: 2; fill: rgb(0,0,0); fill-rule: nonzero; opacity: 1;" vector-effect="non-scaling-stroke"  transform=" translate(-100, -100)" d="M 115.91309 115.33716 L 115.91309 125.20239 L 84.08691 125.20239 L 84.08691 74.79761 L 95.3916 74.79761 L 95.3916 115.26587 L 115.91309 115.33716 z" stroke-linecap="round" />
</g>
<g transform="matrix(2.55 0 0 2.55 754.5 101.34)"  >
<path style="stroke: rgb(255,255,255); stroke-width: 0; stroke-dasharray: none; stroke-linecap: butt; stroke-dashoffset: 0; stroke-linejoin: miter; stroke-miterlimit: 2; fill: rgb(0,0,0); fill-rule: nonzero; opacity: 1;" vector-effect="non-scaling-stroke"  transform=" translate(-100, -100)" d="M 94.34717 125.20215 L 94.34717 74.79785000000001 L 105.65283000000001 74.79785000000001 L 105.65283000000001 125.20215000000002 L 94.34717 125.20215000000002 z" stroke-linecap="round" />
</g>
<g transform="matrix(2.55 0 0 2.55 855.67 81.73)"  >
<path style="stroke: rgb(255,255,255); stroke-width: 0; stroke-dasharray: none; stroke-linecap: butt; stroke-dashoffset: 0; stroke-linejoin: miter; stroke-miterlimit: 2; fill: rgb(0,0,0); fill-rule: nonzero; opacity: 1;" vector-effect="non-scaling-stroke"  transform=" translate(-100, -92.12)" d="M 102.19629 84.1582 C 102.19629 84.1582 80.23438 83.51025 76.77832000000001 109.93700999999999 C 75.48242 106.84032999999998 74.76172000000001 103.45653999999999 74.76172000000001 99.85595999999998 C 74.76172000000001 85.31054999999998 86.49902000000002 74.29345999999998 102.05274000000001 74.29345999999998 C 112.06153000000002 74.29345999999998 120.48633000000001 78.83007999999998 125.23829 85.88622999999998 L 114.79786000000001 90.56688999999999 C 111.84473000000001 86.67870999999998 107.16505000000001 84.23046 102.19630000000001 84.23046 L 102.19630000000001 84.1582 z" stroke-linecap="round" />
</g>
<g transform="matrix(2.55 0 0 2.55 867.77 135.45)"  >
<path style="stroke: rgb(255,255,255); stroke-width: 0; stroke-dasharray: none; stroke-linecap: butt; stroke-dashoffset: 0; stroke-linejoin: miter; stroke-miterlimit: 2; fill: rgb(0,0,0); fill-rule: nonzero; opacity: 1;" vector-effect="non-scaling-stroke"  transform=" translate(-104.62, -112.82)" d="M 102.19629 115.84131 C 107.09277 115.84131 111.77344000000001 113.39307 114.72559000000001 109.50439999999999 L 125.09473000000001 114.1128 C 120.3418 121.16944 111.98926000000002 125.70655 102.05274000000001 125.70655 C 99.89258000000001 125.70655 97.80372000000001 125.48974999999999 95.85938000000002 125.05811 C 94.13184000000001 124.40967 92.47559000000001 123.54639 90.96290000000002 122.32178 C 86.78712000000002 118.86573 85.34669000000002 115.19287 84.84278000000002 113.46533000000001 C 83.11426000000002 107.92041 84.98731000000002 102.73584000000001 86.13868000000002 99.92822000000001 C 86.21095000000003 108.64111000000001 93.98731000000002 115.69775000000001 102.26856000000002 115.69775000000001 L 102.19629 115.84131 z" stroke-linecap="round" />
</g>
<g transform="matrix(2.55 0 0 2.55 999.43 101.44)"  >
<path style="stroke: rgb(255,255,255); stroke-width: 0; stroke-dasharray: none; stroke-linecap: butt; stroke-dashoffset: 0; stroke-linejoin: miter; stroke-miterlimit: 2; fill: rgb(0,0,0); fill-rule: nonzero; opacity: 1;" vector-effect="non-scaling-stroke"  transform=" translate(-100, -100)" d="M 121.02588 74.76172 L 88.83936 112.85352 L 88.83936 125.16602 L 77.53369 125.16602 L 77.53369 74.76172 L 88.83935000000001 74.76172 L 88.83935000000001 97.94775999999999 L 108.1372 74.76172 L 121.02588 74.76172 z M 122.46631 125.23828 L 108.9292 125.23828 L 99.7124 110.76465 C 101.15185 102.05225 108.28076 103.06006000000001 108.28076 103.06006000000001 L 122.46631 125.23828 z" stroke-linecap="round" />
</g>
<g transform="matrix(0.2 0 0 0.2 542.4 101.8)" id="icon"  >
</g>
</svg>