<?xml version="1.0" encoding="utf-8"?>
<!-- Generator: Adobe Illustrator 24.2.1, SVG Export Plug-In . SVG Version: 6.00 Build 0)  -->
<!DOCTYPE svg PUBLIC "-//W3C//DTD SVG 1.1//EN" "http://www.w3.org/Graphics/SVG/1.1/DTD/svg11.dtd" [
	<!ENTITY ns_extend "http://ns.adobe.com/Extensibility/1.0/">
	<!ENTITY ns_ai "http://ns.adobe.com/AdobeIllustrator/10.0/">
	<!ENTITY ns_graphs "http://ns.adobe.com/Graphs/1.0/">
	<!ENTITY ns_vars "http://ns.adobe.com/Variables/1.0/">
	<!ENTITY ns_imrep "http://ns.adobe.com/ImageReplacement/1.0/">
	<!ENTITY ns_sfw "http://ns.adobe.com/SaveForWeb/1.0/">
	<!ENTITY ns_custom "http://ns.adobe.com/GenericCustomNamespace/1.0/">
	<!ENTITY ns_adobe_xpath "http://ns.adobe.com/XPath/1.0/">
]>
<svg version="1.1" id="Layer_1" xmlns:x="&ns_extend;" xmlns:i="&ns_ai;" xmlns:graph="&ns_graphs;"
	 xmlns="http://www.w3.org/2000/svg" xmlns:xlink="http://www.w3.org/1999/xlink" x="0px" y="0px" width="2048px" height="2048px"
	 viewBox="0 0 2048 2048" style="enable-background:new 0 0 2048 2048;" xml:space="preserve">
<style type="text/css">
	.Drop_x0020_Shadow{fill:none;}
	.Round_x0020_Corners_x0020_2_x0020_pt{fill:#FFFFFF;stroke:#231F20;stroke-miterlimit:10;}
	.Live_x0020_Reflect_x0020_X{fill:none;}
	.Bevel_x0020_Soft{fill:url(#SVGID_1_);}
	.Dusk{fill:#FFFFFF;}
	.Foliage_GS{fill:#FFDD00;}
	.Pompadour_GS{fill-rule:evenodd;clip-rule:evenodd;fill:#44ADE2;}
	.st0{fill:#B7DEFF;}
	.st1{fill:#5093FC;}
	.st2{fill:#073C5B;}
	.st3{fill:#3079B0;}
	.st4{fill:#F2F4F9;}
	.st5{fill:#FF5123;}
	.st6{fill:#FFFFFF;}
	.st7{fill:#28ADEE;}
	.st8{fill:#FBA074;}
	.st9{fill:#0F4060;}
	.st10{fill:#FFA470;}
	.st11{fill:#FCA571;}
	.st12{fill:#17375A;}
	.st13{fill:#4681C7;}
</style>
<metadata>
	<sfw  xmlns="&ns_sfw;">
		<slices></slices>
		<sliceSourceBounds  bottomLeftOrigin="true" height="1392.9" width="1672.8" x="187.6" y="-1720.5"></sliceSourceBounds>
	</sfw>
</metadata>
<linearGradient id="SVGID_1_" gradientUnits="userSpaceOnUse" x1="0" y1="0" x2="0.7071" y2="0.7071">
	<stop  offset="0" style="stop-color:#DEDFE3"/>
	<stop  offset="0.1783" style="stop-color:#DADBDF"/>
	<stop  offset="0.3611" style="stop-color:#CECFD3"/>
	<stop  offset="0.546" style="stop-color:#B9BCBF"/>
	<stop  offset="0.7324" style="stop-color:#9CA0A2"/>
	<stop  offset="0.9181" style="stop-color:#787D7E"/>
	<stop  offset="1" style="stop-color:#656B6C"/>
</linearGradient>
<g>
	<ellipse class="st0" cx="1073" cy="1663.8" rx="787.4" ry="56.7"/>
	<g>
		<path class="st0" d="M245.8,1046.4c0,0,156.3,530,625,517.8c468.8-12.3,1011.1-300.3,959-701.6s-284.9-566.8-536.2-530
			S941.3,568.5,720.7,550.1S22.1,378.5,245.8,1046.4z"/>
		<g>
			<g>
				<rect x="674.7" y="678.7" class="st1" width="18.8" height="505.5"/>
				<path class="st2" d="M484.2,911c-2.7,0-5.2-1-7.1-3c-6.1-6.1-6.1-20.8-6.1-31.5l0-1.7c0-2.3-0.8-3.2-1.3-3.7
					c-2.3-1.9-7.1-1.4-8.7-1.1l-0.4,0.1l-0.4,0h-47.6l-0.5-0.2c-12-3.5-14.5-15.4-14.1-21.3v-34.3c0-2.2,1.8-4,4-4s4,1.8,4,4l0,34.8
					c0,0.4-0.5,10.2,7.9,13.1h46c2.1-0.4,9.8-1.4,14.9,2.8c2,1.6,4.3,4.6,4.3,9.9l0,1.7c0,7.7,0,22.1,3.7,25.8
					c0.2,0.2,0.3,0.3,0.5,0.4c4.1-7.8,6.4-51.6,6.2-89.7c0-2.2,1.8-4,4-4c0,0,0,0,0,0c2.2,0,4,1.8,4,4c0,0.2,0.1,21.6-0.8,43.7
					c-1.9,46.1-6.3,50.5-8.2,52.4C486.9,910.7,485.3,911,484.2,911z"/>
				<g>
					<g>
						<g>
							<path class="st3" d="M785.8,494.9l16.1,13.8c0,0-43.7,50.6-44.4,46.7c-0.8-3.8-9.2-42.1-9.2-42.1l21.4-10.7L785.8,494.9z"/>
							<path class="st3" d="M530.7,651.2l16.1,13.8c0,0,179.2-86.6,175.4-87.3c-3.8-0.8-128.7-35.2-128.7-35.2s-42.1-25.3-44.4-26
								c-2.3-0.8-12.3,10-12.3,10L530.7,651.2z"/>
							<rect x="530.7" y="494.9" class="st3" width="255.1" height="156.3"/>
							<rect x="546.8" y="508.7" class="st4" width="255.1" height="156.3"/>
						</g>
						<g>
							<path class="st5" d="M652.7,588.6l-5.6,7.5l-0.9,1.2l-0.6,0.8l-34.4,34.4l-33.3-33.3l-1.1-1.1l-0.1-0.1l-7-9.4
								c-9.1-12.3-6.5-29.6,5.8-38.7c4.9-3.6,10.7-5.4,16.4-5.4c7,0,13.9,2.7,19.2,7.7c5.3-5.1,12.2-7.7,19.2-7.7
								c5.7,0,11.5,1.8,16.4,5.4C659.1,559,661.7,576.3,652.7,588.6z"/>
							<polygon class="st6" points="647.1,596.2 646.2,597.4 623.5,597.4 623.5,605.4 622.3,605.5 617.4,580.3 615.8,598.4 
								610.1,598.4 608.3,615.3 601,577.5 597.6,599.3 577.9,599.3 576.8,598.2 576.7,598.1 596.6,598.1 600.8,570.2 607.9,606.9 
								608.9,597.1 614.7,597.1 616.9,571.3 622.3,598.9 622.3,596.2 							"/>
						</g>
					</g>
					<path class="st7" d="M689.3,607.3C689.3,607.3,689.3,607.3,689.3,607.3c-0.6,0-1-0.5-1-1.1c0.1-1.4,2-33.6,12.1-40.3
						c2.1-1.4,4.3-1.6,6.8-0.7c8.3,3,8.1,15.8,8,26c-0.1,5.3-0.1,11.3,1.5,12.1c0.3,0.1,1.3,0.3,3.7-1.8c5.1-4.3,8.7-10.7,11.6-15.8
						c3.2-5.7,5.8-10.2,9.3-10.3c0,0,0,0,0.1,0c2.5,0,5,2.2,7.9,7c3,5,5.2,8.9,6.8,11.8c1.6,2.9,3,5.5,3.7,6
						c0.4-0.5,1.2-2.2,1.6-3.1c0.2-0.5,0.8-0.7,1.3-0.5c0.5,0.2,0.7,0.8,0.5,1.3c-1.2,2.7-1.9,4.3-3.3,4.4c-1.6,0.1-2.6-1.7-5.6-7.1
						c-1.6-2.9-3.8-6.8-6.8-11.8c-2.5-4-4.5-6.1-6.2-6c-2.4,0-4.8,4.3-7.6,9.3c-2.9,5.2-6.6,11.8-12,16.3c-1.6,1.3-3.9,3-5.9,2.1
						c-2.7-1.3-2.7-6.6-2.6-13.9c0.1-9.6,0.2-21.6-6.7-24.1c-1.8-0.7-3.4-0.5-5,0.5c-9.2,6.1-11.2,38.4-11.2,38.7
						C690.3,606.9,689.9,607.3,689.3,607.3z"/>
					<path class="st3" d="M776.9,599.7h-98c-0.6,0-1-0.4-1-1s0.4-1,1-1h98c0.6,0,1,0.4,1,1S777.4,599.7,776.9,599.7z"/>
				</g>
				<path class="st2" d="M451.8,698.8c-2.2,0-4-1.8-4-4V567.5h92.1c2.2,0,4,1.8,4,4s-1.8,4-4,4h-84.1v119.3
					C455.8,697,454,698.8,451.8,698.8z"/>
				<g>
					<rect x="356.1" y="686.8" class="st3" width="149.2" height="129.8"/>
					<rect x="394.5" y="686.8" class="st7" width="134.7" height="129.8"/>
					<rect x="407.9" y="705.8" class="st3" width="112" height="4.6"/>
					<rect x="407.9" y="720.6" class="st3" width="112" height="4.6"/>
					<rect x="407.9" y="735.4" class="st3" width="112" height="4.6"/>
					<rect x="407.9" y="750.2" class="st3" width="112" height="4.6"/>
					<rect x="407.9" y="765" class="st3" width="112" height="4.6"/>
					<rect x="407.9" y="779.9" class="st3" width="112" height="4.6"/>
					<rect x="407.9" y="794.7" class="st3" width="112" height="4.6"/>
				</g>
				<g>
					<path class="st2" d="M640.2,730.5c-0.7,0-1.4-0.4-1.7-1c-0.5-1-0.2-2.2,0.8-2.7c10.8-6.1,7.5-22.2,7.5-22.3l-0.5-2.4l2.5,0
						h70.1l0.3,1.6c0.2,0.9,4.5,21.8,24.8,19.1c6.8-0.9,11.5-3.7,13.7-8.3c3.4-7,1.4-18.2-5.5-30.1c-0.6-1-0.2-2.2,0.7-2.7
						c1-0.6,2.2-0.2,2.7,0.7c7.5,13,9.6,25.7,5.6,33.9c-2.9,5.8-8.5,9.4-16.7,10.5c-20.5,2.8-27.3-15.1-28.9-20.7H651
						c0.6,5.4,0.9,18.3-9.8,24.3C640.9,730.5,640.6,730.5,640.2,730.5z"/>
					<g>
						<path class="st4" d="M569,745.9v128.6c0,6.6,3.1,12.8,8.4,16.7l35.3,26.5c7.4,5.5,17.5,5.6,24.9,0.1l36.2-26.6
							c5.4-3.9,8.5-10.2,8.5-16.9V745.9c0-11.6-9.4-20.9-20.9-20.9h-71.5C578.4,725,569,734.4,569,745.9z"/>
						<path class="st7" d="M579.4,743.3c0,0,25.6-0.9,32.9,10.1c7.3,11,22.9,17.4,27.4,15.5c4.6-1.8,9.1-4.6,11.9,0
							c2.7,4.6,5.5,5.5,6.4,9.1s7.3,28.3,7.3,36.6c0,8.2,6.4,58.5,6.4,58.5s-40.2,32-44.8,31.1c-4.6-0.9-45.7-19.2-44.8-25.6
							C583,872.2,579.4,743.3,579.4,743.3z"/>
					</g>
					<path class="st2" d="M629.5,735.9c-0.1,0-0.2,0-0.3,0c-10.2-1.8-17.1-6.2-20.5-13.1c-6.8-13.7,2.6-31.9,3-32.7
						c0.5-1,1.7-1.4,2.7-0.9c1,0.5,1.4,1.7,0.9,2.7c-0.1,0.2-8.8,17.2-2.9,29.1c2.8,5.7,8.8,9.4,17.6,10.9c1.1,0.2,1.8,1.2,1.6,2.3
						C631.3,735.2,630.5,735.9,629.5,735.9z"/>
				</g>
			</g>
			<g>
				<path class="st1" d="M1274.5,753.6l20.7-1.5c0,0,19.7-2.3,23.7,0.5c4.1,2.8,4.1,22.5,4.1,22.5s-15.6,17.1-28.1,15.6
					c-12.5-1.5-15.6,0-19.4-6.1c-3.8-6.1-5.6-6.6-4.9-13S1274.5,753.6,1274.5,753.6z"/>
				<path class="st1" d="M1274.5,753.6c0,0-50.6,27.8-55.9,99.8c0,0,1.5,36.8-2.3,42.1c-3.8,5.4-8.4,13-8.4,13s15.3,7.7,22.2,7.7
					c6.9,0,25.3,3.1,29.9-8.4c4.6-11.5,16.9-31.4,17.6-42.1C1278.3,854.9,1274.5,753.6,1274.5,753.6z"/>
				<g>
					<path class="st4" d="M1388.6,1190.1l-41.2-30.1c0.3-1,0.4-1.9,0.4-2.6c0-12.2-4.1-28.6-12.2-40.8
						c-8.2-12.2-24.5-48.9-24.5-48.9s-73.4,93.8-81.6,106.1c-8.2,12.2-12.2,379.3-12.2,395.7s69.3,8.2,69.3,8.2l14.3-326.3
						l97.9,322.2c0,0,57.1-12.2,57.1-18.4C1455.9,1549.1,1388.6,1190.1,1388.6,1190.1z"/>
					<path class="st1" d="M1360.1,753.6c0,0,48.9,12.2,50.3,43.5c1.4,31.3-25.8,136-25.8,136l-20.4,10.9c0,0,77.5,199.9,59.8,314.1
						c0,0-73.4,25.8-99.3,25.8c-25.8,0-32.6-2.7-32.6-2.7l-4.1-96.5c0,0-17.7,87-17.7,93.8c0,6.8-58.5,5.4-58.5,5.4l20.4-431
						c0,0,9.5-80.2,61.2-100.6L1360.1,753.6z"/>
				</g>
				<rect x="1112.1" y="912.4" class="st2" width="182.3" height="13"/>
				<path class="st4" d="M1305.9,945.3l-4.6-39.8l-72,13.8c0,0-32.2-24.5-33.7-15.3c-1.5,9.2,7.7,19.9,7.7,19.9s-53.6,6.1-59.7,3.1
					s4.6,21.4,26,23C1191,951.4,1305.9,945.3,1305.9,945.3z"/>
				<polygon class="st3" points="1301.3,905.5 1348.7,882.5 1361.8,802.1 1341.9,874.8 				"/>
				<path class="st8" d="M1323.3,782.5L1323.3,782.5c-13.9,0-25.1-11.2-25.1-25.1v-49.3h50.2v49.3
					C1348.4,771.3,1337.1,782.5,1323.3,782.5z"/>
				<path class="st3" d="M1262.2,789c0,0-23,52.1-19.1,68.9c0,0,1.5,19.1,0,29.1c-1.5,10-6.9,24.5-6.9,24.5s6.9-26.8,3.1-36.8
					c-3.8-10-3.8-35.2,1.5-49.8C1246.1,810.5,1262.2,789,1262.2,789z"/>
				<path class="st8" d="M1271.1,648.1c0,0-0.5,64.9,4.1,69.4c4.6,4.6,18.4,20.4,25.5,20.9s47-18.9,47-18.9l0.6-11.5l-0.1-42.2
					L1271.1,648.1z"/>
				<path class="st2" d="M1321.2,675.7c0,0,3.6,22,5.6,24c2,2,11.7-13.3,19.4-8.7l2.6,10.7l-1,40.9c0,0,21.4-38.3,18.4-52.6
					c-3.1-14.3-12.3-30.1-20.4-32.2c-8.2-2-15.8-3.1-15.8-3.1L1321.2,675.7z"/>
				
					<rect x="1302.3" y="691.7" transform="matrix(0.7975 -0.6033 0.6033 0.7975 -149.5223 938.7868)" class="st4" width="43.2" height="1"/>
				
					<rect x="1332.2" y="694.4" transform="matrix(0.2537 -0.9673 0.9673 0.2537 299.4832 1825.3256)" class="st4" width="1" height="48.3"/>
				<path class="st1" d="M1365.9,689.5c0,0-18.9,0.5-30.1-7.7c-11.2-8.2-22-5.1-35.2-12.8c-13.3-7.7-16.9-9.2-20.9-9.7
					c-4.1-0.5-11.7,3.1-13.8-5.1c-2-8.2-2.6-22.5,10.2-26.6c12.8-4.1,14.8-13.3,28.6-14.3c13.8-1,26.6-4.1,32.2,3.1
					c5.6,7.1,11.7,15.8,18.4,19.4s11.2,4.1,13.3,11.7c2,7.7,0,7.7,2.6,16.3C1373.5,672.6,1377.1,685.4,1365.9,689.5z"/>
				<ellipse class="st8" cx="1344.7" cy="699.9" rx="11.6" ry="15.4"/>
				<path class="st1" d="M1272.2,694.3c0,0,7.7-7.9,21.7-0.8c14,7.1,28.9,14.6,29.9,18.6c1,4.1-24.5,24.8-26.8,25
					s-21.2-1.5-24.8-11.5C1268.6,715.8,1266.8,695.9,1272.2,694.3z"/>
				<ellipse class="st2" cx="1292.6" cy="685.8" rx="2.1" ry="3.6"/>
				<ellipse class="st2" cx="1276" cy="685.8" rx="2.1" ry="3.6"/>
				<path class="st2" d="M1288.8,677.4c0,0,5.6-0.6,9.6,1.5c4,2.1,4.5-0.4,3.9-1.3c-0.6-1-8.3-4.4-10.6-4S1287.7,675.9,1288.8,677.4
					z"/>
				<path class="st2" d="M1282.3,676.8c0,0-4-1-7.2,0.2s-3.3-0.7-2.8-1.4c0.5-0.7,6.6-2.5,8.2-2S1283.2,675.8,1282.3,676.8z"/>
			</g>
			<polygon class="st2" points="887.6,1225.6 834.8,1561.1 925.9,1564.2 977.3,1227.9 1016.3,1568 1117.4,1565.7 1073.8,1214.2 
				952,1172.8 			"/>
			<path class="st1" d="M860.1,1032.6c0,0-43.7,303.3-34.5,307.9c9.2,4.6,85,13.8,112.6,2.3s41.4-96.5,41.4-96.5l16.1,75.8
				c0,0,105.7,9.2,124.1-18.4c18.4-27.6-62-280.3-62-280.3L860.1,1032.6z"/>
			<path class="st9" d="M834.5,554.7c0,0,35.7,52.1,33.2,70c-2.6,17.9-11.7,19.9-11.7,19.9l-31.1-30.1c0,0-20.4-21.4-21.4-26
				c-1-4.6-2-3.1-2.6-8.7c-0.5-5.6-1-12.3-1-12.3s2.6-3.1,4.6-4.1c2-1,8.7-4.6,13.3-5.6C822.3,556.7,834.5,554.7,834.5,554.7z"/>
			<path class="st1" d="M906.7,669.9c0,0,33.1-4.6,53.5,0.6s47.7,16.3,55.2,30.8c7.6,14.5,68.6,159.8,35.4,197
				c-33.1,37.2-49.4,34.3-49.4,34.3s-43.6-40.7-39.5-51.7c4.1-11,16.3-20.9,16.3-20.9s-34.3-80.8-38.4-86.6
				C935.8,767.6,906.7,669.9,906.7,669.9z"/>
			<path class="st1" d="M829.4,698.4c0,0-45.9,27.3-48.2,37.8c-2.3,10.5-1.2,119.1-4.6,141.8c-3.5,22.7-12.2,52.3-23.2,60.4
				c-11,8.1-55.2,62-55.2,62l98.8-16.1c0,0,31.4-38.4,33.1-69.2l20.3,80.2l201.7-2.9L906.7,669.9L829.4,698.4z"/>
			<g>
				<g>
					<rect x="327.4" y="1127.8" class="st2" width="1412.2" height="74.8"/>
					<g>
						<path class="st10" d="M1617.6,1077.7c0,0,6,3.8,12.9-7.6s6-4.5,12.9-19.7c6.8-15.1,3.8-56,10.6-56s8.3,12.9,8.3,19.7
							s7.6,8.3,8.3,16.6c0.8,8.3-4.5,13.6-4.5,22.7s7.6,34,5.3,52.2c-2.3,18.1-38.6,11.3-38.6,11.3l-20.4-15.9L1617.6,1077.7z"/>
						<path class="st10" d="M1587.9,1073.2c0,0,6,3.8,12.9-7.6c6.8-11.3,6-4.5,12.9-19.7c6.8-15.1,3.8-56,10.6-56
							c6.8,0,8.3,12.9,8.3,19.7s7.6,8.3,8.3,16.6c0.8,8.3-4.5,13.6-4.5,22.7s7.6,34,5.3,52.2c-2.3,18.1-38.6,11.3-38.6,11.3
							l-20.4-15.9L1587.9,1073.2z"/>
						<path class="st11" d="M592.4,1044.2c0,0,83.7-38.3,136.1-34.3v106.9H568.2L592.4,1044.2z"/>
						<g>
							<path class="st12" d="M410.8,998.9c0,0,2.8-29-26.2-27.1c-29,1.9-43.9,111.2-17.8,133.6s78.1,9.3,88.4,9.3
								c10.3,0,68.6-21.8,68.6-42.3S410.8,998.9,410.8,998.9z"/>
							<polygon class="st11" points="568.2,1116.8 592.4,1044.2 487.5,1043.8 487.5,1097 							"/>
							<path class="st11" d="M410.8,998.9c0,0,135.5-30.8,147.6,9.3c12.1,40.2-4.7,87.8-4.7,87.8h-52.3c0,0,6.5,17.8-13.1,25.2
								c-19.6,7.5-53.3-4.7-48.6-15.9c4.7-11.2,15.9-13.1,15.9-13.1s-43-7.5-45.8-9.3C407.1,1081.2,423,1027,410.8,998.9z"/>
							<path class="st4" d="M462.2,990.5c0,0-2.8,9.3,6.5,13.1c9.3,3.7,23.4,8.4,41.1,21.5c17.8,13.1,43,31.8,51.4,22.4
								c8.4-9.3,28-70.1-7.5-73.8C518.3,970,475.3,970,462.2,990.5z"/>
							<path class="st12" d="M440.3,1017.1c0,0-2.3,26.6,2.8,35c5.1,8.4,8.4-4.7,7.9-9.8c-0.5-5.1-0.5-27.1-4.7-27.6
								C442.1,1014.3,440.3,1014.8,440.3,1017.1z"/>
							<path class="st12" d="M467.4,1034.5c0-0.6,0-1.2-0.1-1.8c-0.9-8.8-7.7-14.3-8-14.6l-0.8,1c0.1,0.1,6.7,5.5,7.5,13.7
								c0.5,5.3-1.4,10.6-5.8,15.8l0.9,0.8C465.4,1044.4,467.4,1039.5,467.4,1034.5z"/>
						</g>
						<path class="st4" d="M1629.3,1108.4l-7.5,0.1l-23.5,0.2l-386.7,3.9l-586.8,6l-5.1,0.1c0.9-0.6,1.7-1.3,2.5-2
							c1.2-1.2,2.2-2.5,3-4c0.2-0.3,0.3-0.6,0.5-1c3.2-6.7,3-15.9,1.2-25.5c-4.1-22.1-17-46.6-18.2-49c-0.1-0.1-0.1-0.2-0.1-0.2
							c28.7-21.7,68.8-37.3,116.3-48.2c29.7-6.8,62.4-11.7,97-15.1c260.2-25.4,629.4,36.5,689,44.3c39.9,5.3,69.4,27.6,89,48.8
							c6.3,6.8,11.6,13.4,15.8,19.4c5.2,7.2,8.9,13.3,11.1,17.3C1628.4,1106.7,1629.3,1108.4,1629.3,1108.4z"/>
					</g>
					<rect x="303.9" y="1112.7" class="st13" width="1473.6" height="16.4"/>
					<rect x="365.7" y="1160.6" class="st2" width="21.7" height="377.6"/>
					<rect x="522" y="1160.6" class="st2" width="21.7" height="377.6"/>
					<rect x="1682.6" y="1160.6" class="st2" width="21.7" height="377.6"/>
					<rect x="1510.3" y="1160.6" class="st2" width="21.7" height="377.6"/>
					<path class="st4" d="M625.8,1086.5c0,0,7.6,46.9-30.2,108.9c0,0,28.7,36.3,114.9,30.2c86.2-6,355.4-33.3,471.8-19.7
						c116.4,13.6,450.2,18.1,460.7,15.1c10.6-3-13.8-117.2-13.8-117.2s-403.1-29.4-447-40c-43.9-10.6-84.7-15.1-122.5-18.1
						c-37.8-3-119.5-1.5-164.8-3c-45.4-1.5-56-4.5-74.1-1.5C802.8,1044.2,625.8,1086.5,625.8,1086.5z"/>
					<rect x="327.4" y="1419.2" class="st13" width="1407.6" height="36.2"/>
				</g>
				<g>
					<circle class="st2" cx="428.6" cy="1614" r="57.4"/>
					<path class="st13" d="M357.8,1504.5h42.4c0,0,0,31.1,10.2,41.4s34,29.1,34,48.3s-2.3,32.2-2.3,32.2h-25.3
						c0,0-0.8-30.6-13.4-35.2c-5.9-2.1-18.3-2.3-29.9-1.8c-13.3,0.5-23.9-10.9-22.4-24.1L357.8,1504.5z"/>
					<circle class="st4" cx="428" cy="1612.7" r="18.9"/>
				</g>
				<g>
					<circle class="st2" cx="584.9" cy="1614" r="57.4"/>
					<path class="st13" d="M514,1504.5h42.4c0,0,0,31.1,10.2,41.4s34,29.1,34,48.3s-2.3,32.2-2.3,32.2H573c0,0-0.8-30.6-13.4-35.2
						c-5.9-2.1-18.3-2.3-29.9-1.8c-13.3,0.5-23.9-10.9-22.4-24.1L514,1504.5z"/>
					<circle class="st4" cx="584.3" cy="1612.7" r="18.9"/>
				</g>
				<g>
					<circle class="st2" cx="1738.4" cy="1614" r="57.4"/>
					<path class="st13" d="M1667.6,1504.5h42.4c0,0,0,31.1,10.2,41.4s34,29.1,34,48.3s-2.3,32.2-2.3,32.2h-25.3
						c0,0-0.8-30.6-13.4-35.2c-5.9-2.1-18.3-2.3-29.9-1.8c-13.3,0.5-23.9-10.9-22.4-24.1L1667.6,1504.5z"/>
					<circle class="st4" cx="1737.8" cy="1612.7" r="18.9"/>
				</g>
				<g>
					<circle class="st2" cx="1573" cy="1614" r="57.4"/>
					<path class="st13" d="M1502.1,1504.5h42.4c0,0,0,31.1,10.2,41.4s34,29.1,34,48.3s-2.3,32.2-2.3,32.2h-25.3
						c0,0-0.8-30.6-13.4-35.2c-5.9-2.1-18.3-2.3-29.9-1.8c-13.3,0.5-23.9-10.9-22.4-24.1L1502.1,1504.5z"/>
					<circle class="st4" cx="1572.3" cy="1612.7" r="18.9"/>
				</g>
			</g>
			<path class="st11" d="M813.3,994.3c-6.5,2.3-4.2,5.8-3.1,9.2c1.1,3.4,2.3,7.3,1.9,9.6c-0.4,2.3-5.8,0.8-16.5-1.1
				c-10.7-1.9-8,1.1-11.9,1.1c-3.8,0-1.1,3.1-3.1,3.8c-1.9,0.8-6.1,0-13-1.9c-6.9-1.9-6.5-4.2-11.1-5.8c-4.6-1.5-7.3,0.8-10.3,0.8
				c-3.1,0-4.6,3.1-11.5,1.9c-6.9-1.2,0-4.2,0.4-8.4c0.4-4.2-1.9-7.3-8-8.4c-6.1-1.1-1.9-5.7-1.9-5.7s-0.2-0.1-0.4-0.4
				c29.7-6.8,62.4-11.7,97-15.1c-0.7,1.3-2,3.4-3.8,5.9c-3.1,4.2,0.4,5.4,0.4,5.4s3.8,2.3,4.6,4.6C823.7,992,819.9,992,813.3,994.3z
				"/>
			<path class="st5" d="M746.3,984c0,0,52.5-8.8,62-8.4c0,0,2.7,6.5-5,8.8c-7.7,2.3-1.5,8.8-0.8,11.9c0.8,3.1,9.2,11.5-4.6,4.6
				s-14.2-10.3-16.5-6.5c-2.3,3.8-3.1,5.4-6.1,4.2s-0.8-3.8-3.8-4.6c-3.1-0.8-2.3-4.2-7.3,0c-5,4.2-4.6,5.4-10,3.8
				c-5.4-1.5-4.6-6.9-3.1-7.3s5.4-5-2.3-3.1C741.3,989.3,741,987,746.3,984z"/>
			<g>
				<path class="st6" d="M792.7,967.1c0-1.5,3.4-4.6-1.1-7.7c-4.6-3.1-8-6.9-10-7.3c-1.9-0.4-2.7-1.9-5.4,0.8s-4.6,3.4-6.1,5
					s-5.4,3.1-3.1,6.5c2.3,3.4,1.9,5.7,2.7,8.4c0.8,2.7,0.4,3.4,3.1,4.6s-0.4,1.1,5.4,1.1s6.1,1.1,8.8-0.4s4.2-1.9,5-4.6
					C792.7,971,792.7,967.1,792.7,967.1z"/>
				<polygon class="st2" points="870,922.3 796.9,972.9 779.3,969.4 781.2,973.3 801.1,977.5 877.7,923.5 				"/>
				<polygon class="st2" points="876.5,941.5 822.2,956.8 840.2,946.5 881.1,934.6 				"/>
				<path class="st4" d="M943.1,891.3l31,47.7c0,0-26.7,8.1-36.8,8.9c-10.1,0.8-19.4,14.3-28.3,15.9c-8.9,1.5-21.7-0.8-21.7-0.8
					s-13.6-1.2-16.3-4.6s-8.9-5-10.1-10.1c-1.2-5,15.9-20.9,14.3-20.9c-1.5,0-17.4,2.3-15.9-4.3c1.5-6.6,10.8-14.7,25.2-14.7
					c14.3,0,27.1,3.5,27.1,3.5L943.1,891.3z"/>
			</g>
			<path class="st3" d="M943.1,891.3l47.1-41l-30.6-114.1c0,0-3.8,34.5,10,78.9c0,0,9.2,21.4,6.9,29.1
				C974.2,851.9,943.1,891.3,943.1,891.3z"/>
			<path class="st3" d="M794.2,753c0,0,28,108.2,35.8,162.1C830,915.2,821,802.8,794.2,753z"/>
			<path class="st8" d="M888.5,679l-29.7-66.4c0,0,0.1,0,0.3,0.1c1.1,0.2,5.1,0.1,4.4-11c-0.8-12.8-22-26.8-27-11.7
				c0,0-10.2-10.3-12.6-13c-2.4-2.7-23.6-17.2-37.9-8.8c-14.3,8.4-40.4,26.9-40.4,26.9s22.1,53.4,31.3,62.1
				c9.2,8.7,16.8,18.8,28.5,20c2,0.2,5.2-0.6,9.3-1.9l13.1,31.6c7,17,26.5,25,43.5,18h0c17-7,25-26.5,18-43.5L888.5,679z"/>
			<path class="st1" d="M769.7,656.3c0,0,10.7-35.7,52.6-36.3l22.5,20.4c0,0-15.3,40.9-38.8,40.9
				C782.5,681.3,769.7,656.3,769.7,656.3z"/>
			
				<rect x="805.2" y="593.9" transform="matrix(0.3848 -0.923 0.923 0.3848 -36.2479 1134.4753)" class="st4" width="55.5" height="1"/>
			
				<rect x="836.6" y="624.6" transform="matrix(0.5558 -0.8313 0.8313 0.5558 -139.9064 988.4217)" class="st4" width="36.9" height="1"/>
			
				<ellipse transform="matrix(0.8999 -0.4362 0.4362 0.8999 -194.9458 399.552)" class="st9" cx="772.7" cy="624.4" rx="3.4" ry="4.1"/>
			
				<ellipse transform="matrix(0.8999 -0.4362 0.4362 0.8999 -186.5076 410.1331)" class="st9" cx="800" cy="611.3" rx="3.4" ry="4.1"/>
			<path class="st9" d="M787.1,602.5c-0.3,1.5,1.7,2.5,2.7,1.3c1.5-1.6,3.9-3.7,7-5.2c5.6-2.7,6-3.5,4.5-4.5c-1.5-1-7-1.2-9.7,1.7
				C789.7,597.8,787.5,600,787.1,602.5z"/>
			<path class="st9" d="M775.2,610c1.3,0.8,0.8,2.9-0.8,2.9c-2.2,0.1-5.4,0.5-8.5,1.8c-5.7,2.4-6.6,2.2-6.3,0.4
				c0.3-1.8,3.7-6,7.7-6.1C770,608.9,773,608.7,775.2,610z"/>
			<path class="st1" d="M741.7,596.8c0,0,18.4,2.7,26.4-5.4c0,0,16.7-1.7,32.7-11.7c0,0,24.8-0.9,31.3-4.7c0,0,18.4,12.3,21.4,8.8
				c3.1-3.4-4.2-50.6-19.1-52.1c-14.9-1.5-30.6,5-30.6,5s-29.1-6.9-42.5,10c0,0-29.1,1.1-31.8,21.8
				C726.8,589.1,741.7,596.8,741.7,596.8z"/>
			<path class="st1" d="M834.8,1561.1l-14.6,42.9c0,0-76.6,13.8-76.6,19.9c0,0.1,0,0.1,0,0.2c0.1,11.8,9.7,21.3,21.4,21.3h153.2
				l7.7-81.2L834.8,1561.1z"/>
			<path class="st1" d="M1016.3,1568l-1.5,37.5l-53,24.6c-6,2.8-9.8,8.7-9.8,15.3l0,0c0,9.9,8.4,17.6,18.3,16.8l161-13.8l-13.8-82.7
				L1016.3,1568z"/>
			<path class="st1" d="M1217.3,1569.4l-1.8,42.2c0,0-79.7,23-75.1,36.8c4.6,13.8,156.3,1.5,156.3,1.5l-10-72.4L1217.3,1569.4z"/>
			<path class="st1" d="M1398.8,1573.5l6.6,33.6c0,0-76.6,29.1-53.6,41.4c23,12.3,116.4-19.9,122.6-23s-18.5-70.3-18.5-70.3
				L1398.8,1573.5z"/>
			<path class="st3" d="M1364.1,944l-61.3,2.1l-73.5,3.1c0,0,76.6,13.8,104.2,8.4C1361,952.2,1364.1,944,1364.1,944z"/>
		</g>
	</g>
</g>
</svg>
