<?xml version="1.0" encoding="UTF-8"?>
<svg id="Layer_2" data-name="Layer 2" xmlns="http://www.w3.org/2000/svg" viewBox="0 0 241.93 343.61">
  <defs>
    <style>
      .cls-1 {
        fill: #000;
        stroke-width: 0px;
      }
    </style>
  </defs>
  <g id="Layer_1-2" data-name="Layer 1">
    <path class="cls-1" d="M214.88,242.49c-3.36,11.18-6.47,21.95-9.87,32.62-1.2,3.78-3.03,7.38-4.71,11-1.73,3.72-3.95,4.83-6.64,3.58-2.7-1.26-3.3-3.74-1.57-7.32,6.47-13.36,11.1-27.35,12.99-42.04,1.16-9.01.96-18.2,1.26-27.31.23-7,.05-14.01.44-20.99,1.43-25.87-8.84-46.98-27.53-63.79-24.71-22.23-53.8-28.92-85.41-18.32-31.43,10.55-50.78,32.99-58.05,65.48-.73,3.25-.82,6.71-.75,10.06.33,17.12-.67,34.43,1.54,51.32,5.11,39.18,20.31,72.74,58.82,90.4,7.51,3.44,15.89,5.02,23.94,7.2,1.68.46,3.7-.1,5.52-.43,23.05-4.3,42.02-15.37,56.36-34.08.08-.1.16-.19.24-.29,2.55-3.22,4.86-3.89,7.26-2.09,2.43,1.82,2.49,4.28.07,7.51-9.55,12.73-21.26,23.09-35.94,29.26-9.47,3.98-19.6,6.52-29.59,9.07-3.04.78-6.68-.24-9.95-.92-36.96-7.68-61.55-30.08-75.37-64.56-4.06-10.13-6.26-21-9.3-31.53-.34-1.18-.58-2.4-.85-3.54-21.97-2.67-33.29-27.92-25.11-49.95,1.22-3.28,1.91-6.94,1.99-10.44.39-16.86.2-33.74.79-50.6.36-10.18,3.54-19.86,7.63-29.19,1.21-2.75,3.15-4.39,6.2-3.07,3.01,1.3,3.32,3.82,2.07,6.6-6.07,13.5-7.98,27.72-7.65,42.4.21,9.49.04,18.99.04,28.59,4.33-1.45,8.51-2.84,13.34-4.46.46-1.76,1.04-4.29,1.77-6.77,3.9-13.38,10.33-25.42,19.58-35.87,1.66-1.88,1.99-3.44,1.07-5.65-.96-2.3-1.63-4.72-2.43-7.08-.94-2.78-.32-5.12,2.53-6.13,3.04-1.08,5.03.45,6.04,3.37.61,1.77,1.21,3.54,1.82,5.33,42.26-31.62,84.43-31.68,126.97,0,.62-1.84,1.22-3.82,1.97-5.74,1.07-2.74,3.13-4,5.95-2.95,2.65.98,3.84,3.47,2.49,5.77-4.55,7.8-1.54,13.38,3.67,19.68,7.88,9.52,12.55,20.92,15.47,32.97.29,1.2.6,2.39.77,3.07,4.64,1.54,8.84,2.94,13.11,4.36-.03.03.13-.04.12-.11-.41-16.84.62-33.87-1.54-50.49-4.71-36.2-36.67-66.38-73.02-70.92-2.48-.31-4.97-.47-7.45-.76-2.83-.34-4.86-1.76-4.64-4.81.21-2.97,2.21-4.4,5.18-4.13,3.73.34,7.47.67,11.16,1.28,3.68.61,7.31,1.54,10.96,2.34,2.26-17.19-21.44-38.97-43.59-40.36-32.56-2.05-51.52,23.21-51.99,40.21,5.48-1,10.93-2.04,16.41-2.96,1.96-.33,3.98-.39,5.97-.51,2.99-.19,4.95,1.25,5.12,4.2.17,3.03-1.88,4.37-4.71,4.77-5.06.71-10.2,1.1-15.16,2.26-19.96,4.68-36.13,15.37-48.75,31.48-.23.3-.46.6-.69.89-2.52,3.16-4.97,3.88-7.27,2.16-2.38-1.79-2.37-4.3.06-7.52,9.58-12.72,21.54-22.55,35.96-29.29,2.3-1.08,3.29-2.31,3.55-4.91C66.24,23,88.55,2.21,115.89.18c28.83-2.14,53.75,14.98,60.93,41.19.1.36.31.72.3,1.08-.4,8.51,4.82,12.09,11.65,16.09,31.07,18.25,47.12,45.94,48.28,81.94.48,14.86.04,29.75.15,44.62.02,2.04.57,4.16,1.3,6.09,5.68,14.91,4.64,28.94-5.62,41.61-4.67,5.76-10.83,9.13-18,9.69ZM214.75,233.13c11.27-1.45,18.86-13.55,17.98-28.22-.7-11.67-8.31-21.7-16.78-21.75-.4,16.64-.8,33.28-1.2,49.97ZM25.91,182.99c-9.55.87-16.66,11.31-16.85,24.1-.2,13.44,7.56,24.73,18.07,25.95-.4-16.62-.81-33.2-1.22-50.05Z"/>
    <path class="cls-1" d="M155.52,284.84c0,4.79-3.5,6.41-7.02,4.82-4.49-2.04-9.14-3.79-13.82-5.35-3.77-1.26-7.55-1.07-11.27.75-1.2.59-3.07.75-4.26.24-9.1-3.85-17-.31-24.92,3.61-1.38.68-3.06,1.47-4.44,1.24-1.2-.2-2.87-1.62-3.08-2.74-.28-1.47.15-3.83,1.19-4.64,2.62-2.03,5.58-3.98,8.71-4.91,5.35-1.59,11.2-3.95,16.35-3.08,6.4,1.08,12.39-.8,18.51-.13,7.37.8,14.57,2.38,20.82,6.66,1.51,1.03,2.54,2.75,3.23,3.53Z"/>
    <path class="cls-1" d="M74.93,167.27c7.68,1.64,16.33,3.32,24.89,5.39,4.22,1.02,5.55,3.34,4.56,6.31-.91,2.73-3.31,3.49-7.22,2.22-13.09-4.24-26.29-5.61-39.77-1.86-3.56.99-6.01-.18-6.56-2.98-.68-3.49,1.5-5.14,4.46-5.72,6.1-1.18,12.25-2.12,19.64-3.37Z"/>
    <path class="cls-1" d="M168.58,167.49c6.13,1.04,12.27,1.98,18.37,3.16,3.01.58,5.07,2.35,4.39,5.79-.53,2.71-3.08,3.87-6.64,2.87-13.34-3.74-26.41-2.33-39.43,1.68-1.76.54-4,.66-5.64,0-1.07-.42-2.23-2.79-1.94-3.92.39-1.52,1.88-3.35,3.34-3.91,8.8-3.39,17.99-5,27.54-5.68Z"/>
    <path class="cls-1" d="M161.34,211.68c-7.95-.11-15.18-2.55-21.86-6.74-2.55-1.6-3.84-3.77-2.12-6.58,1.71-2.79,4.21-2.72,6.81-1.14,11.34,6.89,22.67,7.74,34.05.06,2.41-1.62,4.85-1.48,6.51,1.08,1.68,2.58.61,4.71-1.65,6.45-5.55,4.28-13.93,6.94-21.74,6.88Z"/>
    <path class="cls-1" d="M79.03,211.69c-6.6.05-13.45-2.32-19.69-6.55-3.07-2.08-3.88-4.59-2.16-6.89,1.97-2.65,4.42-2.42,6.9-.75,10.86,7.29,21.77,6.65,32.74.27.22-.13.42-.27.64-.39,3.21-1.78,5.81-1.47,7.13,1.05,1.66,3.15.03,5.2-2.58,6.79-6.75,4.08-14,6.48-22.97,6.47Z"/>
    <path class="cls-1" d="M120.82,302.78c-4.46-.4-8.81-.74-13.14-1.2-2.85-.3-4.83-1.86-4.59-4.84.26-3.17,2.45-4.19,5.55-4.14,8.2.13,16.4.12,24.59,0,2.92-.05,5.08.87,5.48,3.81.44,3.19-1.57,4.85-4.58,5.18-4.46.48-8.93.81-13.32,1.2Z"/>
    <path class="cls-1" d="M121.01,256.28c-3.9-2.06-7.56-3.68-10.79-5.92-.9-.62-1.18-3.51-.52-4.62.77-1.28,2.87-1.84,4.47-2.51.42-.18,1.24.23,1.72.58,3.46,2.51,6.85,2.26,10.27-.08.49-.33,1.3-.7,1.73-.52,1.51.63,3.54,1.16,4.2,2.37.65,1.2.51,4.04-.35,4.65-3.3,2.33-7.04,4.04-10.73,6.05Z"/>
    <path class="cls-1" d="M87.86,132.88c-2.75-.44-4.44-2.02-4.25-4.77.19-2.7,1.98-4.37,4.78-4.14,2.54.21,4.1,1.84,4.03,4.49-.08,2.85-1.85,4.17-4.56,4.41Z"/>
    <path class="cls-1" d="M153.96,132.9c-2.85-.39-4.56-1.78-4.51-4.64.05-2.65,1.67-4.22,4.22-4.31,2.78-.1,4.52,1.61,4.59,4.35.07,2.77-1.73,4.22-4.3,4.6Z"/>
    <path class="cls-1" d="M120.78,132.88c-2.7-.43-4.39-1.92-4.27-4.72.12-2.59,1.77-4.2,4.36-4.2,2.77,0,4.48,1.67,4.47,4.46-.01,2.8-1.8,4.21-4.56,4.46Z"/>
    <path class="cls-1" d="M54.34,238.06c-2.85-.15-4.57-1.61-4.6-4.38-.03-2.78,1.73-4.43,4.47-4.43,2.56,0,4.26,1.57,4.36,4.17.11,2.78-1.51,4.31-4.23,4.64Z"/>
    <path class="cls-1" d="M187.84,229.17c2.72.45,4.47,1.92,4.28,4.72-.18,2.75-1.94,4.28-4.75,4.1-2.63-.17-4.12-1.84-4.07-4.41.05-2.8,1.86-4.16,4.55-4.41Z"/>
    <path class="cls-1" d="M91.01,233.59c-.23,2.72-1.63,4.4-4.46,4.4-2.85,0-4.44-1.74-4.42-4.44.02-2.55,1.67-4.22,4.25-4.3,2.75-.08,4.33,1.5,4.64,4.34Z"/>
    <path class="cls-1" d="M155.11,238.06c-2.62-.31-4.25-1.75-4.18-4.59.07-2.68,1.75-4.17,4.28-4.22,2.75-.05,4.53,1.65,4.53,4.38,0,2.72-1.68,4.28-4.63,4.42Z"/>
    <path class="cls-1" d="M74.82,254.34c-.28,2.68-1.64,4.47-4.46,4.47-2.59,0-4.21-1.51-4.35-4.13-.15-2.82,1.43-4.56,4.17-4.69,2.78-.13,4.27,1.61,4.64,4.35Z"/>
    <path class="cls-1" d="M175.92,254.58c-.32,2.69-1.81,4.33-4.62,4.22-2.62-.1-4.15-1.78-4.18-4.33-.02-2.76,1.65-4.51,4.41-4.49,2.75.02,4.25,1.73,4.39,4.6Z"/>
    <path class="cls-1" d="M108.52,149.32c-.56,3.01-2.25,4.55-4.97,4.21-2.7-.33-4.16-2.19-3.8-4.99.34-2.61,2.04-3.93,4.65-3.75,2.9.2,3.96,2.13,4.11,4.53Z"/>
    <path class="cls-1" d="M142.21,149c-.17,2.93-1.77,4.59-4.46,4.56-2.7-.03-4.4-1.76-4.31-4.56.08-2.57,1.58-4.17,4.24-4.22,2.85-.06,4.26,1.59,4.54,4.22Z"/>
  </g>
</svg>