<?xml version="1.0" encoding="UTF-8"?>
<svg id="Layer_2" data-name="Layer 2" xmlns="http://www.w3.org/2000/svg" viewBox="0 0 607.08 647.34">
  <defs>
    <style>
      .cls-1 {
        fill: #000;
        stroke-width: 0px;
      }
    </style>
  </defs>
  <g id="Layer_1-2" data-name="Layer 1">
    <path class="cls-1" d="M52.85,470.74c0-18.88.01-37.75,0-56.63,0-5.71-.56-6.24-6.16-6.25-7.12,0-14.25.06-21.37-.02-9.94-.11-17.72-4.27-22.27-13.21-4.39-8.65-4.16-17.22,1.62-25.47,13.98-19.94,27.7-40.05,41.78-59.92,4.56-6.43,6.46-13.35,6.48-21.06.07-31.62-.65-63.28.51-94.87,1.74-47.47,19.87-88.16,54-121.49,19.36-18.9,41.8-33.2,66.4-44.19,29.76-13.3,60.98-21.16,93.31-25.02,25.66-3.06,51.38-3.47,77.03-1.13,44.76,4.08,87.56,15.22,126.46,38.6,21.55,12.95,40.23,29.48,57.49,47.69,17.92,18.9,32.61,40.05,44.55,63.17,12.52,24.22,21.49,49.7,27.19,76.33,3.66,17.12,5.96,34.41,6.8,51.92,3.01,62.34-10.03,121.08-39.15,176.26-12.42,23.54-27.77,45.03-45.55,64.83-7.51,8.37-10.78,18.65-11.25,29.55-.71,16.46-.58,32.96-.76,49.45-.1,9.47-3.69,13.1-13.2,14.1-22.22,2.33-44.4,4.92-66.61,7.37-19.22,2.11-38.44,4.16-57.66,6.24-24.67,2.68-49.35,5.38-74.02,8.06-18.84,2.05-37.69,4.08-56.53,6.12-18.35,1.99-36.71,3.92-55.05,6-10.45,1.18-15.65-3.24-15.67-13.78-.04-17.25-.02-34.5-.02-51.75,0-9.44-5.98-15.45-15.42-15.45-20.25,0-40.5.1-60.75-.04-15.97-.11-28.38-6.91-36.74-20.63-3.72-6.1-5.38-12.85-5.38-20,0-18.25,0-36.5,0-54.75h-.06ZM194.56,623.03c1.55,0,2.53.09,3.5-.01,8.07-.85,16.14-1.73,24.2-2.6,34.38-3.73,68.76-7.46,103.14-11.2,20.37-2.22,40.73-4.43,61.09-6.69,31.86-3.53,63.73-7.07,95.59-10.65,5.26-.59,4.96-.73,5.08-6.08.33-14.46.28-28.98,1.6-43.36,1.26-13.76,6.13-26.45,15.65-37,19.86-22.04,36.27-46.42,49.1-73.19,20.58-42.94,30.79-88.26,30.95-135.82.06-19.89-1.79-39.65-5.77-59.2-13.47-66.18-45.75-120.85-98.97-162.87-20.25-15.99-42.81-27.56-67.18-35.64-35.89-11.9-72.77-17.08-110.6-16.16-36.93.89-72.7,7.38-107.12,20.87-25.82,10.12-49.41,23.92-69.51,43.29-33.72,32.49-49.57,72.37-49.46,118.94.07,27.75,0,55.51-.04,83.26-.02,12.47-3.56,23.67-10.94,33.94-13.63,18.97-26.8,38.28-40.1,57.48-.71,1.02-.91,2.4-1.34,3.61,1.26.36,2.52,1.02,3.79,1.04,7.5.12,15.01-.11,22.5.2,3.42.14,7.06.68,10.16,2.05,11.55,5.08,16.04,14.6,16.02,26.8-.05,36,.03,72.01-.03,108.01-.02,13.91,6.93,21.04,20.93,21.06,20.25.04,40.5-.17,60.75.12,13.01.18,23.13,6.21,30.53,16.9,4.91,7.09,6.3,15.16,6.43,23.48.19,12.98.05,25.96.05,39.43Z"/>
    <path class="cls-1" d="M417.73,203.8c2.84-.26,4.67-.43,6.49-.6,8.8-.85,14.24,4.42,13.53,13.12-.38,4.73-4.08,9.05-8.8,9.31-12.7.68-25.42,1.16-38.14,1.41-4.86.1-8.93-3.37-10.1-8.06-2.52-10.04-4.98-20.11-7.25-30.21-1.58-7.02,1.84-12.29,8.58-13.86,6.73-1.57,11.71,1.6,13.71,8.71.66,2.33,1.35,4.65,2.27,7.8,4.82-7.18,7.41-14.29,8.76-21.79,7.1-39.5-33.2-75.82-71.81-64.74-9.68,2.78-18.1,7.88-25.21,14.95-7.88,7.84-18.24,1.13-19.54-5.98-.8-4.38.81-7.88,3.88-10.76,18.55-17.38,40.36-26.14,65.76-22.1,33.03,5.25,55.78,24.26,66.9,55.76,6.99,19.79,5.17,39.61-4.99,58.35-1.35,2.48-2.39,5.14-4.02,8.7Z"/>
    <path class="cls-1" d="M235.61,304.16c-3.91,0-6.91.19-9.89-.04-6.41-.5-10.01-4.22-10.25-10.25-.26-6.39,3.55-11.35,9.89-12.01,6.32-.65,12.7-.73,19.06-1,5.36-.22,10.73-.34,16.09-.53,5.93-.21,10.75,3.03,12.28,8.9,2.6,10.02,5.03,20.09,7.22,30.21,1.39,6.39-2.02,11.66-8.01,13.31-6.13,1.69-11.3-.99-13.69-7.32-1.04-2.75-1.71-5.64-2.8-9.35-1.23,1.82-2.13,2.94-2.81,4.18-12.62,23.24-7.24,51.84,12.69,69.2,10.99,9.58,23.55,15.11,38.07,15.37,14.04.25,26.38-4.79,37.04-13.91,1.23-1.06,2.39-2.2,3.62-3.26,5.26-4.53,11.46-4.29,16.02.62,4.61,4.96,4.61,11.1-.36,15.96-13.66,13.36-29.81,21.5-49.05,23.22-39.83,3.57-81.02-26.53-87.33-69.85-2.27-15.61.75-30.55,7.76-44.67,1.32-2.65,2.67-5.29,4.44-8.78Z"/>
    <path class="cls-1" d="M276.03,162.45c0-3.12-.01-5.45,0-7.79.04-7.33,4.41-11.89,11.48-12,6.77-.1,11.04,4.3,11.36,11.61.45,10.21.92,20.43,1.43,30.64.48,9.6-2.59,13.7-12.02,15.89-8.99,2.09-17.94,4.45-27,6.2-9.18,1.77-15.64-5.11-13.55-13.94,1.02-4.33,3.91-6.83,8.06-8.01,2.58-.74,5.17-1.42,8.49-2.33-6.18-4.61-12.45-6.85-19.03-8.34-27.53-6.21-53,9.45-63.93,33.12-10.39,22.52-6.4,42.94,9.58,61.51,2.2,2.55,4.3,5.67,5.05,8.86,1.12,4.8-2.1,9.36-6.93,11.66-4.46,2.13-8.99,1.3-12.95-2.67-10.68-10.69-17.92-23.33-21.02-38.18-7.78-37.36,11.37-77.22,46.65-92.07,23.75-10,47.27-8.16,70.1,3.57,1.2.62,2.37,1.28,4.22,2.28Z"/>
    <path class="cls-1" d="M377.18,345.16c0,3.4.08,6.22-.02,9.02-.21,6.34-4.37,10.64-10.48,10.93-6.51.31-11.49-3.38-11.9-9.84-.78-12.33-1.14-24.69-1.35-37.05-.09-5.11,2.84-8.73,7.99-10.08,10.49-2.75,21.03-5.31,31.63-7.57,6.16-1.32,11.07,2.23,12.64,8.33,1.55,6.04-1.23,11.36-7.15,13.41-2.78.96-5.65,1.67-9.74,2.86,2.94,1.7,4.85,2.98,6.89,3.95,27.86,13.33,55.86,2.34,71.19-19.95,16.15-23.47,13.94-50.8-5.6-71.66-4.92-5.25-5.08-12.55-.38-17.13,4.49-4.38,11.72-4.29,16.48.71,15.47,16.29,24.1,35.56,23.11,58.23-.94,21.46-9.41,39.92-24.84,54.98-20.12,19.63-44.06,27.44-71.68,21.45-8.04-1.74-15.55-5.9-23.3-8.97-.9-.35-1.75-.81-3.5-1.63Z"/>
  </g>
</svg>