<?xml version="1.0" encoding="UTF-8"?>
<svg id="Layer_2" data-name="Layer 2" xmlns="http://www.w3.org/2000/svg" viewBox="0 0 302.5 355.67">
  <defs>
    <style>
      .cls-1 {
        fill: #000;
        stroke-width: 0px;
      }
    </style>
  </defs>
  <g id="Layer_1-2" data-name="Layer 1">
    <path class="cls-1" d="M70.11.08c20.87,0,41.74.09,62.61-.08,4.03-.03,6.4,1.43,8.4,4.85,21.25,36.31,42.57,72.59,63.99,108.8,6.4,10.82,7.89,22.09,4.74,34.21-11.74,45.16-23.36,90.35-35.05,135.53-2.72,10.52.3,16.04,10.7,19.28,11.79,3.68,23.59,7.32,35.37,11.02,12.08,3.8,16.4,14.37,10.19,25.43-5.89,10.49-14.91,16.53-27.06,16.51-7.31-.01-14.78-.56-21.9-2.14-17.03-3.77-33.83-3.94-50.84.07-6.26,1.48-12.85,1.97-19.3,2.11-15.58.36-26.68-10.41-27.5-26.03-.45-8.55.89-16.93,4.8-24.37,7.07-13.45,8.23-27.88,8.66-42.52.6-20.48.75-40.98,1.55-61.46.72-18.65,3.25-37.05,9.76-54.72.43-1.15-.08-3.3-.96-4.19-8.41-8.51-16.7-17.17-25.6-25.15-14.22-12.75-29.6-24.27-43.17-37.65C19.38,59.76,7.26,35.07.36,7.79-.9,2.81,1.19.1,6.37.09c21.25-.03,42.49-.01,63.74-.01ZM12.38,10.17c.36,1.3.54,2,.75,2.69,6.76,22.51,17.57,42.89,34.46,59.29,12.88,12.5,27,23.74,40.74,35.32,11.3,9.52,22.42,19.16,31.01,31.35,1.7,2.41,2.5,4.79,1.27,7.68-7.47,17.52-9.9,36.07-10.64,54.85-.83,21.1-.93,42.23-1.6,63.33-.48,15.03-1.86,29.86-9.17,43.57-3.25,6.09-4.53,12.93-4.23,19.95.48,11.07,7.13,17.45,18.09,16.74,5.96-.39,11.97-1.13,17.78-2.47,14.72-3.4,29.44-3.45,44.29-1.21,9.11,1.38,18.23,3,27.4,3.67,8.23.59,14.67-3.44,19.12-10.38,3.52-5.48,2.14-9.12-4.07-11.07-12.02-3.77-24.04-7.54-36.09-11.24-14.08-4.33-20.59-15.66-16.98-29.86,11.66-45.82,23.31-91.66,35.08-137.45,2.5-9.73,1.39-18.61-3.8-27.31-20.64-34.65-41.1-69.4-61.52-104.17-1.46-2.49-3.03-3.35-5.89-3.34-37.24.1-74.49.07-111.73.07h-4.29Z"/>
    <path class="cls-1" d="M259.83,83.67c5.21-6.55,10.17-12.8,15.13-19.04.78-.98,1.53-1.98,2.37-2.9,2.08-2.27,4.59-2.66,7.03-.89,2.49,1.8,2.93,4.66,1.18,6.97-6.69,8.85-13.53,17.61-20.67,26.1-1,1.19-4.15,1.32-6.03.84-2.95-.74-5.66-2.42-8.65-3.78-3.86,5.11-7.6,10.08-11.38,15.02-.75.99-1.49,2.07-2.47,2.77-2.28,1.64-4.76,1.63-6.87-.25-2.01-1.79-2.49-4.26-.89-6.43,5.33-7.22,10.71-14.43,16.47-21.31,1.01-1.21,4.12-1.45,5.97-.99,2.96.74,5.67,2.44,8.82,3.88Z"/>
    <path class="cls-1" d="M269.13,148.79c8.29-1.92,16.29-3.76,24.28-5.61.73-.17,1.45-.4,2.18-.51,3.48-.51,6.05.94,6.76,3.77.7,2.8-1.23,5.88-4.54,6.69-7.5,1.84-15.04,3.52-22.56,5.26-.12.03-.25.03-.37.06-11.35,2.53-11.41,2.56-16.58-7.84-1.02-2.06-2.23-2.22-4.14-1.72-5.54,1.45-11.1,2.87-16.68,4.16-3.81.88-6.75-.73-7.4-3.79-.61-2.86,1.36-5.44,4.89-6.41.24-.07.49-.1.73-.16,7.02-1.7,14.04-3.42,21.06-5.1,5.18-1.24,6.88-.41,9.15,4.4,1.01,2.14,2.02,4.28,3.21,6.79Z"/>
    <path class="cls-1" d="M252.25,123.2c-2.45,2.39-4.65,4.59-6.91,6.73-2.37,2.25-5.27,2.42-7.29.32-2.25-2.33-2.33-4.99-.19-7.36,3.17-3.52,6.52-6.87,9.87-10.22,2.04-2.05,4.4-2.13,6.81-.63,2.64,1.64,5.25,3.34,8.28,5.27,3.05-2.96,6.13-5.97,9.25-8.96.89-.86,1.79-1.78,2.85-2.38,2.21-1.25,4.4-1,6.1.94,1.88,2.15,2.1,4.75.15,6.8-4.73,4.95-9.52,9.9-14.74,14.31-1.28,1.08-4.52.71-6.46-.04-2.73-1.05-5.08-3.08-7.72-4.77Z"/>
    <path class="cls-1" d="M144.73,143.22c1.43.43,4.1.83,6.35,2.02,2.8,1.48,4.84,1.08,6.94-1.05.86-.88,1.94-1.58,3-2.22,6.27-3.79,13.78-2.76,18.82,2.54,4.81,5.05,5.43,12.69,1.53,18.65-.07.1-.12.23-.21.31-9.68,8.05-10.22,19.6-11.95,30.76-3.18,20.47-6.51,40.91-9.8,61.36-.62,3.83-2.7,5.5-6.07,5.04-3.44-.47-4.99-2.65-4.34-6.89,2.53-16.66,5.18-33.29,7.8-49.93,1.57-9.98,3-20,4.88-29.92.52-2.75,2.14-5.45,3.82-7.77,1.89-2.6,4.43-4.73,6.66-7.09,1.87-1.98,2.34-4.23.47-6.37-1.93-2.21-4.68-2.69-6.61-.54-6.08,6.77-12.67,6.68-19.99,2.39-2.37-1.39-4.71-.77-6.21,1.55-1.41,2.2-.75,4.29,1.02,6.09,1.31,1.34,2.47,2.86,3.91,4.03,4.17,3.4,5.29,7.3,4.35,12.82-5.28,31-10.11,62.07-15.12,93.11-.58,3.57-3.07,5.75-5.99,5.41-3.03-.35-4.8-2.92-4.55-6.6.03-.5.08-1,.16-1.49,1.76-11.09,3.51-22.19,5.28-33.28,3.12-19.47,6.29-38.93,9.28-58.41.2-1.32-.53-3.08-1.38-4.21-1.72-2.28-4.08-4.08-5.72-6.41-3.54-5.01-3.89-10.45-.99-15.91,2.85-5.36,7.56-7.72,14.67-7.99Z"/>
    <path class="cls-1" d="M181.26,115.01c.08,11.51-8.82,18.8-18.75,16.22-4.18-1.08-6.68-.57-9.56,2.72-5.26,6-13.31,6.84-19.67,2.78-6.1-3.89-8.91-11.68-5.56-18.76,2.55-5.38,1.32-8.87-2.11-13.2-12.02-15.17-23.69-30.61-35.31-46.1-1.25-1.66-2.13-4.49-1.65-6.39,1.04-4.12,6.27-4.48,9.21-.77,5.04,6.36,9.93,12.84,14.87,19.28,8.68,11.29,17.24,22.66,26.08,33.82,2.67,3.37,3.29,6.44,1.41,10.29-1.19,2.45-2.3,5.09-2.67,7.75-.23,1.64.52,4.24,1.74,5.04,1.26.82,3.96.57,5.39-.28,2.19-1.31,3.95-3.42,5.67-5.39,2.27-2.6,4.88-3.16,8.08-2.17,2.14.67,4.34,1.15,6.54,1.58,2.66.53,4.83-.32,5.67-3,.83-2.65-.35-4.61-2.89-5.72-.46-.2-.9-.47-1.38-.57-9.06-2.03-14.4-8.1-19.18-15.76-12.9-20.64-26.48-40.85-39.79-61.24-.75-1.15-1.56-2.28-2.14-3.51-1.24-2.64-.58-4.94,1.77-6.57,2.28-1.58,4.57-1.08,6.46.79.96.95,1.67,2.17,2.42,3.32,14.43,22.04,28.8,44.11,43.35,66.07,1.32,1.99,3.65,3.5,5.8,4.72,2.36,1.34,5.13,1.95,7.59,3.14,5.55,2.69,8.39,7.23,8.6,11.91Z"/>
    <path class="cls-1" d="M51.47,51.81c-1.31,1.48-2.38,3.72-3.99,4.22-1.65.51-4.66-.03-5.62-1.26-3.22-4.09-5.94-8.62-8.57-13.15-1.36-2.34-.61-5.11,1.66-6.19,1.69-.81,5.18-.9,6.05.17,3.6,4.4,6.52,9.37,9.64,14.15.24.37.14.97.2,1.47.21.19.42.39.62.58Z"/>
  </g>
</svg>