<?xml version="1.0" encoding="UTF-8"?>
<svg id="Layer_2" data-name="Layer 2" xmlns="http://www.w3.org/2000/svg" viewBox="0 0 384 384">
  <defs>
    <style>
      .cls-1 {
        fill: #000;
      }

      .cls-1, .cls-2 {
        stroke-width: 0px;
      }

      .cls-2 {
        fill: #fff;
      }
    </style>
  </defs>
  <g id="Layer_1-2" data-name="Layer 1">
    <path class="cls-1" d="M384,105c-.93.82-1.84,2.35-2.78,2.37-13.87.3-27.75.57-41.61.21-1.12-.03-2.45-4.66-3.02-7.29-.25-1.14,1.96-2.8,1.72-3.96-.79-3.84-1.11-8.85-3.65-10.93-2.19-1.79-8.2-1.56-10.6.28-2.36,1.81-3.81,7.14-3.04,10.29,2.71,11.09,1.86,12.81-9.42,12.87-7.25.04-14.5.17-21.75-.05-9.72-.29-14.31-4.72-14.61-14.25-.26-8.49-.27-17,.01-25.5.23-7.21,3.71-9.53,10.29-6.74,5.25,2.23,10.36,2.58,13.11-2.59,1.52-2.87,1.36-8.07-.3-10.89-2.98-5.07-8.1-4.43-13.25-2.07-5.61,2.57-9.5.4-9.66-5.85-.13-4.88-2.47-7.05-6.15-9.15-22.64-12.97-47.05-20.77-73.02-18.31-26.75,2.53-53.59,6.43-79.71,12.6-36.22,8.56-56.61,34.32-66.95,69.08-3.62,12.16-7.71,24.21-12.16,36.09-1.86,4.98-1.19,8.27,2.61,11.9,12.53,12,13.59,16.06,4.89,31.25-8.79,15.35-18.6,30.14-28.6,44.74-3.7,5.4-3.2,8.3,2.39,10.93,1.13.53,2.17,1.22,3.27,1.82,15.72,8.45,18.1,15.95,10.93,32.41-.8,1.85.1,5.98,1.62,7.03,6.39,4.43,8.27,9.17,2.39,16.03,13.06,6.33,15.72,16.55,12.6,29.59-.99,4.12-.21,8.99.93,13.21,1.95,7.24,7.34,10.62,14.31,8.4,31.59-10.08,63.16-20.27,94.48-31.14,9.25-3.21,17.34-8.85,18.67-20.44.21-1.87,4.96-4.88,6.97-4.45,2.17.47,5.04,4.35,5.09,6.79.17,8.48-3.69,15.93-10.6,20.49-8.25,5.45-17.29,9.78-26.26,14.02-5.59,2.64-11.7,4.21-16.26,5.8,6.49,13.02,12.67,25.93,19.46,38.51.98,1.82,4.83,2.93,7.35,2.94,28.5.08,56.99-.14,85.49-.23,17.15-.05,34.31,0,51.94,0-17.98-36.69-25.82-74.05-17.44-114.66h-9.39c-40.5,0-81,.01-121.5,0-18.09,0-24.89-6.82-24.89-24.94-.02-51.75-.02-103.5,0-155.25,0-18.06,6.82-24.8,24.97-24.81,24.5-.01,49-.03,73.5.01,8.8.01,10.46,1.72,10.52,10.54.05,6.97,0,13.94,0,20.8,17.89,3.22,26.23,11.3,25.51,24.28-.69,12.38-9.22,19.88-24.93,21.45v18.52h17.75c3.72-17.54,11.07-25.35,23.51-25.14,12.41.2,19.61,8.13,22.81,25.54,7.36,0,14.84.1,22.31-.03,6.3-.11,9.09,2.79,9.07,9.07-.09,26.5.11,53-.11,79.5-.11,12.83-8.2,20.11-21.77,20.46-14.95.39-15.31.35-16.89,15.36-3.51,33.5,2.55,65.07,19.98,94.21,3.48,5.81,8.58,11.83.88,18.31h-165c-1.7-2.92-3.51-5.79-5.09-8.78-6-11.37-11.63-22.95-18.01-34.11-2.88-5.04-7.51-5.74-13.53-3.73-15.33,5.11-30.87,9.69-46.54,13.64-12.94,3.27-24.43-3.07-28.02-15.89-2-7.15-1.65-15.09-1.54-22.66.07-5.07,1.14-9.49-4.54-12.82-9.93-5.83-9.96-6.73-7.74-18.81q-10.27-9.57-3.6-22.71c.34-.67.69-1.32,1.05-1.98,2.71-5.09,1.54-8.4-3.53-11.7C12.2,240.09,6.27,234.54,0,229.5,0,226.5,0,223.5,0,220.5c11.36-17.48,22.61-35.03,34.12-52.41,4.23-6.4,3.15-10.81-2.72-15.8-9.04-7.67-9.92-14.58-5.92-25.43,4.22-11.43,8.32-22.92,11.73-34.61C48.36,54.05,70.58,26.28,109.8,14.44c9.28-2.8,18.77-5.11,28.31-6.84C154.01,4.73,170.03,2.5,186,0c9.5,0,19,0,28.5,0,9.88,2.22,19.95,3.8,29.57,6.82,10.33,3.25,20.23,7.85,29.36,11.48,1.83-6.01,3.7-12.15,5.57-18.29,30.5,0,61,0,91.5,0,4.5,4.5,9,9,13.5,13.5v91.5ZM236.88,243.09c25.98,0,50.91.02,75.84-.01,6.14,0,7.19-4.07,7.17-9.12-.07-16.73-.02-33.46-.02-50.19,0-7.65,0-15.3,0-23.64-8.91,0-16.85.07-24.78-.02-9.61-.11-11.76-3.13-8.22-11.83,1.99-4.89,1.33-9.53-3.12-11.69-3.01-1.46-7.95-1.41-10.93.11-4.41,2.25-4.89,6.91-2.89,11.77,3.46,8.4,1.33,11.49-7.77,11.63-8.17.13-16.34.03-25.3.03,0,9.21.13,17.64-.04,26.06-.15,8.06-3.73,10.53-10.88,7.3-5.04-2.27-9.89-2.19-12.46,2.55-1.58,2.91-1.66,7.95-.16,10.9,2.43,4.79,7.28,5.11,12.37,2.94,7.8-3.32,11.04-1.03,11.17,7.62.12,8.2.03,16.41.03,25.6ZM223.45,160.12c-8.57,0-16.74.11-24.91-.03-9.02-.15-11.16-3.32-7.71-11.67,2.01-4.86,1.5-9.52-2.94-11.75-2.99-1.5-7.93-1.5-10.94-.02-4.46,2.2-4.97,6.87-3.01,11.73,3.41,8.49,1.36,11.55-7.68,11.7-8.18.13-16.35.03-24.92.03-.18,2.65-.42,4.58-.43,6.51-.03,22.23-.05,44.45,0,66.68.02,8.57,1.31,9.78,10.21,9.8,22.23.04,44.45.03,66.68-.01,1.91,0,3.81-.35,6.08-.57v-17.99c-16.82-2.42-25.13-9.97-25.53-22.38-.41-12.58,7.76-20.33,25.11-23.63v-18.4ZM159.45,146.86c2.54-16.74,9.7-24.77,22.08-25.27,12.74-.51,19.98,7.01,24.12,25.04h18.23c0-8.43-.07-16.39.02-24.34.11-9.57,2.81-10.93,12.03-8.47,3.37.9,9.1-.18,10.99-2.56,1.93-2.42,1.96-8.71.06-11.16-1.87-2.41-7.62-3.61-10.96-2.71-9.49,2.54-12.05,1.13-12.13-9.08-.06-7.89-.01-15.78-.01-24.14-26.1,0-51.05-.03-76.01.02-5.58.01-7.03,3.56-7.01,8.5.08,18.49.03,36.99.03,55.48,0,6.15,0,12.3,0,18.68h18.56ZM371.15,95.76c0-24.6.04-48.51-.02-72.43-.02-9.13-1.33-10.43-10.43-10.46-22.21-.06-44.42-.03-66.63,0-1.88,0-3.76.4-5.58.61v17.95c16.34,2.26,25.16,9.82,24.78,22.23-.15,4.92-1.58,11.23-4.86,14.28-5.25,4.88-12.54,7.58-19.8,11.67v15.94h18.31c1.53-15.61,8.9-24.23,21.08-25.06,13.16-.9,21.1,7.09,24.93,25.25h18.22Z"/>
    <path class="cls-2" d="M384,13.5C379.5,9,375,4.5,370.5,0c4.5,0,9,0,13.5,0v13.5Z"/>
    <path class="cls-1" d="M58.47,113.19c6.4-29.87,17.51-54.75,44.99-68.78,4.11-2.1,8.29-3.41,10.96,1.61,2.76,5.19-.96,7.65-5.05,9.71-20.34,10.24-29.98,28.31-35.79,49.14-.87,3.11-.85,6.79-2.59,9.25-1.52,2.15-5.02,4.12-7.51,3.96-1.99-.13-3.76-3.57-5.01-4.88Z"/>
    <path class="cls-1" d="M57.2,143.21c-2.74-4.08-6.06-6.96-5.57-8.82.66-2.5,4.28-4.22,6.63-6.27,1.87,2.25,5.17,4.48,5.22,6.77.05,2.22-3.23,4.52-6.28,8.31Z"/>
  </g>
</svg>