<?xml version="1.0" encoding="UTF-8"?>
<svg id="Layer_2" data-name="Layer 2" xmlns="http://www.w3.org/2000/svg" viewBox="0 0 270.19 360.1">
  <defs>
    <style>
      .cls-1 {
        fill: #000;
        stroke-width: 0px;
      }
    </style>
  </defs>
  <g id="Layer_1-2" data-name="Layer 1">
    <path class="cls-1" d="M34.31,323.89c-.82-7.88-1.59-15.55-2.44-23.21-2.42-21.98-4.83-43.96-7.37-65.92-.16-1.36-1.15-3.01-2.26-3.8-18.68-13.11-26.38-34.13-20.06-55.95,7.12-24.57,14.24-49.14,21.78-73.59,4.83-15.66,15.65-25.46,31.61-29.49,1.09-.27,2.17-.55,3.67-.93-8.46-9.71-12.55-20.79-11.22-33.52.96-9.22,4.72-17.3,11.01-24.12C71.2.16,90.63-3.69,107.2,3.76c16.05,7.22,26.17,24.56,24.46,41.92-1.88,19.1-14.86,33.1-35.44,37.93.68.84,1.21,1.59,1.84,2.26,8.48,9,13.08,19.62,13.74,32,.1,1.91.66,3.96,1.57,5.64,12.53,23.07,17.32,47.77,15.31,73.79-1.04,13.45-6.49,24.53-19.14,31.05-.97.5-1.81,1.69-2.22,2.75-6.99,18.09-10.96,36.81-11.52,56.23-.05,1.75.02,3.52-.22,5.24-.81,5.71-.61,10.53,4.83,14.71,4.95,3.81,6.47,10.16,6.75,16.8h4.24c22.01,0,44.01,0,66.02,0,6.61,0,8.4,1.81,8.4,8.47,0,6.75.04,13.5-.01,20.25-.03,5.12-2.18,7.27-7.35,7.27-49.14.02-98.28.02-147.42,0-5.13,0-7.25-2.17-7.28-7.33-.04-6.63-.01-13.25,0-19.88,0-7.01,1.52-8.58,8.46-8.8.6-.02,1.19-.11,2.1-.19ZM29.23,127.3c-.26.42-.63.81-.77,1.27-5.12,17.35-10.51,34.62-15.25,52.08-4.39,16.16,2.77,32.81,17.27,41.09,3.67,2.09,5.41,4.69,5.84,8.8,2.5,23.98,5.13,47.95,7.74,71.92.78,7.15,1.62,14.3,2.41,21.28h23.71c-2.59-2.29-4.1-4.31-6.12-5.27-4-1.92-5.12-4.85-5.08-9.05.16-16.12.06-32.25.07-48.38,0-3.12-.13-6.26.09-9.37.21-2.92,2-5.28,4.86-5.3,2.04-.02,4.46,1.25,6,2.7,1.01.95,1.01,3.24,1.02,4.93.07,17.13.01,34.25.1,51.38,0,1.32.43,3.17,1.35,3.87,4.96,3.81,8.15,8.72,9.96,14.66h12.62c-.25-5.52-2.73-9.42-7.44-11.83-2.65-1.36-4.62-3.13-4.5-6.28.71-19.6.87-39.26,6.31-58.34,1.32-4.63,2.75-9.22,4.18-13.98-.83-.05-1.33-.15-1.81-.1-9.91,1.04-19.06-1.63-27.94-5.64-3.52-1.59-5.01-4.68-3.81-7.86,1.18-3.14,4.48-4.51,8.06-3.3,1.65.56,3.29,1.19,4.89,1.89,6.09,2.69,12.44,3.54,19.04,2.89,13.54-1.33,22.41-8.66,24.15-22.02,3.2-24.48-1.41-47.76-13.19-69.49-2.02-3.73-3.21-7.38-3.34-11.66-.35-11.27-5.3-20.42-14.03-27.45-16.46-13.25-39.81-9.05-48.04,9.27-3.9,8.66-5.69,18.26-8.44,27.44l.11-.15ZM89.73,72.02c16.62-.01,30.06-13.46,30.04-30.04-.02-16.42-13.41-29.9-29.76-29.95-16.78-.05-30.29,13.46-30.24,30.24.05,16.34,13.57,29.76,29.96,29.75ZM35.93,347.84h137.58v-11.55H35.93v11.55Z"/>
    <path class="cls-1" d="M157.31,192.06c6.23,1.48,10.07-1.4,14.26-6,16.72-18.36,44.09-23.15,66.32-12.3,22.01,10.74,35.07,34.81,31.81,58.63-3.45,25.23-22.34,44.84-47.28,49.09-34.71,5.92-66.72-21.08-66.51-56.29.02-3.82-.76-7-2.84-10.13-2.62-3.95-4.89-8.13-7.37-12.17-1.48-2.42-2.71-4.83-1.09-7.68,1.59-2.8,4.18-3.27,7.08-3.16,1.87.07,3.75.01,5.62.01ZM160.88,203.56c0,.38-.02.75-.03,1.13,1.12,1.91,2.11,3.92,3.39,5.72,2.93,4.1,3.93,8.37,3.75,13.6-.99,28.79,24.26,50.97,52.74,46.74,19.79-2.94,35.61-19.04,38.45-39.14,2.79-19.72-8.08-39.51-26.26-47.82-18.55-8.47-40.62-4.17-53.46,11.46-5.06,6.16-9.62,11.08-18.58,8.31Z"/>
    <path class="cls-1" d="M142.63,293.66c2.1-2.05,3.51-4.15,5.47-5.16,2.46-1.27,5.14-.2,6.49,2.17,2.52,4.43,4.8,9.02,6.85,13.69,1.12,2.56,0,4.94-2.23,6.56-2.28,1.65-5.37,1.99-6.83-.17-3.5-5.19-6.28-10.87-9.76-17.1Z"/>
    <path class="cls-1" d="M178.55,288.1c5.28.04,8.37,4.06,6.81,7.81-1.91,4.59-4.15,9.08-6.65,13.38-1.61,2.78-4.41,3.57-7.49,2.14-2.93-1.36-4.28-4.47-2.92-7.53,1.92-4.32,3.97-8.62,6.39-12.67.96-1.6,3.07-2.51,3.86-3.13Z"/>
    <path class="cls-1" d="M29.12,127.45c2.31-1.92,4.59-3.95,7.95-2.39,3.45,1.59,3.75,4.62,3.74,7.89-.05,10.12-.07,20.25-.04,30.37.02,7.87,3,11.7,10.57,13.73,13.5,3.62,27,7.22,40.51,10.83.84.23,1.69.47,2.55.58,3.64.48,6.45-1.27,7.2-4.43.73-3.08-1.03-6.05-4.57-7.06-7.2-2.07-14.45-3.94-21.67-5.9-2.77-.75-5.58-1.39-8.3-2.29-5.68-1.88-8.93-6.75-8.41-12.68.82-9.21,1.75-18.4,2.68-27.6.42-4.18,2.84-6.47,6.47-6.27,3.6.2,5.82,2.79,5.47,7.03-.75,9.2-1.72,18.39-2.65,28.02,6.82,1.85,13.52,3.67,20.22,5.47,3.01.81,6.05,1.54,9.05,2.4,10.12,2.88,15.77,12.18,13.32,21.85-2.48,9.78-11.79,15.6-21.99,13.05-15.25-3.8-30.45-7.88-45.55-12.25-9.33-2.7-15.77-9.35-16.4-18.94-.9-13.79-.12-27.7-.05-41.56,0,0-.11.14-.11.14Z"/>
    <path class="cls-1" d="M240.61,203.81c-1.41,2.25-2.13,4.03-3.37,5.29-13.45,13.56-26.96,27.06-40.5,40.53-3.11,3.09-6.7,3.22-9.23.57-2.44-2.55-2.26-5.99.69-8.95,13.56-13.62,27.17-27.2,40.77-40.79,2-2,4.46-3.31,7.03-1.68,1.8,1.14,3,3.22,4.61,5.04Z"/>
    <path class="cls-1" d="M209.81,209.9c.09,6.53-5.22,12.02-11.73,12.16-6.51.14-12.07-5.16-12.25-11.65-.18-6.71,5.21-12.3,11.91-12.34,6.53-.04,11.98,5.31,12.07,11.82Z"/>
    <path class="cls-1" d="M239.83,239.91c.08,6.53-5.22,12.02-11.74,12.15-6.51.13-12.07-5.16-12.24-11.65-.18-6.71,5.22-12.29,11.92-12.33,6.52-.04,11.98,5.31,12.06,11.83Z"/>
  </g>
</svg>