<?xml version="1.0" encoding="UTF-8"?>
<svg id="Layer_2" data-name="Layer 2" xmlns="http://www.w3.org/2000/svg" viewBox="0 0 201.99 202.17">
  <defs>
    <style>
      .cls-1 {
        fill: #000;
        stroke-width: 0px;
      }
    </style>
  </defs>
  <g id="Layer_1-2" data-name="Layer 1">
    <path class="cls-1" d="M26.07,66.9c-3.49-3.57-7.14-6.74-11.64-8.81-2.43-1.12-4.85-2.27-7.19-3.55-1.49-.81-3.01-1.72-4.23-2.88C0,48.78-.69,45.19.7,41.32c1.22-3.38,3.23-6.36,5.73-8.9,3.66-3.7,8.95-4.14,13.39-1.21,2.5,1.65,4.8,3.58,7.27,5.27,1.02.69,2.24,1.08,3.4,1.61.76-1.6.99-2.92.61-4.42-1.54-6.07-3.02-12.16-4.47-18.25-1.6-6.73,1.31-11.73,7.98-13.53,2.8-.75,5.69-1.42,8.56-1.58,4.86-.26,8.11,2.29,9.1,7.08.7,3.39.99,6.87,1.24,10.33.42,5.89.67,11.8,1,17.7.38,6.91,3.14,12.54,8.89,16.58.68.48,1.11.52,1.73-.07,1.13-1.07,2.39-2,3.5-3.09,1.36-1.33,1.9-2.92,1.56-4.9-1.64-9.64-3.21-19.29-4.8-28.94-1.09-6.57,2.46-12.07,9.12-14.03,1.33-.39,2.73-.66,4.11-.75,5.26-.36,8.87,2.43,9.67,7.65.58,3.74.8,7.54,1.23,11.31.25,2.21.58,4.41,1.12,6.59.98-5.65,1.96-11.31,2.96-16.96.5-2.82,1.49-5.42,3.89-7.19,2.97-2.2,6.16-1.95,9.29-.44,2.85,1.38,5.41,3.24,7.6,5.55,2.95,3.1,3.56,6.84,2.54,10.81-1.09,4.24-2.51,8.41-3.75,12.61-.52,1.75-.94,3.52-1.2,5.37,1.79-2.83,3.53-5.69,5.39-8.47,1.04-1.55,2.09-3.15,3.42-4.45,6.76-6.6,17.75-1.31,19.16,5.22.72,3.33-.09,6.29-2.16,8.87-3.38,4.2-6.86,8.32-10.3,12.48-.43.52-.85,1.03-1.32,1.6,4.72,4.59,8.32,9.85,10.81,15.87,2.02,4.87,2.88,10.03,3.84,15.17,2.53,13.53,5.13,27.05,7.7,40.58.07.34.18.68.33,1.23.6-.63,1.07-1.16,1.57-1.66,2.05-2.02,4.09-4.05,6.17-6.03,1.33-1.26,2.91-1.84,4.78-1.83,12.87.03,25.73.02,38.6.02q1.99,0,1.99,1.99c0,1.47,0,2.94,0,4.52h-1.53c-9.55,0-19.1-.01-28.65,0-2.56,0-5.12.01-7.66.18-2.21.15-4.15,1.24-5.81,2.61-5.62,4.63-9.24,10.65-11.49,17.48-4.8,14.58-11.99,27.82-21.82,39.61-5.54,6.65-11.7,12.68-18.45,18.09-4.41,3.53-9.27,4.51-14.71,2.57-14.93-5.32-29.39-11.6-42.78-20.17-12.33-7.9-23.45-17.18-32.43-28.85C7.62,140.42,2.12,127.17.4,112.44c-1.19-10.18.19-19.93,5.73-28.8,4.34-6.94,10.46-11.87,17.66-15.58.73-.38,1.47-.75,2.29-1.16ZM127.42,128.98c.13-.02.25-.05.38-.07.12-.37.24-.74.35-1.12,2.13-7.27,4.26-14.55,6.4-21.81,1.59-5.36,2.38-10.79.98-16.3-2.07-8.16-4.28-16.28-6.48-24.41-.5-1.84-1.97-2.68-4-2.41-7.53,1.03-14.31,3.81-20.59,8.16-11.78,8.17-24.36,9.82-37.62,3.75-2.2-1.01-4.28-2.28-6.47-3.46-.08.15-.18.31-.26.48-2.55,5.62-3.93,11.54-4.42,17.68-.31,3.89-.26,7.86-1.04,11.66-2.39,11.65-12.27,19.43-24.17,19.46-4.22.01-8.24-.91-12.15-2.35-3.59-1.32-7.15-2.72-10.88-4.14.13,1.04.21,1.94.37,2.84,1.9,10.99,6.34,20.89,13,29.78,9.11,12.16,20.55,21.72,33.38,29.69,12.12,7.53,25.17,13.09,38.49,18.1,4.08,1.53,7.53.97,10.64-1.84,3.71-3.34,7.46-6.65,10.9-10.25,10.45-10.95,18.25-23.67,24.38-37.46,3.63-8.17,4.73-16.61,2.67-25.37-.5-2.11-1.17-4.18-1.76-6.27-.4.43-.52.8-.62,1.17-3.43,11.88-6.86,23.76-10.28,35.64-.4,1.38-.79,2.76-1.21,4.13-.07.23-.3.4-.45.6-.21-.2-.45-.37-.62-.6-.11-.15-.1-.38-.15-.57-3.76-15.92-7.51-31.84-11.29-47.75-.1-.41-.42-.76-.64-1.14-.22.38-.54.73-.64,1.13-1.09,4.54-2.16,9.08-3.19,13.64-.17.75-.4,1.08-1.23,1.06-2.39-.07-4.79-.03-7.18-.06-3.25-.05-4.75.78-5.93,3.79-2.54,6.45-9.74,10.06-16.3,9.23-7.52-.96-13.43-6.64-14.45-14.03-1.02-7.44,3.12-14.49,10.2-17.34,7.59-3.06,17.2-.22,20.4,7.91,1.35,3.42,3.68,4.39,7.45,3.88,1.24-.17,1.71-.64,1.97-1.84,1.96-9.01,4-17.99,6.02-26.98.72-3.22,1.46-6.44,2.19-9.66.11-.06.22-.12.34-.17.27.32.68.59.79.96.38,1.3.66,2.63.97,3.95,3.75,15.88,7.5,31.76,11.26,47.64.09.37.32.71.48,1.07ZM51.07,73.65c-1.1-.23-2.15-.44-3.2-.67-6.14-1.36-12.3-1.64-18.35.27-12.6,3.98-19.72,12.81-22.26,25.59-.47,2.37,0,4.51,1.67,6.21,6.42,6.52,14.24,9.56,23.38,8.85,8.54-.67,15.54-7.57,16.43-16.11.84-7.98,1.54-15.98,2.32-24.13ZM60.2,57.43c-1.88-1.56-3.64-3.01-5.38-4.48-3.72-3.15-5.85-7.2-6.29-12-.76-8.31-1.29-16.64-1.95-24.96-.19-2.34-.38-4.7-.76-7.01-.29-1.76-1.36-2.45-3.13-2.16-1.92.32-3.83.78-5.71,1.29-3.73,1.01-4.73,2.78-3.8,6.48,1,3.98,2.03,7.96,3.01,11.95.73,2.98,1.64,5.95,2.05,8.97.73,5.43-4.13,10.07-9.47,9.28-2.22-.33-3.93-1.66-5.66-2.97-1.97-1.5-3.91-3.05-6.01-4.34-1.86-1.14-4.06-1.38-5.88-.02-1.37,1.03-2.49,2.48-3.49,3.92-1.8,2.59-1.14,5.24,1.61,6.75,2.48,1.36,5.06,2.54,7.56,3.86,2.78,1.48,5.6,2.91,8.25,4.59,2.71,1.72,4.76,4.13,5.87,7.22.26.72.63.97,1.35,1.03,3.5.31,6.99.68,10.49,1.01,3.66.35,7.31.7,10.97,1,.39.03,1.02-.15,1.19-.43,1.75-2.95,3.43-5.94,5.17-8.99ZM121.96,56.43c-8.71-8.55-19.29-11.89-31.4-10.12-11.87,1.74-20.75,8.06-26.86,18.57,1.29.97,2.42,1.93,3.66,2.72,9.46,5.98,23.01,5.48,32.35-1.2,3.74-2.68,7.58-5.24,11.91-6.83,3.34-1.23,6.82-2.08,10.34-3.13ZM76.96,43.39c1.59-.56,3.03-1,4.42-1.57,2.04-.83,2.74-1.96,2.6-4.17-.39-6.09-.8-12.18-1.24-18.27-.22-3.06-.45-6.13-.81-9.18-.33-2.77-2.43-4.06-5.11-3.32-3.42.95-5.36,4.22-4.72,7.91.78,4.56,1.53,9.12,2.3,13.69.83,4.91,1.68,9.82,2.55,14.92ZM95.26,38.85c1.79.23,3.43.5,5.09.65,1.15.1,2.14-.37,2.76-1.36.42-.67.78-1.4,1.03-2.15,2.01-6.05,4-12.11,5.95-18.18,1.36-4.23-1.36-9.34-5.59-10.67-2.12-.67-3.83.35-4.22,2.56-1.03,5.77-2.05,11.55-3.05,17.32-.68,3.93-1.31,7.86-1.97,11.82ZM91.24,117.42c.03-5.26-4.35-9.72-9.62-9.78-5.27-.06-9.8,4.44-9.81,9.73,0,5.19,4.41,9.66,9.58,9.7,5.37.03,9.82-4.33,9.85-9.65ZM115.11,43.15c2.01,1.18,3.92,2.29,5.87,3.43,2.26-2.71,4.47-5.34,6.65-7.98,1.73-2.09,3.48-4.17,5.16-6.3.74-.94,1.18-2.07.56-3.24-1.51-2.85-6.02-4.39-8.56-.98-.76,1.02-1.47,2.09-2.16,3.16-2.5,3.93-4.98,7.87-7.52,11.9Z"/>
  </g>
</svg>