<?xml version="1.0" encoding="UTF-8"?>
<svg id="Layer_2" data-name="Layer 2" xmlns="http://www.w3.org/2000/svg" viewBox="0 0 384 298.65">
  <defs>
    <style>
      .cls-1 {
        fill: #000;
        stroke-width: 0px;
      }
    </style>
  </defs>
  <g id="Layer_1-2" data-name="Layer 1">
    <path class="cls-1" d="M0,200.3c2.64-3.7,4.86-7.82,8-11.04,13.28-13.58,26.38-27.39,40.38-40.21,36.19-33.11,78.82-45.68,127.34-38.28,1.35.21,3.03-.07,4.22-.72,27.76-15.22,57.35-11.28,79.83,10.7.27.26.57.48,1.03.87.52-.45,1.13-.85,1.56-1.38,8.26-10.2,16.47-20.43,24.77-30.59,1.23-1.5,1.67-2.63.59-4.56-1.94-3.49-1.3-7.03.98-10.22,7.56-10.57,15.12-21.13,22.75-31.65,2.2-3.03,5.53-3.67,8.16-1.82,2.71,1.91,3.1,5.31.77,8.6-6.81,9.57-13.69,19.08-20.54,28.62-.43.6-.82,1.24-1.38,2.1,6.06,4.89,12.06,9.73,18.3,14.77,2.7-2.97,5.29-5.79,7.87-8.64,14.5-16.04,29.02-32.06,43.49-48.13,4.92-5.46,6.05-11.67,2.96-18.39-2.71-5.9-8.96-9.44-15.58-9-5.03.34-9.06,2.62-12.03,6.69-3.02,4.13-5.95,8.34-9,12.45-2.53,3.41-5.55,4.14-8.35,2.18-2.85-1.99-3.13-5.37-.64-8.89,2.88-4.08,5.76-8.17,8.77-12.16,6.86-9.1,16.04-13.13,27.24-11.05,11.49,2.14,18.74,9.32,21.77,20.67.19.71.49,1.4.74,2.09v8.25c-1.69,7.74-6.36,13.61-11.58,19.3-15.71,17.14-31.25,34.43-46.81,51.7-3.26,3.62-6.88,5.7-11.91,4.14-.61-.19-1.72-.1-2.03.3-2.53,3.35-6.44,5.9-5.25,11.25,1.53,6.88-.54,12.75-5.25,18.26-6.54,7.65-12.99,15.18-22.06,19.98-.85.45-1.41,2.13-1.45,3.27-.16,3.73-.18,7.49.08,11.22.11,1.56.65,3.43,1.68,4.52,5.16,5.44,10.56,10.65,15.84,15.97,7.56,7.61,7.69,16.62.16,24.11-15.51,15.43-30.45,31.5-46.79,45.99-53.87,47.75-134.71,49.44-191.07,4.69-3.84-3.05-4.56-6.37-1.99-9.22,2.27-2.51,5.2-2.54,8.66.18,10.57,8.31,21.87,15.52,34.49,20.13,56.39,20.57,106.53,10.05,150.08-31.14,12.98-12.28,25.34-25.22,37.97-37.87,3.89-3.89,3.88-5.53.1-9.37-3.94-4-7.88-8.01-11.95-12.14-2.31,4.53-4.42,8.73-6.6,12.89-.58,1.1-1.34,2.11-2.07,3.12-2.44,3.41-5.48,4.29-8.3,2.42-2.79-1.85-3.22-5.17-1.11-8.6,1.25-2.02,2.59-3.98,3.71-6.07,4.88-9.09,7.23-21.58,5.45-29.11-8.08,1.76-16.23,2.07-24.42.54-6.82-1.28-8.45-5.5-4.14-10.92,5.36-6.73,10.79-13.4,16.32-20.27-11.55-12.8-25.65-19.2-42.66-18.54-27.22,1.04-49.88,22.69-51.41,48.81-1.71,29.17,17.18,53.31,45.48,57.67,12.08,1.86,23.63-.31,34.34-6.41.87-.49,1.7-1.06,2.59-1.51,3.18-1.63,6.24-.91,7.85,1.81,1.58,2.66.81,5.91-2.11,7.79-7,4.52-14.6,7.83-22.85,8.92-4.99.66-7.73,2.45-10.14,7.24-13.58,27.07-42.58,42.91-72.84,39.01-32.83-4.23-57.01-27.37-63.07-59.02-8.48-44.34,26.79-86.29,72.11-85.42,5.02.1,8.55-.62,10.92-5.25.88-1.71,2.43-3.07,3.73-4.67-38.75-10.98-103.05,18.41-135.46,62.09,2.43,1.67,4.75,3.52,7.3,4.97,11.22,6.35,11.76,19.97,1.18,27.27-3.24,2.24-5.99,5.17-9.3,8.07,5.67,5.65,10.88,10.83,16.07,16.03.97.97,2.02,1.92,2.74,3.06,1.61,2.56,1.27,5.09-.94,7.11-2.08,1.91-4.53,2.01-6.88.43-1.02-.69-1.88-1.64-2.76-2.52-9.82-9.8-19.75-19.49-29.36-29.5C5.12,214.97,2.75,210.83,0,207.05c0-2.25,0-4.5,0-6.75ZM151.59,142.63c-21.16-2.13-54.05,13.18-61.38,49.26-6.45,31.78,13.98,63.65,45.43,71.32,28.1,6.85,62.69-9.46,69.32-32.2-8.12-2.7-16.21-5.4-24.49-8.16-12.47,14.73-26.04,19.53-41.3,14.33-14.13-4.82-24.06-17.21-23.98-32.46.11-21.51,12.5-33.12,32.23-36.75,1.43-8.68,2.77-16.88,4.16-25.33ZM148.8,179.75c-9.45-.48-19.79,8.02-21.98,18.65-2.47,12,4.02,23.81,15.37,27.95,11.05,4.03,23.6-.59,28.72-10.2-4.52-5.72-9.48-10.91-13.13-16.91-3.64-5.99-5.96-12.78-8.98-19.49ZM297.63,94.5c-15.38,19.05-30.52,37.81-46.23,57.26,3.02-.13,5.1-.08,7.15-.34,16.65-2.1,27.37-12.72,36.47-25.58.5-.71.64-1.96.45-2.85-1.94-9.08.56-16.72,7.27-23.06.15-.15.16-.44.36-1.02-1.62-1.31-3.33-2.7-5.46-4.42ZM21.16,215.71c4.35-3.61,8.05-6.73,11.81-9.78,2.66-2.16,2.97-5.07.4-6.91-3.71-2.66-7.58-5.08-11.75-7.85-2.88,2.97-5.94,6.08-8.93,9.25-1.93,2.05-1.98,4.26-.05,6.34,2.88,3.1,5.83,6.13,8.52,8.95Z"/>
    <path class="cls-1" d="M357.43,20.68c3.01-.05,5.48,2.28,5.62,5.29.16,3.65-4.29,8.63-7.77,8.68-3.13.05-5.75-2.54-5.7-5.61.06-3.34,4.72-8.3,7.86-8.35Z"/>
  </g>
</svg>