<?xml version="1.0" encoding="UTF-8"?>
<svg id="Layer_2" data-name="Layer 2" xmlns="http://www.w3.org/2000/svg" viewBox="0 0 381.77 376.76">
  <defs>
    <style>
      .cls-1 {
        fill: #000;
        stroke-width: 0px;
      }
    </style>
  </defs>
  <g id="Layer_1-2" data-name="Layer 1">
    <path class="cls-1" d="M25.34,276.59c-5.23,7.3-10.31,14.38-15.59,21.74-3.31-2.36-6.42-4.57-9.75-6.95,5.69-7.96,11.14-15.72,16.72-23.39,14.57-20,28.51-40.5,43.94-59.81,24.14-30.21,53.9-54.03,87.44-73.26,53.38-30.59,94.59-73.17,124.17-127.07,1.26-2.3,2.59-4.56,3.9-6.83.12-.21.32-.38.8-.92,3.22,1.81,6.52,3.67,10.03,5.64-24.75,47.79-58.46,87.61-102.28,119.68,12.79,1.47,20.67,8.39,25.97,19.31.61-1.23,1.06-2.14,1.5-3.05,19.16-38.89,50.39-59.31,93.72-60.68,15.86-.5,31.75-.13,47.63-.03,2.28.01,3.59-.69,4.76-2.65,4.34-7.28,8.88-14.45,13.56-22.01,3.43,2.14,6.64,4.14,9.91,6.18-.29.74-.41,1.24-.67,1.65-14.79,23.16-28.69,46.96-44.61,69.31-27.63,38.82-63,69.52-104.14,93.5-58.15,33.9-96.94,83.05-116.39,147.5-.18.59-.39,1.16-.69,2.08-1.99-.53-3.89-1.01-5.77-1.53-1.79-.5-3.56-1.04-6.39-1.88,4.93-12.77,9.22-25.52,14.7-37.74,15.21-33.89,37.02-63.01,64.82-87.66,2.1-1.86,3.93-4.21,5.31-6.65,9.82-17.3,14.63-35.97,14.99-55.85.11-6.09.73-12.17,1.13-18.46-9.59,3.44-17.63.16-24.91-6.16-7.51-6.52-10.54-14.64-8.68-25.05-20.67,12.34-41.38,23.77-59.11,39.1,2.19,3.1,4.89,5.92,6.39,9.28,2.7,6.05.7,12.65-4.97,17.02-9,6.95-18.95,7.52-29.45,3.82-1.22-.43-3.47-.38-4.1.38-11.47,13.98-22.76,28.11-34.32,42.48,1.9,1.33,2.87,2.04,3.86,2.7,6.36,4.28,10.74,10.02,12.72,17.48,3.45,12.96-6.71,23.18-19.71,19.82-6.65-1.72-11.92-5.57-16.44-11.08ZM207.93,227.69c28.33-16.5,55.99-34.09,79.95-56.96,24-22.9,44.23-48.66,61.14-77.79-13.95,0-27.3-.16-40.64.07-6.22.1-12.5.52-18.63,1.52-38.51,6.27-70.38,40.32-74.1,79.06-.95,9.94-1.01,19.98-2.36,29.86-1.12,8.21-3.53,16.24-5.35,24.24ZM200.08,152.67c-.05-6.61-8.24-14.75-14.71-14.91-2.78-.07-3.76,1.28-3.66,3.89.24,6.26,8.24,14.32,14.52,14.54,2.58.09,4.05-.95,3.84-3.52ZM38.36,258.4c-1.57,2.18-3.13,4.1-4.38,6.22-.45.77-.55,2.23-.12,2.96,2.5,4.22,6.1,7.21,10.93,8.42,4.12,1.03,6.09-.83,5.06-5.01-1.5-6.1-5.59-10.01-11.5-12.58ZM89.75,193.85c5.14,1.87,11.53,1.05,15-1.76,1.64-1.32,2.97-2.78,1.26-5.01-1.89-2.46-5.22-3.5-6.92-1.97-3.04,2.74-5.98,5.58-9.33,8.74Z"/>
    <path class="cls-1" d="M140.26,376.76c-3.96-1.25-7.5-2.36-11.76-3.7,3.5-9,6.53-17.86,10.34-26.36,20.62-46,52.58-82.08,96.21-107.32,54.72-31.66,98.54-74.24,131.21-128.34,1.68-2.78,3.43-5.51,5.17-8.25.12-.2.39-.31.69-.54.81.46,1.68.91,2.52,1.42,2.33,1.44,4.64,2.91,7.14,4.48-.26.65-.41,1.23-.7,1.72-34.5,59.14-81.17,105.87-140.55,140.3-48.44,28.08-81.03,69.61-98.97,122.65-.4,1.17-.77,2.35-1.28,3.93Z"/>
    <path class="cls-1" d="M9.66,256.91c-3.25-2.3-6.28-4.46-9.23-6.55.05-.47-.01-.78.11-.94,15.57-20.95,30.34-42.57,46.93-62.67,24.41-29.57,54.31-52.96,87.59-71.97,47.64-27.22,85.16-64.6,112.57-112.13.43-.75.89-1.49,1.59-2.65,3.42,1.92,6.72,3.78,10.57,5.94-4.44,7.14-8.51,14.12-12.99,20.83-28.12,42.17-64.66,75.11-108.64,100.22-40.76,23.27-74.44,54.53-101.73,92.71-8.14,11.38-16.27,22.78-24.41,34.16-.71.99-1.49,1.93-2.37,3.06Z"/>
    <path class="cls-1" d="M232.89,338.84c1.4-12.69,2.74-24.85,4.1-37.01.61-5.46,1.34-10.91,1.84-16.38.31-3.44,1.96-5.55,5.24-6.44.12-.03.25-.05.36-.09,4.59-1.59,10.28-2.04,13.47-5.1,3.41-3.27,4.52-8.98,6.55-13.66,3.48-8.01,6.95-16.02,10.33-24.08,1.27-3.03,3.05-5.3,6.6-4.99,3.51.31,4.98,2.71,5.69,5.98,3.79,17.31,7.67,34.6,11.56,51.88.85,3.76-.56,6.29-3.91,7.94-5.48,2.71-10.88,5.59-16.44,8.13-2.2,1.01-2.89,2.2-2.57,4.55,1.69,12.75,3.2,25.52,4.9,38.27,1,7.52-2.57,10.58-9.81,8.17-10.88-3.63-21.75-7.32-32.65-10.89-3.4-1.11-5.26-3.15-5.25-6.28ZM279.12,256.57c-3.57,8.25-6.84,15.5-9.83,22.85-1.29,3.18-3.32,5.1-6.56,6.04-3.35.97-6.67,2.08-9.92,3.33-.99.38-2.38,1.37-2.48,2.22-1.67,14-3.18,28.01-4.65,42.03-.07.69.39,1.93.88,2.11,6.84,2.4,13.73,4.65,21.18,7.13-1.53-12.38-2.9-24.01-4.42-35.62-.81-6.2-.26-7.44,5.43-10.29,5.77-2.88,11.54-5.76,17.31-8.64-2.3-10.32-4.5-20.22-6.94-31.17Z"/>
    <path class="cls-1" d="M340.74,321.65c-1.7-1.27-4.01-2.18-5-3.87-8.11-13.77-16.09-27.62-23.76-41.63-.95-1.74-.56-4.99.45-6.87,2.47-4.6,5.8-8.73,8.51-13.22.88-1.45,1.45-3.48,1.24-5.13-1.5-11.76-3.19-23.51-4.95-35.24-.53-3.55-.19-6.57,3.45-8.16,3.53-1.54,5.89.38,8.03,2.96,9.17,11.07,18.31,22.15,27.62,33.09,2.72,3.19,3.21,6.15,1.17,9.87-2.82,5.14-5.19,10.52-7.99,15.68-1.19,2.19-1.09,3.65.57,5.6,8.11,9.5,16.07,19.14,24.06,28.75,4.83,5.81,3.39,10.26-3.92,11.8-9.4,1.98-18.83,3.8-28.25,5.68-.24.05-.5.04-.75.05-.16.21-.32.43-.48.64ZM332.73,234.08c-.22.17-.43.33-.65.5.37,2.46.71,4.93,1.1,7.39q2.27,14.06-5.6,25.87c-.62.93-1.15,1.95-1.89,2.79-1.55,1.76-1.43,3.33-.24,5.35,4.82,8.17,9.45,16.44,14.17,24.67,1.47,2.57,2.99,5.1,4.48,7.65,5.3-1.08,10.26-2.09,15.7-3.2-1.31-1.61-2.3-2.87-3.32-4.1-6.39-7.68-12.74-15.4-19.22-23-2.41-2.82-2.9-5.54-1.12-8.89,2.93-5.51,5.68-11.11,8.35-16.74.5-1.05.82-2.89.26-3.62-3.86-5-7.98-9.8-12.02-14.67Z"/>
    <path class="cls-1" d="M70.88,252.32c-.08-13.12,13.44-27.04,26.57-27.34,10.24-.23,17.45,8.01,15.84,18.11-1.94,12.17-12.54,22.63-24.73,24.39-9.64,1.39-17.62-5.45-17.69-15.16ZM101.49,240.74c.02-2.5-1.14-3.7-3.61-3.71-6.26-.03-14.75,8.31-14.99,14.64-.1,2.68,1.2,3.99,3.78,3.96,6.22-.07,14.75-8.68,14.81-14.89Z"/>
    <path class="cls-1" d="M347.04,8.88c6.62.18,12.83,1.72,18.02,6.14,7.82,6.66,7.82,17.03.05,23.76-9.48,8.22-27.02,8.18-36.45-.09-7.71-6.76-7.61-17.17.26-23.75,5.23-4.37,11.42-5.91,18.12-6.06ZM346.77,33.71c3.43-1.26,6.96-2.11,10.02-3.81,2.91-1.61,2.72-3.89.17-6.01-4.78-3.96-15.39-3.94-20.1.03-2.52,2.13-2.66,4.36.25,6.02,2.84,1.62,6.13,2.44,9.66,3.77Z"/>
    <path class="cls-1" d="M136.73,273.05c-6.67-.19-12.87-1.79-18.04-6.22-7.79-6.67-7.7-17.12.11-23.75,9.44-8.01,26.28-8.13,35.86-.26,8.34,6.85,8.31,17.68-.12,24.47-5.19,4.18-11.3,5.63-17.81,5.76ZM136.72,261.81c3.43-1.26,6.96-2.11,10.03-3.81,2.91-1.61,2.73-3.89.18-6.01-4.77-3.96-15.38-3.95-20.1.03-2.53,2.13-2.67,4.36.24,6.02,2.84,1.62,6.13,2.44,9.65,3.77Z"/>
    <path class="cls-1" d="M182.14,189.05c.04,12.35-11.94,25.6-24.38,26.98-12.12,1.34-19.88-6.94-17.82-19.04,1.97-11.55,14.12-22.54,25.76-23.29,9.38-.61,16.41,5.96,16.44,15.35ZM170.08,189.66c.25-2.57-.81-4.02-3.81-3.86-6.39.33-14.28,8.19-14.54,14.5-.12,2.94,1.24,4.1,4.03,3.92,6.23-.4,13.98-8.16,14.32-14.55Z"/>
    <path class="cls-1" d="M68.12,327.1c.05,12.34-11.93,25.61-24.38,26.99-12.12,1.35-19.88-6.94-17.82-19.04,1.96-11.55,14.11-22.54,25.75-23.3,9.38-.61,16.41,5.95,16.45,15.35ZM56.05,327.75c.25-2.51-.71-4.04-3.75-3.9-6.37.28-14.29,8.12-14.59,14.44-.14,2.91,1.14,4.14,3.97,3.98,6.19-.35,13.99-8.1,14.38-14.52Z"/>
    <path class="cls-1" d="M287.03,72.15c-10.9.05-17.86-9.29-14.73-20.41,3.19-11.33,10.77-18.73,22.2-21.6,11.41-2.86,20.41,5.1,19.53,16.86-.95,12.67-14.29,25.09-27,25.16ZM302.08,45.65c.25-2.39-.61-4.02-3.68-3.93-6.48.19-14.62,8.35-14.71,14.73-.04,2.76,1.33,3.81,3.91,3.7,6.16-.26,14.05-8.01,14.48-14.51Z"/>
    <path class="cls-1" d="M122.07,309.04c-.06,9.08-6.37,15.29-15.42,15.21-12.74-.11-26.03-12.65-26.89-25.37-.76-11.27,7.19-18.59,18.35-16.9,12.62,1.91,24.04,14.81,23.95,27.05ZM110.06,308.64c-.1-6.53-8.07-14.5-14.52-14.81-3.38-.16-4.04,1.69-3.75,4.51.63,6.02,8.05,13.35,14.09,13.88,2.74.24,4.4-.72,4.18-3.58Z"/>
  </g>
</svg>