<?xml version="1.0" encoding="UTF-8"?>
<svg id="Layer_2" data-name="Layer 2" xmlns="http://www.w3.org/2000/svg" viewBox="0 0 358.01 358.36">
  <defs>
    <style>
      .cls-1 {
        fill: #000;
        stroke-width: 0px;
      }
    </style>
  </defs>
  <g id="Layer_1-2" data-name="Layer 1">
    <path class="cls-1" d="M354.59,112.41c-4.37-4.1-8.69-8.28-12.69-12.73-4.11-4.58-8.03-5.31-12.79-1.03-3.92,3.52-8.75,5.67-13.39,8.1-4.28,2.23-7.32,1.89-10.98-1.95-13.47-14.07-27.42-27.68-41.19-41.46q-16.27-16.28-3.19-35.43c2.75-3.98,2.75-7.16-.73-10.54-4.85-4.69-9.64-9.44-14.3-14.31-4.35-4.55-7.97-3.8-11.85.71-7.07,8.21-12.83,17.2-16.85,27.23-4.97,12.37-7.47,25.28-7.72,38.64-.07,4.1,1.28,7.15,5.54,7.37,4.69.26,6.51-2.87,6.5-7.27-.01-1.25,0-2.5.09-3.75,1.21-17,6.12-32.77,15.91-46.84.94-1.36,1.21-4.16,4.15-3.18,4.57,1.53,6.78,7.91,4.26,12.19-10.09,17.15-13.74,35.59-11.51,55.36.51,4.46,2.52,8.84,1.66,13.63-30.36-10.71-51.73-9.31-70.3-4.91-44.9,10.64-76.83,51.83-76.28,97.92.05,4.34,1.04,7.75,5.77,7.85,4.65.09,6.37-3.18,6.29-7.54-.04-1.75.04-3.5.11-5.25,1.49-36.03,25.52-68.26,59.76-79.21,28-8.96,54.91-5.69,81.05,7.84,29.57,15.31,59.46,15.54,88.43-1.6,6.92-4.09,8.68,1.33,11.02,4.27,3.23,4.04-2.36,4.66-4.19,5.77-32.09,19.5-65.11,19.73-98.36,3.39-11.53-5.67-23.15-10.42-35.95-11.88-36.83-4.19-77.35,13.35-87.63,59.38-3.26,14.61-2.49,29.16,1.18,44.36-3.9-1.28-6.85-2.38-9.87-3.24-37.16-10.59-71.51-5.99-102.21,18.79-5.2,4.2-6.01,8.1-.83,12.89,4.59,4.24,9.01,8.66,13.25,13.24,3.8,4.1,7.45,4.33,11.67.76,4.8-4.05,10.33-6.85,16.12-9.28,2.97-1.25,4.88-1.09,7.21,1.27,18.11,18.27,36.31,36.45,54.56,54.58,2.06,2.04,2.49,3.77,1.34,6.55-2.58,6.28-5.72,12.17-10.06,17.4-2.86,3.45-2.84,6.72.39,9.93,5.14,5.1,10.24,10.25,15.37,15.36,3.19,3.19,6.68,3.59,9.76.15,17.59-19.66,25.63-42.96,25.89-69.12.04-3.57-2.21-5.53-5.66-5.67-3.51-.14-5.63,1.83-6.12,5.27-.28,1.97-.12,3.99-.27,5.98-1.4,18.58-7.02,35.59-19.08,51.14-1.73-4.62-10.78-4.52-5.97-12.24,11.12-17.89,14.64-37.32,12-58.12-.5-3.97-2.43-7.9-1.42-12.29,3.04,1.01,5.62,1.97,8.24,2.73,39.44,11.42,75.76,6.37,106.77-21.94,21.61-19.74,31.06-45.24,31.57-74.28.07-4.18-1.49-7.03-5.71-7.17-4.17-.14-6.24,2.56-6.3,6.73-.02,1.5-.04,3-.12,4.49-.97,18.11-6.22,34.77-16.93,49.52-26.69,36.74-78.57,47.11-121.8,24.38-30.81-16.2-61.45-17.09-91.73,1.24-6.17,3.73-7.23-2.41-9.79-4.72-3.4-3.07,1.22-4.03,2.72-5.07,14.11-9.71,29.92-14.6,46.93-15.56,20.45-1.17,39.23,4.19,57.5,13.38,30.32,15.26,61.07,15.48,89.37-4.24,28.01-19.53,34.81-48.37,30.29-80.84-.38-2.76-2.58-5.44-.79-8.59,9.7,3.69,19.54,6.43,29.76,7.52,30.43,3.26,57.87-3.8,81.65-23.66,4.98-4.15,5.23-7.96.48-12.4ZM254.9,107.04c-1.75-.66-2.94-1.85-3.61-3.54-4.98-12.63-7.08-25.62-5.72-39.09,15.98,16.13,31.63,31.92,47.41,47.84-12.77,1.61-25.58-.48-38.08-5.21ZM103.78,251.61c1.05.41,2.15,1.5,2.57,2.54,5.2,12.8,7.54,25.99,5.65,39.47-15.95-15.93-31.7-31.66-47.9-47.84,13.77-1.56,26.92.72,39.68,5.83ZM134.2,226.54c-1.21-.49-2.37-1.94-2.88-3.22-5.01-12.59-7.22-25.56-5.66-38.67,15.96,16,31.79,31.87,47.73,47.85-13.19,1.52-26.4-.81-39.19-5.96ZM207.18,220.21c-4.62,3.45-9.82,5.78-15.11,7.99-2.75,1.15-4.13-.56-5.72-2.15-18.15-18.16-36.2-36.41-54.54-54.36-3.51-3.43-1.89-6.21-.55-9.31,6.69-15.47,7.01-15.52,18.72-3.81,18.33,18.33,36.64,36.68,55.02,54.95,1.39,1.38,3.3,2.24,3.4,2.31.68,3.52-.49,3.83-1.22,4.38ZM226.02,197.31c-1.99,3.15-3.69,6.47-5.64,9.65-.6.96-1.15,2.28-4.18,1.76-.18-.26-.88-1.65-1.93-2.7-20.77-20.83-41.51-41.69-62.44-62.35-3.32-3.27-3.07-5.08.85-6.98.66-.32,1.26-.79,1.89-1.18q12.55-7.7,22.87,2.62c15.52,15.51,30.82,31.24,46.68,46.39,4.56,4.36,4.98,7.91,1.9,12.79ZM232.29,174.08c-16.34-16.33-32.1-32.08-48.24-48.21,13.71-1.54,26.91.58,39.67,5.84,1.22.5,2.41,1.91,2.92,3.17,4.98,12.6,7.26,25.58,5.65,39.2Z"/>
  </g>
</svg>