<?xml version="1.0" encoding="UTF-8"?>
<svg id="Layer_2" data-name="Layer 2" xmlns="http://www.w3.org/2000/svg" viewBox="0 0 343.9 383.74">
  <defs>
    <style>
      .cls-1 {
        fill: #020202;
      }

      .cls-1, .cls-2, .cls-3, .cls-4 {
        stroke-width: 0px;
      }

      .cls-2 {
        fill: #000;
      }

      .cls-3 {
        fill: #060606;
      }

      .cls-4 {
        fill: #fefefe;
      }
    </style>
  </defs>
  <g id="Layer_1-2" data-name="Layer 1">
    <path class="cls-4" d="M172.05,163.87c-16.49.05-29.89,13.56-29.84,30.07.05,16.47,13.59,29.91,30.07,29.85,16.47-.06,29.9-13.6,29.85-30.08-.06-16.49-13.57-29.9-30.08-29.84ZM171.2,208.76c-7.99-.54-14.3-7.56-13.98-15.53.34-8.29,7.66-14.88,15.92-14.33,7.97.53,14.3,7.56,13.97,15.52-.34,8.29-7.67,14.89-15.91,14.34Z"/>
    <path class="cls-4" d="M237.95,178.81c8.26,37.5-16.11,74.63-53.28,81.16-42.21,7.41-80.06-24.11-80.26-66.62.49-3.7.93-7.41,1.48-11.1.72-4.75,3.6-7.19,8.32-6.52,5.21.73,6.95,4.38,6.23,9.27-.92,6.23-.99,12.38.29,18.6,6.08,29.69,33.85,47.8,63.36,41.24,28.18-6.26,45.72-34.89,38.98-63.6-6.65-28.29-36.2-45.65-64.87-38.01-5.56,1.49-12.01,4.64-14.31-3.41-2.43-8.5,5.22-9.44,10.82-11.03,36.24-10.26,75.12,13.16,83.24,50.02Z"/>
    <path class="cls-2" d="M179.48,54.44c.04,5.4-1.51,9.82-7.54,9.82-6.03-.01-7.56-4.42-7.52-9.83.11-14.45.22-28.9-.07-43.35-.09-4.63,1.14-8.19,4.6-11.08h6c3.43,2.91,4.7,6.46,4.6,11.09-.29,14.44-.17,28.9-.07,43.35Z"/>
    <path class="cls-2" d="M179.55,372.65c.1,4.63-1.19,8.17-4.6,11.09h-6c-3.43-2.91-4.7-6.45-4.6-11.08.29-14.45.18-28.91.07-43.36-.04-5.4,1.46-9.82,7.52-9.82s7.58,4.41,7.54,9.81c-.1,14.45-.22,28.91.07,43.36Z"/>
    <path class="cls-2" d="M172.05,163.87c-16.49.05-29.89,13.56-29.84,30.07.05,16.47,13.59,29.91,30.07,29.85,16.47-.06,29.9-13.6,29.85-30.08-.06-16.49-13.57-29.9-30.08-29.84ZM171.2,208.76c-7.99-.54-14.3-7.56-13.98-15.53.34-8.29,7.66-14.88,15.92-14.33,7.97.53,14.3,7.56,13.97,15.52-.34,8.29-7.67,14.89-15.91,14.34Z"/>
    <path class="cls-2" d="M237.95,178.81c8.26,37.5-16.11,74.63-53.28,81.16-42.21,7.41-80.06-24.11-80.26-66.62.49-3.7.93-7.41,1.48-11.1.72-4.75,3.6-7.19,8.32-6.52,5.21.73,6.95,4.38,6.23,9.27-.92,6.23-.99,12.38.29,18.6,6.08,29.69,33.85,47.8,63.36,41.24,28.18-6.26,45.72-34.89,38.98-63.6-6.65-28.29-36.2-45.65-64.87-38.01-5.56,1.49-12.01,4.64-14.31-3.41-2.43-8.5,5.22-9.44,10.82-11.03,36.24-10.26,75.12,13.16,83.24,50.02Z"/>
    <path class="cls-2" d="M340.29,185.39c-19.46-25.41-42.06-47.48-68.96-64.84-43.9-28.33-91.13-40.14-142.58-25.5-53.63,15.27-93.63,49.62-126.69,93.16-3.61,4.76-1.98,8.66,1.13,12.82,14.87,19.93,32.04,37.65,51.59,52.99,34.42,27.01,72.71,44.1,111.7,44.75,19.35.02,32.95-1.72,46.24-5.35,53.89-14.72,94.18-48.44,127.85-91.52,4.74-6.07,4.23-10.62-.28-16.51ZM325.38,197.08c-31.57,38.72-68.64,69.64-118.22,82.22-46.07,11.69-87.83-.04-126.65-25.24-23.23-15.08-43.02-34-60.34-55.56-2.1-2.61-3.97-4.56-.97-8.23,30.74-37.7,66.94-67.63,114.72-81.17,12.54-3.55,25.39-5.25,43.75-5.21,34.2.54,68.34,15.51,99.31,38.94,17.82,13.48,33.46,29.19,47.43,46.6,1.9,2.37,3.75,4.25.97,7.65Z"/>
    <path class="cls-1" d="M68.85,96.49c.12,2.76-1.1,4.95-3.38,6.24-2.77,1.57-6,1.84-8.36-.47-11.2-10.96-22.33-21.99-33.23-33.24-2.77-2.86-2.22-6.56.58-9.43,3.05-3.12,6.87-3.61,9.99-.57,11.06,10.74,21.86,21.75,32.75,32.67,1.31,1.31,1.62,3.03,1.65,4.8Z"/>
    <path class="cls-1" d="M321.71,64.28c-.27,3.47-2.05,5.54-4,7.49-9.51,9.5-19.04,18.96-28.52,28.48-3.57,3.59-7.63,5.41-11.73,1.57-4.46-4.16-2.71-8.43,1.13-12.25,9.88-9.82,19.69-19.71,29.59-29.51,2.4-2.39,5.16-3.87,8.72-2.25,3.05,1.39,4.37,3.85,4.81,6.47Z"/>
    <path class="cls-1" d="M67.65,298.69c-10.8,12.01-22.26,23.41-34.28,34.22-.85.76-2.24.93-3.08,1.26-3.29-.31-5.54-1.57-7.04-4.16-1.57-2.71-1.51-5.57.52-7.65,10.94-11.21,21.97-22.34,33.2-33.25,2.78-2.69,6.49-2.45,9.49.2,3.05,2.69,3.69,6.6,1.19,9.38Z"/>
    <path class="cls-1" d="M321.75,326.23c-.45,3.3-1.74,5.5-4.37,6.96-2.8,1.55-5.62,1.24-7.65-.74-11.19-10.96-22.31-22-33.18-33.28-2.66-2.77-2.28-6.54.48-9.46,2.79-2.95,6.7-3.51,9.41-.92,11.48,11.01,22.61,22.38,33.77,33.72.95.96,1.13,2.68,1.54,3.72Z"/>
    <path class="cls-4" d="M172.05,163.87c-16.49.05-29.89,13.56-29.84,30.07.05,16.47,13.59,29.91,30.07,29.85,16.47-.06,29.9-13.6,29.85-30.08-.06-16.49-13.57-29.9-30.08-29.84ZM171.2,208.76c-7.99-.54-14.3-7.56-13.98-15.53.34-8.29,7.66-14.88,15.92-14.33,7.97.53,14.3,7.56,13.97,15.52-.34,8.29-7.67,14.89-15.91,14.34Z"/>
    <path class="cls-4" d="M184.67,259.97c-42.21,7.41-80.06-24.11-80.26-66.62.49-3.7.93-7.41,1.48-11.1.72-4.75,3.6-7.19,8.32-6.52,5.21.73,6.95,4.38,6.23,9.27-.92,6.23-.99,12.38.29,18.6,6.08,29.69,33.85,47.8,63.36,41.24,28.18-6.26,45.72-34.89,38.98-63.6-6.65-28.29-36.2-45.65-64.87-38.01-5.56,1.49-12.01,4.64-14.31-3.41-2.43-8.5,5.22-9.44,10.82-11.03,36.24-10.26,75.12,13.16,83.24,50.02,8.26,37.5-16.11,74.63-53.28,81.16Z"/>
    <path class="cls-2" d="M184.67,259.97c-42.21,7.41-80.06-24.11-80.26-66.62.49-3.7.93-7.41,1.48-11.1.72-4.75,3.6-7.19,8.32-6.52,5.21.73,6.95,4.38,6.23,9.27-.92,6.23-.99,12.38.29,18.6,6.08,29.69,33.85,47.8,63.36,41.24,28.18-6.26,45.72-34.89,38.98-63.6-6.65-28.29-36.2-45.65-64.87-38.01-5.56,1.49-12.01,4.64-14.31-3.41-2.43-8.5,5.22-9.44,10.82-11.03,36.24-10.26,75.12,13.16,83.24,50.02,8.26,37.5-16.11,74.63-53.28,81.16Z"/>
    <path class="cls-2" d="M172.05,163.87c-16.49.05-29.89,13.56-29.84,30.07.05,16.47,13.59,29.91,30.07,29.85,16.47-.06,29.9-13.6,29.85-30.08-.06-16.49-13.57-29.9-30.08-29.84ZM171.2,208.76c-7.99-.54-14.3-7.56-13.98-15.53.34-8.29,7.66-14.88,15.92-14.33,7.97.53,14.3,7.56,13.97,15.52-.34,8.29-7.67,14.89-15.91,14.34Z"/>
    <path class="cls-3" d="M134.58,156.66c-.16,4.27-2.86,6.98-7.13,7.07-4.65.09-7.55-2.68-7.62-7.32-.07-4.71,2.96-7.03,7.5-7.62,4.5.74,7.42,3.17,7.25,7.87Z"/>
  </g>
</svg>