<?xml version="1.0" encoding="UTF-8"?>
<svg id="Layer_2" data-name="Layer 2" xmlns="http://www.w3.org/2000/svg" viewBox="0 0 384 275.13">
  <defs>
    <style>
      .cls-1 {
        fill: #000;
        stroke-width: 0px;
      }
    </style>
  </defs>
  <g id="Layer_1-2" data-name="Layer 1">
    <path class="cls-1" d="M0,158.26c6.41-12.71,15.77-23.29,25-33.89,22.7-26.06,48.75-48.14,79.87-63.47,65.57-32.3,130.56-30.2,194.31,5.25,32.11,17.86,58.34,42.7,81.01,71.4,1.66,2.1,2.56,4.79,3.81,7.21v6.75c-3.02,4.52-5.69,9.33-9.12,13.52-15.42,18.85-32.94,35.55-52.58,49.98-2.44,1.79-5.24,2.82-7.43.45-1.35-1.47-1.96-4.17-1.83-6.25.08-1.33,1.96-2.77,3.32-3.78,15.01-11.14,28.78-23.63,41.23-37.55,4.58-5.12,8.91-10.46,13.36-15.7,2.26-2.67,2.38-5.33.15-8.12-20.61-25.79-44.27-48.17-72.62-65.35-.62-.37-1.27-.68-2.03-1.08,2.31,6.89,4.92,13.47,6.73,20.26,16.37,61.31-24.13,124.61-86.55,135.49-56.69,9.88-110.76-24.47-125.45-79.69-.26-.96-.54-1.93-.67-2.92-.42-3.22,1.3-5.87,4.32-6.45,3.17-.6,5.39.85,6.42,3.82,1.52,4.36,2.6,8.87,4.28,13.16,16.29,41.47,57.03,66.3,101.78,62.14,42.28-3.92,78.25-36.66,86.39-79.17,5.15-26.9-.14-51.89-15.61-74.58-1.12-1.64-2.91-3.14-4.73-3.92-50.36-21.53-100.85-21.68-151.33-.47-2.46,1.03-4.89,3.06-6.4,5.27-10.7,15.64-16.31,33.01-16.78,52-.02,1,0,2.01-.12,3-.44,3.47-2.89,5.75-5.9,5.57-3.07-.17-5.22-2.6-5.24-6.14-.07-15.21,3.07-29.75,9.17-43.67.48-1.1.94-2.22.78-4.03-7.04,4.82-14.24,9.41-21.08,14.49-24.7,18.35-45.45,40.53-63.22,65.58-1.51,2.12-2.77,4.21-1.35,6.88,1.36,2.58,3.65,3.11,6.33,3.06,4.12-.08,8.26.19,12.37-.08,3.84-.25,6.57,1.13,9.17,3.92,16.59,17.85,35.03,33.48,55.94,46.1,35.43,21.38,73.69,31.6,115.14,28.68,28.6-2.01,55.3-10.51,80.34-24.37,1.64-.91,3.24-1.89,4.94-2.67,2.96-1.36,5.5-.52,7.09,2.2,1.59,2.71,1,5.31-1.48,7.33-.77.62-1.68,1.08-2.55,1.57-36.14,20.53-74.87,30.14-116.44,27.17-38.7-2.76-73.56-16.4-105.34-38.34-15.17-10.47-29.16-22.36-41.75-35.81-3.2-3.42-6.4-5.19-11-4.51-1.22.18-2.5-.06-3.74.04-10.46.86-17.62-3.33-20.9-13.54v-6.75Z"/>
    <path class="cls-1" d="M164.98,158.5c-6.61-6.95-11.18-14.62-12.82-23.73-3.32-18.34,2.07-33.81,16.69-45.3,14.89-11.7,31.45-13.11,48.59-5.11,2.73,1.28,4.37,1.15,6.56-.7,3.72-3.14,7.67-6.01,11.58-8.92,3.26-2.42,6.59-2.19,8.62.46,2.01,2.63,1.35,5.95-1.81,8.45-4.01,3.17-8.09,6.24-11.58,8.93,3.36,6.13,7.35,11.68,9.63,17.86,10.26,27.82-9.67,58.42-39.25,60.82-3.81.31-6.44-1.51-6.87-4.75-.42-3.17,1.63-5.83,5.46-6.27,11.07-1.29,19.93-6.22,26.21-15.47,9.53-14.05,7.11-34.39-5.39-44.42-11.06,8.44-22.17,16.93-33.28,25.41-1.99,1.52-3.94,3.08-5.97,4.53-3.17,2.26-6.25,2.03-8.33-.55-2.14-2.66-1.61-5.94,1.63-8.44,10.88-8.39,21.83-16.71,32.74-25.06.96-.73,1.86-1.52,2.88-2.36-12.76-7.45-32.74-1.49-41.98,12.28-9.7,14.43-6.94,35.33,6.11,45.16,11.77-8.98,23.57-17.99,35.38-27,.99-.76,1.97-1.54,2.98-2.27,3.27-2.35,6.59-2.13,8.6.55,2.06,2.74,1.46,5.87-1.87,8.42-15.17,11.64-30.38,23.22-45.57,34.82-4.96,3.79-9.9,7.62-14.89,11.38-3.59,2.71-6.7,2.59-8.9-.23-2.12-2.71-1.37-6,2.05-8.67,4.14-3.22,8.32-6.39,12.8-9.83Z"/>
    <path class="cls-1" d="M96.94,268.14c-.14,5.82-4.36,8.47-8.38,6.18-8-4.56-16.16-9.03-23.44-14.6-18.24-13.96-33.33-30.79-43.64-51.56-.28-.56-.58-1.11-.81-1.69-1.41-3.5-.38-6.5,2.68-7.88,2.86-1.29,5.54-.09,7.45,3.05,4.34,7.12,8.23,14.6,13.28,21.19,13.21,17.23,29.08,31.48,48.72,41.26,1.95.97,3.27,3.18,4.13,4.05Z"/>
    <path class="cls-1" d="M198.05,0c13.01,1.44,26.65,2.89,40.27,4.5,4.63.55,6.79,3.15,6.2,6.76-.58,3.5-3.57,5.12-8.18,4.3-14.56-2.61-29.22-3.79-44-3.43-43.12,1.04-82.67,13.81-119.18,36.46-4.77,2.96-9.39,6.18-14.09,9.25-3.46,2.26-6.65,1.95-8.62-.77-2.02-2.79-1.11-6.08,2.41-8.55C84.84,25.98,119.78,10.32,158.55,4.08c12.79-2.06,25.8-2.71,39.5-4.08Z"/>
    <path class="cls-1" d="M345.9,53.83c-1.61,1.98-2.55,4.22-4.07,4.72-1.84.61-4.55.4-6.22-.58-7.95-4.69-15.54-10-23.51-14.66-15.68-9.19-32.32-16.24-49.69-21.54-3.18-.97-5.44-2.58-5.23-6.27.24-4,3.73-5.91,8.37-4.52,17.77,5.31,34.76,12.51,50.81,21.79,8.53,4.93,16.78,10.36,25.02,15.78,1.7,1.12,2.78,3.2,4.52,5.28Z"/>
  </g>
</svg>