<?xml version="1.0" encoding="UTF-8"?>
<svg id="Layer_2" data-name="Layer 2" xmlns="http://www.w3.org/2000/svg" viewBox="0 0 384 369.88">
  <defs>
    <style>
      .cls-1 {
        fill: #000;
        stroke-width: 0px;
      }
    </style>
  </defs>
  <g id="Layer_1-2" data-name="Layer 1">
    <path class="cls-1" d="M384,77.71c-.56,2.65-1.09,5.32-1.7,7.96-2.64,11.51-7.64,21.9-15.24,30.95-1.51,1.8-1.67,3.4-1.54,5.71.3,5.42.2,10.92-.45,16.3-.37,3.04-3.1,4.41-6.28,3.84-3.02-.54-4.8-3.18-4.44-6.36,2.04-18.13-7.49-32.17-25.39-37.32-7.4-2.13-14.79-2.22-22.07.58-12.84,4.95-18.55,17.58-13.81,30.54,6.03,16.5,26.25,26.84,43.46,22.23.84-.23,1.67-.53,2.51-.76,3.98-1.12,6.99.12,8.02,3.3,1.04,3.19-.65,6.04-4.5,7.38-9.8,3.41-19.63,3.18-29.43.05-7.87-2.52-14.73-6.71-20.56-12.59-.84-.85-1.89-1.95-2.93-2.05-9.9-.96-19.36-3.42-27.41-7.67-5.07,9.21-10.04,18.11-14.9,27.08-7.51,13.86-8.13,28.26-3.38,43.15,2.26,7.1,4.04,14.36,6.11,21.79,24.03-16.19,50.11-19.62,77.39-7.31,16.91,7.63,29.23,20.31,37.04,37.16,15.67,33.82,4.32,73.52-26.28,95.02-28.38,19.94-80.57,19.92-107.98-22.5-1.51,6.71-3.08,13.13-4.35,19.6-.79,4-2.88,6.73-6.43,8.64-18.51,9.94-36.94,10.04-55.37-.19-3.03-1.68-4.98-4.08-5.72-7.47-7.52-34.25-15.15-68.48-22.51-102.77-2.91-13.52-1.39-26.84,3.4-39.79,5.11-13.81,5.38-27.57-.53-41.23-.69-1.6-1.49-3.16-2.33-4.69-4.79-8.71-9.61-17.41-14.59-26.41-7.71,3.87-16.73,6.46-26.22,7.52-1.26.14-2.53,1.42-3.54,2.43-14.29,14.2-36.13,18.68-53.23,10.87-14.98-6.84-22.77-22.02-19.74-38.19.24-1.29.06-3.15-.71-4.07C8.48,106.78,2.19,93.58.37,78.35c-.03-.23-.24-.43-.37-.64,0-4.75,0-9.5,0-14.25.23-.69.57-1.36.67-2.07,1.69-12.53,6.42-23.8,14.08-33.83,3.7-4.84,6.77-5.83,9.86-3.31,2.93,2.39,2.65,5.48-.92,10.11-15.98,20.72-16.57,49.33-1.44,70.61.76,1.07,1.65,2.05,2.47,3.08-.33-.54-.65-1.07-.98-1.61,4.27-3.94,8.54-7.88,12.75-11.75-1.74-1.92-4.23-4.24-6.21-6.93-11.18-15.15-9.12-35.36,4.99-50.27,18.26-19.29,47.43-20.58,68.28-2.69,9.71,8.34,19.74,16.03,31.35,21.6,10.83,5.2,16.15,14.1,16.13,26.14-.01,7.25.22,14.51-.04,21.75-.59,16.27,4.42,30.34,15.2,42.62,8.84,10.07,15.07,21.92,16.01,35.28,1.24,17.53,1.05,35.18,1.03,52.78,0,5.71-4.56,10.24-9.76,11.46-5.64,1.32-10.78-.72-14.38-5.72-3.18-4.42-7.18-4.7-10.16-.15-1.46,2.22-2.49,5.44-2.14,7.98,1,7.15,2.53,14.27,4.5,21.22.65,2.28,2.9,4.9,5.07,5.82,20.04,8.52,40.64,9.52,61.54,3.54,1.24-.35,2.76-1.84,3.06-3.07,2.71-11.11,7.65-21.07,14.67-30.06.6-.77,1.28-2.41.94-2.83-1.67-2.04-3.39-4.45-5.66-5.51-2.55-1.19-4.53.97-6.09,3.16-3.76,5.29-9.32,7.22-15.08,5.41-5.42-1.7-9-6.51-9.19-12.81-.16-5.37-.11-10.75-.02-16.12.07-4.06,2.34-6.61,5.63-6.62,3.3-.01,5.51,2.51,5.57,6.6.07,4.62-.1,9.25.09,13.87.06,1.42.95,2.81,1.46,4.21,1.1-.83,2.44-1.48,3.27-2.52,2.76-3.47,6.1-6.12,10.54-6.5,3.22-.28,6.52.32,10.25.56-.85-3.07-1.46-6.25-2.6-9.23-8.6-22.55-6.26-43.7,7.29-63.81,7.18-10.65,11.2-22.69,11.57-35.55.48-16.86.26-33.73.32-50.6,0-.18-.28-.36-.72-.88-5.29,3.03-8.67,7.36-8.84,13.63-.23,8.12-.32,16.25-.09,24.37.51,18.59-5.15,34.84-17.47,48.84-6.71,7.63-11.21,16.51-13.38,26.47-.74,3.4-.96,6.92-1.57,10.35-.65,3.62-2.98,5.42-6.23,5.06-3.03-.34-4.89-2.58-4.81-6.06.05-2.12.26-4.24.57-6.34,2.08-13.95,7.71-26.32,16.98-36.92,10.2-11.65,15.04-25.1,14.65-40.55-.18-7.37.08-14.75-.06-22.12-.24-12.84,5.36-22.01,16.9-27.59,9.61-4.65,18.53-10.33,26.38-17.62,2.29-2.12,4.73-4.09,7.21-5.99,20.28-15.5,48.67-12.98,65.89,5.81,15.88,17.34,15.36,39.57-1.3,55.8-.32.31-.52.76-.22.31,4.49,4.26,8.69,8.24,12.86,12.19,6.99-8.8,11.33-19.97,11.97-32.4,2.34-45.25-44.2-76.44-84.97-56.71-7.31,3.54-13.67,9.09-20.34,13.9-27.64,19.92-58.17,28.67-92.18,24.09-3.83-.52-5.94-2.99-5.6-6.17.36-3.36,3.27-5.48,7.1-4.92,10.85,1.58,21.67,1.44,32.48-.25,13.31-2.08,25.83-6.39,37.68-13.01-29.28-22.53-81.62-21.53-109.07.32,1.42.75,2.69,1.51,4.02,2.12,3.4,1.56,6.87,2.97,10.24,4.59,2.88,1.39,3.88,3.84,2.99,6.87-.84,2.85-3.82,4.3-6.95,3.51-.96-.24-1.87-.69-2.79-1.07-13.2-5.35-25.05-12.86-36-21.94-10.43-8.65-22.48-13.28-36.03-13.89-9.53-.43-18.65,1.23-27.31,5.26-2.75,1.28-5.48,2-7.98-.43-3.13-3.04-1.96-7.52,2.7-9.53C66.84-4.51,91.5-1.59,114.52,15.2c4.21,3.07,8.24,6.39,11.73,9.11,44.35-28.44,87.85-28.43,131.94-.28,3.53-2.77,7.44-5.88,11.39-8.94,37.36-29.02,91.56-14.54,109.16,29.34,2.43,6.07,3.54,12.67,5.26,19.02v14.25ZM295.26,358.55c35.79.02,64.79-28.89,64.95-64.73.16-35.93-28.91-65.23-64.79-65.32-35.88-.09-65.13,29.07-65.17,64.97-.05,35.92,29.07,65.06,65.02,65.08ZM280.34,115.99c1.83-8.17,4.71-14.23,9.8-18.95,11.42-10.6,25.05-13.32,39.69-9.39,5.82,1.56,9.51-.17,12.6-4.11,2.56-3.27,5.08-7.01,6.15-10.94,3.49-12.82-2.24-22.74-11.65-30.69-13.48-11.38-32.91-11.32-47.1-.33-7.7,5.96-15.39,11.93-22.97,18.03-.87.7-1.5,2.25-1.51,3.42-.1,13.25-.1,26.5-.01,39.75,0,1.24.41,2.98,1.28,3.63,4.23,3.19,8.68,6.09,13.72,9.56ZM104.78,115.36c4.5-3.17,8.77-6.06,12.88-9.17.71-.53,1.01-1.97,1.02-3,.07-13.49.07-26.98,0-40.47,0-.98-.44-2.31-1.15-2.88-8.2-6.51-16.31-13.18-24.81-19.28-19.65-14.1-46.96-6.47-56.27,15.49-4.62,10.9-1.22,23.37,8.22,30.5,2.54,1.92,4.94,2.83,8.22,1.55,2.75-1.07,5.8-1.44,8.76-1.83,16.64-2.19,32.94,6.07,39.75,20.15,1.23,2.55,2.04,5.3,3.4,8.94ZM66.44,96.72c-14.9.61-29,9.59-34.53,22.43-5.9,13.7.15,27.46,14.22,32.33,17.5,6.06,39.17-4.16,45.62-21.52,4.79-12.91-.85-25.7-13.73-30.49-3.69-1.37-7.7-1.86-11.57-2.75ZM129.97,67.12v3.73c0,11.99.25,23.99-.06,35.97-.49,18.81,4.36,35.84,14.64,51.71,3.97,6.13,6.47,13.5,8.31,20.64,3.24,12.56,1.31,25-3.12,37.11-1.28,3.51-2.12,7.19-3.3,11.28,9.76-2.8,16.04-1.06,20.83,5.02.89,1.13,2.33,1.84,3.51,2.74.49-1.42,1.39-2.83,1.41-4.26.11-12.24.13-24.48.04-36.72-.11-15.3-4.86-29.03-14.94-40.57-12.25-14.04-18.05-30.18-17.56-48.77.22-8.36.14-16.74-.16-25.1-.22-6.09-4.17-11.13-9.62-12.78ZM162.63,321.77c2.23,10.2,4.19,19.57,6.41,28.88.28,1.19,1.71,2.43,2.92,3.03,13.42,6.69,26.87,6.49,40.24-.17,1.04-.52,2.39-1.44,2.62-2.4,2.26-9.53,4.31-19.1,6.56-29.32-19.75,6.55-38.96,6.59-58.74-.01ZM155,287.37c1.53,6.84,2.79,13.03,4.4,19.12.32,1.2,1.81,2.46,3.05,2.98,18.55,7.71,37.31,8.02,56.16,1.17.81-.29,1.78-1.75,1.71-2.59-.46-5.69-1.18-11.36-1.85-17.33-21.1,5.48-42.16,4.36-63.47-3.35ZM264.97,120.36c-.22,1.59-.53,3.17-.62,4.78-.06,1.02-.15,2.66.41,3,5.45,3.39,11.31,5.77,18.05,6.77-.61-2.01-.92-3.49-1.5-4.84-.54-1.26-1.07-2.99-2.11-3.5-4.53-2.23-9.25-4.08-14.23-6.21ZM102.57,135c3.58-1.22,7.03-2.19,10.32-3.55,7.14-2.95,7.11-3.03,6.23-10.67-.02-.17-.3-.3-.58-.57-2.44,1.28-4.83,3.1-7.5,3.81-5.49,1.44-8.49,4.57-8.46,10.98Z"/>
    <path class="cls-1" d="M313.74,312.14c0,6.11.02,11.71,0,17.31-.03,6.07-1.73,7.76-7.8,7.77-7.37.01-14.75.03-22.12,0-5.1-.02-7.05-1.95-7.08-6.98-.04-5.85,0-11.7,0-18.09-5.38,0-10.45,0-15.52,0-8.59,0-9.64-1.07-9.64-9.8,0-6.62-.03-13.25.01-19.87.04-5.59,1.9-7.45,7.4-7.47,5.74-.02,11.47,0,17.75,0,0-5.89,0-11.59,0-17.28.01-6.1,1.66-7.78,7.76-7.81,7.25-.04,14.5-.05,21.74,0,5.87.04,7.47,1.71,7.5,7.69.03,5.61,0,11.21,0,17.4,5.82,0,11.38,0,16.95,0,6.56,0,8.25,1.66,8.26,8.13,0,7.12.02,14.25,0,21.37-.02,5.73-1.86,7.59-7.67,7.64-5.71.05-11.42.01-17.53.01ZM327.5,286.25c-5.65,0-11.11,0-16.57,0-6.84,0-8.41-1.55-8.43-8.32-.01-5.45,0-10.91,0-16.57h-14.52c0,6.02.03,11.85,0,17.69-.03,5.26-1.96,7.17-7.26,7.19-5.83.03-11.66,0-17.56,0v14.65h12.26q12.57,0,12.57,12.38v12.45h14.21c.13-.49.25-.73.25-.97.03-5.24.04-10.49.07-15.73.03-6.56,1.59-8.11,8.23-8.13,5.58-.01,11.17,0,16.77,0v-14.65Z"/>
  </g>
</svg>