<?xml version="1.0" encoding="UTF-8"?>
<svg id="Layer_2" data-name="Layer 2" xmlns="http://www.w3.org/2000/svg" viewBox="0 0 383.77 383.73">
  <defs>
    <style>
      .cls-1 {
        fill: #000;
        stroke-width: 0px;
      }
    </style>
  </defs>
  <g id="Layer_1-2" data-name="Layer 1">
    <g>
      <path class="cls-1" d="M383.77,52.46c-1.82-5.88-.98-12.18-3.8-18.03-9.62-20.02-25.02-31.75-47.17-34.43h-17.98c-11.89.97-21.94,5.86-30.28,14.3-5.82,5.88-10.8,12.33-14.53,19.81-9.65,19.34-23.4,25.78-44.21,20.2-22.71-6.1-45.17-6.12-67.88.01-20.78,5.6-34.19-1.04-44.29-20.19C104.06,15.99,91.06,1.94,68.96,0h-17.99c-9.39,1.42-18.36,3.75-26.36,9.41C10.13,19.65,1.73,33.28,0,50.96v19.49c3.14,11,7,21.71,13.98,30.94,2.21,2.91.66,5-.45,7.49-3.37,7.55-4.73,15.51-1.34,23.21,3.38,7.7,7.18,15.38,11.96,22.26,9.77,14.04,40.14,21.72,55.1,13.8,14.5-7.68,28.82-4.65,43.37-1.25,2.31.54,3.84,1.91,4.37,4.45,3.31,15.93,11.32,29.55,20.48,42.76,7.63,11.01,4.28,35.04-5.28,44.22-14.3,13.74-22.11,30.46-22.73,50.41-1.14,36.91,26.79,70.37,61.54,73.74.23.12.47.22.71.28,2.33.7,4.99-.64,7.18.97h6c2.2-1.58,4.83-.32,7.18-.93.27-.07.54-.16.8-.29,8.65-.55,16.55-3.6,23.89-7.88,4.12-2.4,11.64-4.22,7.7-11.07-3.7-6.44-8.76-1.03-12.78,1.17-21.83,11.97-48.51,9.78-68.11-5.78-18.99-15.07-27.55-40.54-20.81-63.75,7.12-24.49,23.57-39.96,48.56-44.3,24.62-4.28,45.6,4.02,60.25,24.64,14.74,20.77,15.57,43.03,3.78,65.62-2.01,3.85-5.03,8.01.33,10.86,5.11,2.71,7.43-1.71,9.59-5.55,14.85-26.41,11.82-60.81-9.02-82.77-7.49-7.89-11.43-16.08-13.34-26.32-1.81-9.63-.89-18.16,5.16-26.15,8.82-11.63,15.27-24.49,18.43-38.83.66-3.01,2.03-5.01,5.05-5.67,14.32-3.13,28.64-6.6,42.63,1.4,4.68,2.67,9.87,3.59,15.18,2.89,5.43-.72,10.77-2,16.2-2.72,13.22-1.77,22.44-8.84,28.21-20.71,1.41-2.9,2.6-5.96,4.37-8.63,6.19-9.33,6.98-19.16,2.29-29.1-2.12-4.48-1.52-7.6,1.15-11.49,5.67-8.25,10.3-17.07,10.94-27.4.14-.27.24-.55.31-.83.63-2.34-.63-4.98.94-7.19v-10.49ZM175.15,64.12c13.99-2.25,27.93-2.02,41.6,1.67,12.4,3.34,24.68,6.24,37.61,1.88-15.75,21.89-36.82,33.23-63.64,32.87-25.89-.34-46.15-11.71-61.29-32.99,15.99,6.45,30.65-1.01,45.72-3.43ZM124.32,155.65c-9.6-3.57-18.86-2.68-27.95-3.11-.06-7.17,3.08-10.06,10.09-9.15,2.88.37,5.94-.37,8.88-.83,8.86-1.38,8.85-1.43,8.97,7.73.02,1.48.01,2.95.01,5.36ZM83.14,150.93c-5.74,7.76-13.23,10.29-22.92,7.92-2.87-.7-5.84-1.18-8.79-1.42-10.11-.8-17.67-5.65-21.24-15.05-2.54-6.69-8.76-11.75-8.47-18.54-.22-15.71,13.48-26.44,27.74-22.87,2.63.66,5.35,1.02,8.06,1.28,10.88,1,18.64,6.15,22.65,16.58.97,2.53,2.29,4.95,3.72,7.26,5.46,8.82,5.27,16.71-.75,24.84ZM233.05,198.81c-14.18,21.49-14.06,21.57-10.29,45.83-13.68-3.61-19.82-21.17-11.31-32.8,2.34-3.21,5.31-5.96,7.99-8.91,10.98-12.07,17.1-26.16,17.62-42.56.34-10.7,2.89-20.59,11.12-30.3,1.64,25.59-1.62,48.25-15.13,68.74ZM259.74,155.51v-14.71c7.51,1.67,14.75,2.89,22.19,2.8,6.02-.08,3.84,5.69,6.27,9.01-9.95.26-19.22-.46-28.46,2.9ZM359.15,132.16c-1.69,2.72-3.48,5.47-4.65,8.44-4.31,10.92-12.14,16.55-23.9,16.9-2.2.06-4.41.69-6.57,1.23-10.21,2.55-17.73.02-23.55-7.99-5.97-8.22-6.05-15.77-.5-24.85,1.67-2.74,3.02-5.69,4.27-8.65,2.67-6.31,7.3-10.56,13.5-13.17,1.59-.67,3.33-1.04,5.03-1.32,6.12-.99,12.25-1.89,18.68-2.87,7.91.47,13.66,4.93,17.52,11.78,3.76,6.67,4.46,13.6.17,20.5ZM362.7,91.87c-3.72,5.84-6.12.49-9.02-.34-4.5-1.28-1.74-3.68-.53-5.51,8.43-12.65,10.99-26.04,5.14-40.45-5.49-13.53-16.26-20.67-30.13-22.82-13.35-2.06-23.76,3.75-31.64,14.42-7.78,10.53-11.46,23.16-17.56,34.56-1.36,2.55-.77,5.61,2.15,7.15,3.11,1.65,6.07.73,7.69-2.29,2.93-5.48,5.46-11.18,8.17-16.78,1.85-3.8,3.51-7.72,5.66-11.35,8.51-14.41,19.07-18.28,32.39-12.09,12.22,5.68,18.1,19.97,13.83,33.58-4.6,14.65-11.18,19.79-26.42,21.55-12.24,1.41-21.42,7.82-27.18,18.7-2.44,4.6-5.79,9.12-7.08,13.86-2.65,9.74-9.42,8.52-16.14,7.69-4.51-.56-10.37-.56-12.14-5.6-1.76-5.03-.17-10.09,4.2-14.13,3.27-3.02,5.8-6.85,8.59-10.36,2.46-3.08,3.32-6.43-.19-9.16-3.24-2.5-5.99-.85-8.37,1.91-8.47,9.84-17.13,19.52-25.46,29.47-7.93,9.46-12.19,20.44-12.45,32.9-.31,15.34-5.12,29.12-16.28,39.8-12.39,11.84-17.76,24.97-10.34,41.43-.97.31-1.43.59-1.9.59-4.23.03-8.45.02-13.39.02,1.36-5.32,3.31-10.03,3.3-15.24-.03-13.79-8.84-22.26-17.93-30.56-2.08-1.89-4.84-1.41-6.76.64-2.12,2.28-2.22,5.09-.25,7.48,2.68,3.28,5.83,6.17,8.52,9.44,9.82,12,4.6,29.81-10.37,34.66.7-6.52,3.16-12.7,2.45-19.24-.77-7.09-2.92-13.7-7.29-19.34-17.09-22.05-22.62-47.23-20.35-75.45,6.11,5.52,8.39,12.28,9.99,19.47,1.64,7.33.55,14.95,2.62,22.27,1.1,3.89,2.27,7.76,7.1,6.79,4.6-.93,5.32-4.52,3.94-8.78-.69-2.12-1.21-4.44-1.11-6.63,1.03-22.64-10.35-39.28-25.47-54.43-5.97-5.98-10.94-12.96-16.16-19.63-2.48-3.17-5.36-5.03-8.89-2.58-3.64,2.53-2.78,5.96-.28,9.09,4.49,5.67,8.86,11.44,13.48,17.01,6.68,8.07,4.76,14.77-5.1,17.53-4.68,1.3-9.42.7-14.15.91-1.72.08-2.91-.49-3.33-2.22-1.54-6.43-6.07-11.35-8.69-17.29-5.68-12.92-15.94-20.03-30.15-21.17-13.84-1.1-25.02-13.72-25.88-29.19-.78-14.04,8.47-25.45,22.74-28.08,8.46-1.56,15.06,1.55,20.49,7.93,6.61,7.76,9.44,17.47,13.92,26.33,1.95,3.85,3.76,8.55,9.24,5.67,4.83-2.54,2.8-6.61.97-10.37-3.39-6.92-6.13-14.21-9.99-20.85-11.67-20.06-29.76-25.7-48.76-15.67-17.86,9.43-24.94,32.04-15.96,51.12.96,2.03,2.54,3.8,3.2,5.89.78,2.47,6.54,4.51.13,7.97-4.71,2.55-6.72,2.91-9.65-2.14-10.81-18.63-12.22-37.5-.75-55.91,10.55-16.96,26.83-24.09,46.65-22.17,13.55,1.31,23.48,8.93,31.22,19.78,5.98,8.39,9.5,18.03,13.9,27.22,14.44,30.15,37.84,48.23,71.3,52.42,35.28,4.42,70.25-14.06,87.34-45.74,5.44-10.08,8.97-21.08,15.22-30.76,11.76-18.23,28.14-26.54,47.39-22.6,20.33,4.16,33.9,16.38,38.85,36.87,3.71,15.37.17,29.53-8.29,42.8Z"/>
      <path class="cls-1" d="M225.57,321.1c-2.98-3.35-8.8-6.75-8.55-9.74.3-3.67,5.75-6.8,8.7-10.39,5.58-6.79,5.23-16.42-.59-22.53-6.15-6.44-15.79-7.04-22.99-1.17-3.45,2.82-6.33,8.17-9.9,8.57-4.33.48-6.8-5.73-10.5-8.58-7.4-5.71-16.84-5.31-23.04,1.12-6.09,6.33-6.23,16.05-.2,23.08,2.88,3.36,8.45,6.62,8.32,9.75-.13,3.37-5.66,6.4-8.54,9.83-5.94,7.05-5.56,16.91.66,23.06,6.48,6.41,15.76,6.73,23,.65,3.4-2.86,6.39-8,9.95-8.37,3.86-.41,6.37,5.55,9.84,8.33,5.53,4.43,11.59,5.86,18.13,2.81,6.13-2.85,9.54-7.8,9.85-16.21.24-2.99-1.21-6.91-4.14-10.21ZM216.59,336.19c-2.63,2.38-5.56,1.81-8.03-.55-3.42-3.28-6.91-6.52-10.05-10.05-4.45-5-8.54-5.28-13.09-.13-2.96,3.36-6.33,6.36-9.5,9.54-1.45,1.45-2.97,2.69-5.19,2.54-4.51-.05-6.95-4.58-4.27-8.46,1.67-2.43,4.01-4.42,6.12-6.53q11.41-11.41-.22-23.03c-1.59-1.59-3.2-3.15-4.75-4.78-2.51-2.65-3.62-5.57-.6-8.49,2.93-2.85,5.9-1.9,8.53.65,3.57,3.48,7.19,6.93,10.58,10.58,3.87,4.15,7.5,4.3,11.43.13,3.07-3.28,6.36-6.34,9.49-9.56,2.79-2.89,5.9-5.32,9.59-1.93,3.76,3.47,1.52,6.7-1.37,9.57-3.54,3.51-7.07,7.03-10.59,10.57-3.24,3.26-3.18,6.56.03,9.8,3.86,3.9,7.81,7.71,11.64,11.64,2.63,2.7,3.26,5.78.25,8.49Z"/>
    </g>
  </g>
</svg>