<?xml version="1.0" encoding="UTF-8"?>
<svg id="Layer_2" data-name="Layer 2" xmlns="http://www.w3.org/2000/svg" viewBox="0 0 198.37 198.33">
  <defs>
    <style>
      .cls-1 {
        fill: #000;
        stroke-width: 0px;
      }
    </style>
  </defs>
  <g id="Layer_1-2" data-name="Layer 1">
    <path class="cls-1" d="M53.2,54.68c.5-2.5.95-4.85,1.44-7.19.52-2.49,1.13-4.97,1.62-7.47.41-2.1.64-4.23,1.05-6.32.46-2.39,1.09-4.75,1.51-7.15.1-.58-.26-1.34-.61-1.88-1.27-1.93-2.63-3.81-3.95-5.7-.77-1.1-.99-1.08-2.12-.3-1.32.91-2.67,1.81-4.44,1.53-1.73-.28-2.84-2.28-1.92-3.75.43-.68,1.08-1.31,1.77-1.73,3.42-2.08,6.86-4.1,10.6-5.6,3.19-1.27,6.3-2.75,9.5-3.98,1.74-.67,3.6-1.08,5.42-1.51,3.4-.81,6.81-1.58,10.23-2.33.7-.15,1.43-.13,2.14-.22,5.86-.73,11.73-1.33,17.63-.96,4.05.25,8.1.63,12.12,1.19,2.99.41,5.95,1.09,8.87,1.87,2.81.75,5.56,1.76,8.32,2.71,2.03.7,4.06,1.42,6.05,2.24,1.82.75,3.6,1.59,5.35,2.47,1.48.74,2.91,1.59,4.35,2.42,1.42.82,2.86,1.62,4.22,2.53,2.23,1.48,4.43,3,6.58,4.59,1.63,1.21,3.2,2.51,4.71,3.86,2.23,1.99,4.49,3.96,6.55,6.12,2.37,2.49,4.6,5.13,6.78,7.78,1.58,1.92,3.1,3.9,4.43,5.99,2.13,3.32,4.21,6.69,6.07,10.16,1.63,3.06,3.03,6.26,4.32,9.48,1.05,2.63,1.89,5.36,2.65,8.1.77,2.79,1.41,5.62,1.97,8.45.5,2.51.83,5.06,1.23,7.59,1.1,7.03.76,14.09.35,21.13-.18,3.13-.95,6.24-1.53,9.34-.44,2.4-.89,4.8-1.52,7.15-.73,2.68-1.61,5.31-2.53,7.93-.7,1.98-1.52,3.92-2.38,5.84-.86,1.93-1.83,3.81-2.78,5.69-.69,1.37-1.39,2.75-2.16,4.08-1.14,1.95-2.26,3.92-3.55,5.77-1.77,2.54-3.65,5.02-5.58,7.44-1.33,1.66-2.79,3.22-4.26,4.77-1.91,2.03-3.76,4.15-5.87,5.96-2.99,2.57-6.14,4.95-9.31,7.29-2.23,1.65-4.54,3.22-6.91,4.65-2.1,1.27-4.33,2.34-6.53,3.44-1.94.97-3.88,1.92-5.88,2.76-2.02.84-4.08,1.58-6.16,2.25-2.68.86-5.39,1.63-8.09,2.4-1.05.3-2.13.53-3.21.7-3.01.48-6.03.88-9.03,1.38-5.71.95-11.46.68-17.19.54-2.45-.06-4.91-.33-7.35-.65-2.94-.39-5.89-.77-8.77-1.46-3.13-.75-6.2-1.79-9.27-2.79-2.48-.81-4.98-1.6-7.35-2.68-3.99-1.82-7.99-3.67-11.78-5.87-3.37-1.95-6.47-4.36-9.66-6.61-3.73-2.63-7.15-5.64-10.27-8.97-2.36-2.52-4.67-5.09-6.88-7.74-2.03-2.43-4.02-4.92-5.8-7.54-1.56-2.3-2.83-4.81-4.16-7.26-1.36-2.5-2.71-5.02-3.93-7.59-.86-1.83-1.54-3.76-2.2-5.67-.85-2.43-1.61-4.89-2.39-7.35-.27-.85-.5-1.72-.7-2.6-.6-2.68-1.2-5.36-1.75-8.04-.14-.7-.12-1.43-.21-2.15-.59-5.23-1.25-10.45-1.03-15.73.12-2.75.22-5.51.5-8.24.28-2.71.72-5.41,1.19-8.1.39-2.29.79-4.59,1.42-6.82.78-2.75,1.79-5.44,2.73-8.14.69-1.98,1.36-3.98,2.17-5.92.82-1.95,1.78-3.84,2.72-5.74.7-1.42,1.4-2.84,2.21-4.2,1.22-2.05,2.48-4.08,3.81-6.05,1.46-2.16,2.91-4.35,4.55-6.37,2.28-2.81,4.65-5.57,7.15-8.19,2.13-2.24,4.46-4.3,6.8-6.33.81-.7,1.85-1.32,2.87-1.55,2.2-.49,4,1.68,3.03,3.88-.41.92-1.38,1.61-2.17,2.33-1.86,1.71-3.77,3.36-5.61,5.1-.18.17-.17.88.03,1.09,1.5,1.59,3.09,3.1,4.61,4.68,1.84,1.9,3.63,3.85,5.45,5.77,1.61,1.7,3.25,3.38,4.85,5.09,1.4,1.5,2.76,3.03,4.15,4.54.12.14.33.2.69.4ZM113.73,103.51c-.43,1.86-.83,3.46-1.17,5.07-.33,1.59-.55,3.2-.91,4.78-.5,2.21-1.09,4.4-1.61,6.6-.31,1.3-.42,2.66-.86,3.91-.62,1.76-.48,1.93,1.05,2.68.17.08.34.18.5.28,2.14,1.3,4.28,2.61,6.43,3.89,1.42.85,2.86,1.66,4.3,2.48,1.94,1.11,3.91,2.17,5.81,3.35,1.36.84,2.97,1.36,3.88,2.84.56.91.42,2.44-.33,3.3-.79.91-2.13,1.28-3.13.75-1.45-.77-2.85-1.63-4.28-2.44-2.31-1.32-4.62-2.63-6.92-3.96-1.71-.99-3.39-2.02-5.44-3.24.68,2.15,1.2,3.97,1.83,5.76.88,2.47,1.86,4.9,2.77,7.35.84,2.27,1.63,4.55,2.44,6.82.9,2.52,1.81,5.03,2.69,7.56.69,1.96,1.34,3.93,2.03,5.88.08.23.3.48.52.6,1.21.68,2.44,1.32,3.67,1.97.85.45,1.71.87,2.57,1.31,2.77,1.43,5.53,2.88,8.3,4.31,1.22.63,2.45,1.22,3.93,1.96-.35-2.28-.65-4.19-.92-6.11-.1-.71-.09-1.44-.22-2.14-.51-2.82-1.11-5.63-1.58-8.46-.56-3.43-1.02-6.89-1.53-10.33-.03-.19-.2-.35-.23-.54-.18-1.42-.75-2.92.36-4.18,1.17-1.33,2.43-2.58,3.7-3.82,1.45-1.41,2.97-2.75,4.42-4.17,1.57-1.55,3.03-3.22,4.67-4.69.62-.55.62-.93.31-1.5-.65-1.18-1.31-2.36-2-3.53-1.62-2.73-3.24-5.46-4.88-8.18-.43-.72-.81-1.64-1.47-2.02-2.1-1.19-4.32-2.18-6.51-3.22-2.03-.97-4.08-1.88-6.1-2.87-1.86-.91-3.68-1.91-5.53-2.84-2.29-1.15-4.59-2.28-6.89-3.42-1.18-.58-2.36-1.15-3.68-1.78ZM116.21,166.02c-.31-1.12-.48-1.97-.78-2.78-.9-2.42-1.88-4.81-2.75-7.23-.78-2.17-1.42-4.39-2.21-6.56-1.12-3.08-2.37-6.12-3.47-9.21-1.21-3.39-2.3-6.81-3.49-10.21-.14-.39-.5-.81-.87-1-2.3-1.16-4.64-2.23-6.94-3.39-4.36-2.21-8.71-4.45-13.17-6.74-.15.77-.24,1.4-.4,2.01-.53,2.04-1.11,4.07-1.63,6.12-.52,2.06-.96,4.13-1.47,6.19-.58,2.31-1.21,4.61-1.79,6.93-.31,1.26-.5,2.55-.84,3.8-.72,2.72-1.5,5.42-2.24,8.13-.43,1.59-.82,3.19-1.22,4.78-.18.73-.35,1.46-.51,2.14,1.13.25,2.08.49,3.05.66,2.41.42,4.83.81,7.24,1.19,4.14.65,8.27,1.3,12.41,1.91,2.19.32,4.4.54,6.6.84,3.21.45,6.41.94,9.62,1.42.19.03.37.14.56.18,1.41.27,2.82.54,4.29.82ZM27.21,91.69c.57-.43.98-.77,1.42-1.06,1.9-1.21,3.82-2.39,5.72-3.61,2.46-1.58,4.92-3.17,7.36-4.78.74-.49,1.44-.91,1.77-1.95.53-1.72,1.43-3.32,2.16-4.98.88-2.02,1.74-4.05,2.61-6.08.94-2.19,1.83-4.41,2.85-6.57.4-.85.34-1.43-.3-2.08-2.88-2.93-5.76-5.87-8.6-8.84-1.43-1.49-2.77-3.07-4.19-4.58-2.71-2.88-5.42-5.75-8.19-8.57-.28-.28-1.12-.41-1.4-.2-.59.43-1,1.13-1.46,1.73-1.06,1.41-2.11,2.82-3.16,4.24-.82,1.1-1.69,2.18-2.45,3.33-.82,1.25-1.32,2.78-2.33,3.83-1.65,1.72-1.12,3.57-.71,5.39.67,2.93,1.54,5.82,2.3,8.73.32,1.25.53,2.54.86,3.79.49,1.85,1.08,3.66,1.55,5.51.55,2.17.98,4.36,1.52,6.53.56,2.28,1.2,4.54,1.8,6.81.29,1.09.56,2.18.88,3.41ZM29.88,96.77c1.62,1.49,3.05,2.73,4.38,4.06,1.95,1.94,3.81,3.96,5.75,5.9,1.42,1.42,2.96,2.74,4.38,4.16,2.6,2.59,5.15,5.24,7.73,7.84.26.26.7.61.97.55,2.32-.56,4.62-1.18,6.92-1.83,3.18-.91,6.35-1.9,9.54-2.78,2.56-.71,5.15-1.33,7.9-2.04-.25-1.51-.52-2.86-.68-4.23-.5-4.14-.96-8.28-1.45-12.41-.14-1.2-.32-2.4-.48-3.56-2-.45-3.83-.88-5.67-1.26-2.2-.45-4.42-.84-6.62-1.29-3.03-.61-6.07-1.24-9.1-1.89-1.66-.35-3.29-.81-4.96-1.08-1.04-.17-2.22-.39-3.15-.05-1.22.44-2.25,1.4-3.37,2.14-1.34.89-2.67,1.8-4.03,2.67-2.61,1.67-5.24,3.32-8.07,5.1ZM90.26,53.83c-.38.45-.67.79-.95,1.14-2.27,2.81-4.53,5.64-6.82,8.43-1.27,1.54-1.44,2.26-.69,3.58.13.23.34.41.47.64,1.61,2.93,3.19,5.88,4.83,8.79,1.47,2.63,3.03,5.2,4.48,7.84,1.05,1.91,1.91,3.94,3.02,5.82.56.95,1.16,1.94,2.47,2.26,3.39.81,6.74,1.75,10.11,2.62,1.02.27,2.05.57,3.09.72.45.06,1.08-.11,1.39-.42,1.57-1.53,3.01-3.18,4.58-4.71,2.22-2.17,4.5-4.28,6.91-6.57-11.13-10.2-21.98-20.15-32.89-30.15ZM85.86,191.66c3.24.3,6.16.74,9.09.79,3.65.06,7.31-.23,10.97-.31,5.05-.11,10.01-.89,14.9-2.12,2.3-.58,4.59-1.22,6.87-1.89,1.49-.44,2.99-.9,4.43-1.48,2.31-.93,4.58-1.95,6.86-2.95.27-.12.48-.35.72-.53-.18-.22-.32-.51-.55-.64-1.12-.61-2.26-1.16-3.39-1.75-2.55-1.34-5.11-2.68-7.65-4.04-1.46-.77-2.89-1.61-4.36-2.35-1.45-.73-2.88-1.59-4.43-2-2.16-.58-4.41-.84-6.63-1.18-3.52-.53-7.05-1-10.58-1.52-.22-.03-.42-.21-.64-.28-1.31-.43-2.19-.07-2.74.93-.83,1.5-1.72,2.97-2.63,4.43-1.16,1.87-2.39,3.71-3.55,5.59-1.23,1.99-2.43,4-3.63,6.01-1,1.69-1.97,3.39-3.08,5.29ZM86.84,26.08c-7.56.62-14.91,1.21-22.25,1.81-.26,1.19-.46,2.15-.67,3.1-.54,2.44-1.12,4.87-1.6,7.32-.4,2.06-.63,4.16-1.03,6.22-.54,2.78-1.16,5.55-1.75,8.32-.15.69-.33,1.36-.47,2.05-.24,1.17-.45,2.35-.67,3.5,1.48.39,2.75.81,4.06,1.04,2.34.41,4.71.66,7.06,1.05.96.16,1.86.68,2.82.77,1.98.18,3.99,1.27,5.66-1.27,2.18-3.3,4.78-6.36,7.43-9.31,1.34-1.5,1.5-3.04,1.48-4.85-.06-6.07-.05-12.14-.06-18.21,0-.43,0-.86,0-1.54ZM18.22,145.95c.29-.2.4-.25.46-.33,1.33-1.91,2.61-3.86,3.98-5.74,2.15-2.97,4.41-5.86,6.5-8.86,1.07-1.53,2-2.99,3.99-3.61,2.15-.68,4.15-1.83,6.24-2.73,2.17-.93,4.37-1.78,6.53-2.72.63-.27.79-.75.09-1.2-.2-.13-.43-.23-.59-.4-1.92-1.95-3.81-3.92-5.75-5.85-1.43-1.42-2.94-2.74-4.36-4.16-1.92-1.92-3.77-3.91-5.68-5.83-1.22-1.23-2.5-2.41-3.78-3.65-.88,1.31-1.79,2.62-2.67,3.96-1.54,2.34-3.03,4.71-4.59,7.05-1.13,1.7-2.35,3.33-3.46,5.03-1.58,2.43-3.14,4.88-4.64,7.36-.35.58-.69,1.39-.56,2,.35,1.63.86,3.24,1.47,4.8.82,2.1,1.77,4.15,2.72,6.19,1.33,2.88,2.71,5.75,4.11,8.68ZM38.6,131.65c9.45,8.11,18.91,16.24,28.58,24.55,3.16-12.58,6.25-24.87,9.39-37.34-12.98,3.62-26.05,6.24-37.97,12.79ZM44.13,174.55c1.74,1.23,3.23,2.34,4.79,3.36,1.42.93,2.9,1.78,4.39,2.6,1.65.91,3.32,1.78,5.01,2.61,1.66.81,3.33,1.61,5.04,2.29,2.56,1,5.16,1.9,7.76,2.81,1.1.39,2.22.74,3.36,1.02,1.57.38,3.15.72,4.75.96.32.05.79-.38,1.07-.69.33-.37.51-.86.77-1.29.81-1.34,1.63-2.68,2.45-4.02.83-1.36,1.66-2.71,2.49-4.07.89-1.45,1.79-2.89,2.68-4.34.78-1.28,1.56-2.57,2.33-3.86.72-1.21,1.44-2.43,2.14-3.61-2.47-.48-4.78-.98-7.1-1.36-2.27-.37-4.56-.57-6.83-.9-2.53-.37-5.04-.91-7.58-1.19-1.36-.15-2.86-.22-4.11.22-2.82.98-5.5,2.33-8.27,3.47-3.24,1.33-6.5,2.58-9.75,3.87-1.7.67-3.4,1.35-5.36,2.13ZM38.93,170.39c8.16-3.28,16.21-6.52,24.42-9.82-9.97-8.56-19.89-17.09-29.89-25.68-3.92,5.49-7.79,10.92-11.69,16.37,4.89,7.22,10.58,13.63,17.16,19.12ZM131.5,50.65c.04.18.06.51.2.78,1.18,2.15,2.4,4.27,3.58,6.42,1.31,2.4,2.58,4.83,3.88,7.23,1.24,2.29,2.46,4.59,3.77,6.84.46.79,1.06,1.87,1.79,2.07,2.27.61,4.64.89,6.97,1.26,3.16.49,6.32.95,9.48,1.42,1.87.28,3.74.56,5.84.87-.29-.66-.47-1.08-.66-1.5-.49-1.08-.98-2.16-1.46-3.24-.78-1.78-1.53-3.57-2.34-5.33-.89-1.96-1.85-3.89-2.74-5.85-.74-1.63-1.38-3.3-2.13-4.92-1.16-2.52-2.38-5-3.56-7.51-.95-2.02-1.87-4.06-2.79-6.09-.78-1.72-1.6-3.43-2.3-5.19-.47-1.19-.81-1.35-1.8-.49-.72.63-1.38,1.32-2.12,1.92-3.05,2.53-6.11,5.03-9.17,7.55-1.44,1.19-2.87,2.41-4.47,3.77ZM127.79,80.22c3.14-1.55,6.27-3.15,9.46-4.62.78-.36.73-.74.47-1.27-.34-.7-.8-1.33-1.16-2.02-.98-1.87-1.91-3.78-2.92-5.64-1.34-2.46-2.79-4.86-4.13-7.31-1.38-2.53-2.65-5.11-4.02-7.64-1.52-2.8-3.19-5.53-4.63-8.38-.52-1.03-1.13-.8-1.82-.57-2.43.8-4.85,1.67-7.27,2.49-1.39.47-2.8.89-4.2,1.36-.88.29-1.75.63-2.62.93-2.53.87-5.07,1.74-7.6,2.61-.54.19-1.07.4-1.6.6.33.37.63.77.99,1.11,2.65,2.52,5.27,5.06,7.97,7.52,2.32,2.11,4.78,4.06,7.1,6.19,2.72,2.5,5.3,5.14,8.02,7.64,2.57,2.37,5.25,4.62,7.96,7ZM115.2,7.42c-2.25-.4-4.21-.81-6.2-1.08-.41-.06-1.01.29-1.32.64-2.07,2.36-4.04,4.8-6.11,7.16-2.74,3.1-5.56,6.14-8.3,9.24-.36.41-.65,1.05-.65,1.58-.03,6.47,0,12.94,0,19.42,0,.84.31,1.08,1.09.83,2.23-.71,4.49-1.36,6.7-2.12,3.27-1.12,6.5-2.35,9.77-3.48,2.8-.96,5.62-1.85,8.49-2.79-.3-1.8-.65-3.54-.88-5.29-.44-3.42-.85-6.85-1.22-10.27-.34-3.12-.6-6.25-.9-9.38-.15-1.49-.32-2.98-.47-4.46ZM154.45,23.99c-10.13-7.35-21.05-12.49-33.43-15.49.5,3.64,1,6.95,1.41,10.28.47,3.85.88,7.71,1.3,11.57.27,2.48.5,4.97.77,7.46.03.31.15.63.29.9,1,1.87,1.98,3.74,3.05,5.57.27.46.62,1.41,1.46.7,2.85-2.37,5.65-4.8,8.49-7.19,2.23-1.88,4.46-3.76,6.7-5.62,3.22-2.66,6.46-5.3,9.96-8.18ZM170.06,107.72c0-.63,0-1.02,0-1.41-.09-3.71-.16-7.43-.3-11.14-.13-3.54-.31-7.08-.54-10.61-.02-.31-.47-.79-.8-.86-1.31-.3-2.64-.48-3.97-.7-2.37-.39-4.73-.8-7.11-1.18-3.04-.48-6.09-.94-9.14-1.39-.92-.14-1.85-.23-3-.37.17,1.27.41,2.51.49,3.76.29,4.61.53,9.23.8,13.84.26,4.65.53,9.3.8,13.95,0,.07.08.13.24.41,1.06-.23,2.2-.47,3.35-.71,2.65-.56,5.29-1.17,7.96-1.66,3.68-.68,7.38-1.27,11.21-1.92ZM154.45,137.19c-.53.46-1.01.84-1.45,1.27-1.95,1.91-3.88,3.84-5.83,5.75-1.33,1.3-2.71,2.55-4.02,3.86-.18.18-.22.6-.17.88.51,2.74,1.06,5.48,1.57,8.22.42,2.29.83,4.57,1.18,6.87.53,3.44.99,6.88,1.52,10.32.22,1.43.53,2.85.83,4.44,1.64-1.09,3.23-2.07,4.73-3.15,1.64-1.18,3.26-2.41,4.81-3.71,2.4-2,4.82-4.01,7.09-6.15,1.68-1.58,3.14-3.41,4.73-5.09.58-.62.71-1.24.25-1.92-.46-.69-1.03-1.32-1.52-1.99-1.49-2.04-2.98-4.06-4.43-6.13-1.85-2.64-3.67-5.31-5.5-7.97-1.26-1.82-2.51-3.64-3.8-5.51ZM172.46,75.37c1.71-2.5,3.29-4.8,4.86-7.1,1.88-2.76,3.77-5.51,5.59-8.31.26-.4.34-1.11.19-1.57-.36-1.05-.83-2.08-1.4-3.02-1.51-2.5-3.04-5-4.68-7.41-1.59-2.34-3.27-4.63-5.02-6.86-1.71-2.17-3.45-4.33-5.36-6.32-2.41-2.51-5.01-4.83-7.47-7.18-2.22,1.85-4.23,3.54-6.15,5.14,6.52,14.31,12.97,28.45,19.44,42.65ZM160.25,135.8c1.99-.95,3.58-1.7,5.15-2.48,2.25-1.11,4.48-2.25,6.73-3.36,1.59-.78,3.2-1.53,4.81-2.28,1.6-.74,3.23-1.44,4.82-2.21,1.96-.94,3.91-1.9,5.83-2.91.82-.43,1.81-.82,2.3-1.53.5-.72.53-1.79.71-2.71.4-2.05.8-4.1,1.13-6.16.14-.88.11-1.8.16-2.78-.92.11-1.68.14-2.41.29-2.46.5-4.9,1.07-7.36,1.56-1.58.32-3.19.52-4.77.83-2.65.52-5.28,1.12-7.93,1.62-2.02.38-4.07.62-6.08,1.01-2.42.47-4.81,1.08-7.22,1.56-2.17.44-4.36.8-6.92,1.27,3.81,6.3,7.45,12.31,11.05,18.26ZM49.34,81.39c1.51.19,2.59.26,3.64.48,2.42.5,4.81,1.1,7.22,1.59,2.62.54,5.26.97,7.89,1.5,2.96.59,5.91,1.21,8.85,1.86,1.38.3,2.73.72,4.09,1.07,2.11.55,4.22,1.1,6.46,1.69-.06-.37-.04-.54-.11-.67-1.17-2.13-2.34-4.27-3.53-6.39-1.09-1.95-2.24-3.86-3.31-5.83-1.43-2.63-2.76-5.32-4.23-7.93-.32-.58-1-1.18-1.62-1.32-3.3-.72-6.62-1.34-9.95-1.92-2.67-.47-5.37-.82-8.1-1.24-2.43,5.7-4.83,11.31-7.31,17.1ZM186.39,65.59c-.12,0-.23-.01-.35-.02-.81,1.29-1.6,2.61-2.45,3.87-2.35,3.48-4.7,6.95-7.1,10.39-1.02,1.47-1.78,2.9-1.52,4.82.3,2.2.35,4.44.45,6.66.22,4.58.4,9.16.6,13.74.02.45.07.9.11,1.35,2.18-.34,4.17-.61,6.15-.98,3.02-.57,6.02-1.26,9.05-1.78.92-.16,1.24-.5,1.2-1.38-.15-3.18-.19-6.36-.41-9.53-.23-3.25-.62-6.48-.95-9.72-.05-.51-.06-1.04-.19-1.54-.67-2.62-1.32-5.24-2.07-7.83-.78-2.7-1.68-5.37-2.52-8.06ZM7.6,117.32c.14,0,.28.02.43.02.71-1.15,1.37-2.34,2.13-3.46,1.94-2.86,3.95-5.68,5.87-8.55,2.02-3.02,3.99-6.09,5.93-9.16.23-.37.32-.97.2-1.39-.62-2.25-1.37-4.47-1.98-6.73-.55-2.04-.94-4.12-1.46-6.16-.76-3-1.61-5.97-2.35-8.98-.8-3.24-1.49-6.5-2.26-9.75-.08-.33-.35-.61-.66-1.13-.91,2.68-1.73,5-2.49,7.32-.94,2.88-1.99,5.74-2.72,8.68-.68,2.76-1.1,5.59-1.45,8.41-.37,2.95-.63,5.93-.74,8.9-.25,6.61-.03,13.2,1.26,19.71.15.74.2,1.51.3,2.26ZM81.06,93.9c0,.46-.05.86,0,1.24.35,2.58.77,5.16,1.09,7.74.32,2.64.55,5.28.84,7.93.13,1.18.37,2.3,1.64,2.84,1.14.49,2.29.97,3.4,1.52,4.03,2.02,8.04,4.09,12.06,6.11,1.09.55,2.23,1.01,3.42,1.54.39-2.16.69-4.16,1.11-6.13.48-2.21,1.07-4.4,1.62-6.6.37-1.48.77-2.95,1.09-4.45.3-1.44.52-2.9.77-4.39-9.02-2.46-17.94-4.89-27.04-7.37ZM100.66,6.06c-5.94-.24-11.59.16-17.19,1.26-3.25.63-6.48,1.35-9.7,2.07-1.07.24-2.13.55-3.16.92-1.77.64-3.53,1.32-5.27,2.03-2,.82-3.96,1.74-5.96,2.55-.75.3-.48.73-.23,1.11,1.06,1.63,2.09,3.29,3.27,4.84.63.83,1.28,1.74,2.71,1.44,1.97-.42,3.98-.66,5.99-.84,3.53-.32,7.07-.53,10.6-.8,2.1-.16,4.19-.34,6.29-.54.25-.02.54-.16.7-.34,1.71-1.9,3.39-3.83,5.1-5.74,1.5-1.67,3.05-3.3,4.53-4.99.79-.9,1.49-1.89,2.33-2.98ZM139.47,81.13c-2.46,1.11-4.89,2.1-7.22,3.29-1.58.8-3.14,1.74-4.49,2.87-1.54,1.29-2.82,2.9-4.26,4.32-2.3,2.26-4.64,4.48-7.02,6.76,8.37,4.11,16.61,8.15,25.14,12.34-.21-1.71-.46-3.14-.56-4.59-.28-4.09-.5-8.18-.75-12.28-.24-3.93-.48-7.86-.72-11.79-.02-.3-.08-.6-.13-.93ZM187.66,128.99c-8.16,3.95-15.98,7.73-23.81,11.52,3.39,4.83,6.75,9.61,10.2,14.52,5.91-8.05,10.47-16.53,13.61-26.04Z"/>
    <path class="cls-1" d="M48.37,38.41c-2.25-.04-3.39-2.08-2.45-4.26.47-1.1.88-2.24,1.21-3.4.49-1.73,2.04-2.79,3.79-2.47,1.41.26,2.48,2.32,1.96,3.67-.53,1.37-.99,2.77-1.43,4.17-.4,1.25-1.49,2.51-3.07,2.29Z"/>
    <path class="cls-1" d="M134.09,125.16c-.56.79-.96,1.96-1.72,2.27-.92.38-2.29.37-3.19-.06-2-.94-3.83-2.24-5.73-3.39-1.51-.9-1.8-2.28-.83-4.1.53-.99,2.67-1.5,3.75-.87,1.99,1.16,3.98,2.32,5.95,3.52.88.54,1.56,1.27,1.77,2.62Z"/>
    <path class="cls-1" d="M131.41,157.28c0,1.79-1.23,2.93-2.61,3.11-1.54.2-2.79-.82-3.11-2.37-.17-.84-.39-1.67-.61-2.5-.37-1.34.6-3.16,1.97-3.65,1.12-.4,3.17.64,3.57,1.93.37,1.2.57,2.44.8,3.47Z"/>
    <path class="cls-1" d="M92.27,147.76c-1.4,0-2.73-1.15-2.91-2.54-.27-2.08-.55-4.16-.76-6.25-.2-1.98.65-3.1,2.37-3.26,1.77-.16,3.12.45,3.36,2.71.22,2.08.54,4.15.83,6.23.16,1.18-1.2,3.37-2.89,3.11Z"/>
    <path class="cls-1" d="M36.53,65.26c0,1.28.04,2.56,0,3.83-.06,1.65-.84,2.49-2.35,2.61-1.79.14-2.74-.5-3.06-2.18-.21-1.12-.3-2.27-.44-3.41-.13-1.06-.2-2.13-.39-3.18-.37-2.09.72-3.58,2.62-4.26,1.11-.4,3.16,1.22,3.29,2.52.01.12.02.24.02.36.07,1.24.14,2.47.21,3.71.03,0,.07,0,.1,0Z"/>
    <path class="cls-1" d="M52.48,99.07c.75.29,1.51.55,2.25.87,1.33.59,2.62,1.27,3.97,1.81,1.18.48,1.22,1.6,1.23,2.46,0,1.5-.89,2.59-2.05,2.62-.97.03-1.99-.22-2.91-.56-1.29-.47-2.53-1.11-3.77-1.72-1.55-.76-1.98-1.74-1.59-3.41.3-1.29,1.24-1.92,2.88-2.08Z"/>
    <path class="cls-1" d="M101.61,82.42c-1.3.08-2.05-1.2-2.98-2.19-1.2-1.27-2.37-2.56-3.58-3.82-1.07-1.1-1.09-2.43-.71-3.74.34-1.2,1.65-1.47,2.57-1.5.82-.02,1.81.64,2.47,1.27,1.63,1.59,3.14,3.3,4.63,5.02.95,1.1.99,2.4.36,3.69-.48.98-1.38,1.28-2.75,1.28Z"/>
    <path class="cls-1" d="M111.72,178.11c2.28-.14,3.84,1.14,3.84,2.81,0,1.05-1.12,2.58-2.14,2.77-1.63.31-3.26.56-4.91.77-1.69.21-2.82-.57-3.38-2.32-.27-.87.68-2.97,2.18-3.28,1.59-.32,3.19-.54,4.4-.75Z"/>
    <path class="cls-1" d="M69.76,45.66c.3-.85.77-2.21,1.26-3.56.41-1.13.92-2.24,1.27-3.39.49-1.63,1.53-2.42,3.18-2.37,1.53.04,2.39,1.23,2.74,2.7.12.5-.21,1.14-.41,1.68-.79,2.11-1.64,4.2-2.41,6.32-.43,1.17-2.07,2.54-3.03,2.28-1.32-.35-2.77-1.35-2.6-3.66Z"/>
    <path class="cls-1" d="M21.6,122c.31-.78.56-1.59.94-2.34.6-1.16,1.22-2.33,1.96-3.41.69-1.02,1.79-1.45,2.98-1.13.9.24,1.67.65,2.09,1.73.45,1.14.09,2-.35,2.88-.71,1.39-1.49,2.77-2.37,4.06-.64.94-1.94,1.51-3.64.82-1.11-.45-1.5-1.41-1.6-2.62Z"/>
    <path class="cls-1" d="M76.02,178.58c-.01,1.63-1.1,2.79-2.75,3.07-.9.16-2.52-1.01-2.88-2.06-.47-1.36-.93-2.73-1.44-4.08-.51-1.33.35-3.24,1.7-3.67,1.3-.42,2.87.05,3.43,1.25.74,1.58,1.29,3.25,1.9,4.89.08.21.04.47.05.59Z"/>
    <path class="cls-1" d="M43.83,156.11c.02,1.59-1.49,2.98-3.12,2.76-1.96-.27-3.9-.6-5.84-.97-1.21-.23-2.45-1.98-2.17-2.99.67-2.39,2.07-2.89,4-2.59,1.24.2,2.46.49,3.71.67,1.8.27,3.41,1.69,3.43,3.11Z"/>
    <path class="cls-1" d="M143.31,55.83c-.11-2.17,1.2-3.05,2.71-3.44.92-.24,2.58,1.24,2.97,2.37.8,2.31,1.62,4.61,2.5,6.89.67,1.75-.18,3.83-1.9,4.27-1.36.35-3.17-.47-3.69-2.35-.63-2.27-1.59-4.44-2.38-6.67-.16-.44-.19-.93-.22-1.07Z"/>
    <path class="cls-1" d="M120.75,65.25c-1.46.21-2.08-1.11-2.93-1.91-1.31-1.21-2.43-2.62-3.63-3.95-1.12-1.23-1.48-3.1-.75-4.06,1.68-2.22,3.54-1.61,5.22.1,1.52,1.54,2.85,3.27,4.3,4.89.81.91,1.16,2.25.7,3.23-.43.93-1.79,1.89-2.91,1.69Z"/>
    <path class="cls-1" d="M100.5,31.92c.48-1.13.9-2.28,1.44-3.38.78-1.59,1.61-3.16,2.47-4.7.67-1.2,3.55-1.12,4.38-.04,1.18,1.54.57,2.96-.11,4.36-.89,1.83-1.91,3.6-2.84,5.41-.59,1.15-1.69,1.5-2.74,1.29-1.5-.3-2.62-1.78-2.59-2.93Z"/>
    <path class="cls-1" d="M132.18,19.9c1.33-.11,2.1.45,2.62,1.6.66,1.46,1.49,2.85,2.22,4.28.66,1.31-.19,3.43-1.6,4.07-1.27.57-3.25-.41-3.88-1.84-.5-1.12-1.3-2.14-1.61-3.31-.3-1.13-.41-2.44-.13-3.56.25-.98,1.33-1.42,2.38-1.25Z"/>
    <path class="cls-1" d="M154.98,102.22c-1.66-.24-2.58-.82-3.09-2.28-.47-1.36.43-2.29,1.24-3.18,1.22-1.34,2.48-2.64,3.69-3.99.84-.94,2.84-1.52,3.98-1.05.96.39,1.75,1.79,1.51,3.04-.13.67-.5,1.38-.97,1.89-1.39,1.52-2.84,3-4.35,4.41-.55.52-1.34.79-2.02,1.17Z"/>
    <path class="cls-1" d="M154.86,161.71c-1.29.01-2.5-.81-3.03-2.14-.67-1.67-1.3-3.36-1.92-5.06-.43-1.17.36-3.04,1.54-3.44,1.67-.57,3.14-.38,3.87,1.17.91,1.93,1.68,3.94,2.4,5.96.55,1.54-1.36,3.72-2.86,3.5Z"/>
    <path class="cls-1" d="M175.53,56.39c-.02,1.76-1.06,3.05-2.24,3.26-1.48.26-2.79-.45-3.36-1.7-.87-1.92-1.79-3.83-2.74-5.72-.63-1.25-.23-2.7,1.09-3.65.87-.63,2.86-.4,3.51.5.6.82,1.15,1.71,1.59,2.63.82,1.67,1.55,3.38,2.13,4.68Z"/>
    <path class="cls-1" d="M167.46,126.48c-1.97-.07-2.64-.94-3.13-2.55-.29-.96.7-2.63,1.88-3.03,2.29-.79,4.58-1.61,6.94-2.12,2.76-.59,4.06,1.02,3.63,3.39-.25,1.37-1.32,1.89-2.49,2.28-1.89.62-3.77,1.25-5.66,1.84-.41.13-.86.14-1.16.19Z"/>
    <path class="cls-1" d="M69.81,78.82c-2.26-.46-4.54-.89-6.79-1.41-1.28-.29-1.66-1.65-1.57-2.8.1-1.29.93-2.42,2.08-2.39,1.93.04,3.86.29,5.78.52.69.08,1.37.31,2.03.54,1.31.45,1.76,2.18,1.53,3.13-.34,1.42-1.49,2.25-3.05,2.42Z"/>
    <path class="cls-1" d="M180.04,87.1c-.17-1.47.44-2.48,1.72-3.17,1.04-.56,2.09-.38,2.84.31.66.61,1.22,1.55,1.4,2.44.39,1.93.52,3.92.75,5.89.19,1.59-.53,2.85-2.04,3.53-.96.43-2.69-.09-3.21-1.14-.47-.96-.67-2.08-.85-3.15-.27-1.56-.41-3.13-.61-4.7Z"/>
    <path class="cls-1" d="M9.79,94.61c.06-1,.1-2,.19-2.99.14-1.58,1.75-3.1,3.11-2.82,1.82.38,2.8,1.56,2.6,3.71-.1,1.11-.04,2.24-.16,3.35-.09.85-.27,1.7-.56,2.5-.35.96-1.5,1.34-3.09,1.14-1.07-.13-1.9-.66-2.02-1.79-.11-1.03-.02-2.07-.02-3.11-.02,0-.03,0-.05,0Z"/>
    <path class="cls-1" d="M98.33,108.91c-.1,1.37-.83,2.33-1.8,2.75-1.03.45-2.2.51-3.19-.64-1.01-1.18-2.32-2.09-3.48-3.14-.8-.71-1.31-1.56-1-2.68.42-1.49,1.6-2.15,2.97-2.41.48-.09,1.15.27,1.57.62,1.35,1.11,2.69,2.26,3.91,3.51.5.51.68,1.32,1.01,1.99Z"/>
  </g>
</svg>