<?xml version="1.0" encoding="UTF-8"?>
<svg id="Layer_2" data-name="Layer 2" xmlns="http://www.w3.org/2000/svg" viewBox="0 0 357.92 323.1">
  <defs>
    <style>
      .cls-1 {
        fill: #000;
        stroke-width: 0px;
      }
    </style>
  </defs>
  <g id="Layer_1-2" data-name="Layer 1">
    <path class="cls-1" d="M240.94,88.6c0,6.43.16,12.39-.03,18.34-.74,23.25-6.6,45.15-17.51,65.71-.61,1.15-.92,3.36-.27,4.16,10.4,12.58,14.41,27.49,16.21,43.25,2.54,22.23-2.06,42.97-12.86,62.48-3.38,6.12-6.25,12.52-9.64,18.64-.63,1.14-2.59,1.54-3.93,2.28-.3-1.53-1.3-3.38-.77-4.53,3.03-6.57,6.25-13.08,9.74-19.43,12.97-23.59,15.92-48.41,9.17-74.37-2.57-9.89-6.53-19.2-14.09-26.47-2.22-2.13-1.21-3.99-.05-6.02,8.18-14.23,13.65-29.45,16.41-45.61,4.52-26.41,2.09-52.27-6.36-77.63-.71-2.14-3.05-5.14.52-6.43,3.75-1.36,3.99,2.55,4.73,4.77,1.66,4.97,2.81,10.11,4.45,15.09.49,1.49,1.61,3.13,2.92,3.93,13.04,7.99,25.76,16.33,35.92,28.03.77.89,2.87.91,4.33.85,2.48-.09,5.56.22,7.22-1.1,1.45-1.16,1.27-4.34,1.87-6.61,1.71-6.4,1.71-6.31,8.35-6.01,6.93.31,13.76-.26,20.09-3.46,5.87-2.97,8.33-7.52,7.77-14.08-1.14-13.17-11.05-22.04-25.44-22.65-8.82-.38-17.12,1.77-24.99,5.62-8.21,4.01-16.73,6.55-25.96,6.24-.87-.03-1.75-.05-2.62-.12-1.97-.16-3.99-.5-3.87-3.05.12-2.56,2.13-2.47,4.11-2.65,5.93-.55,11.92-.94,17.73-2.17,3.84-.81,7.4-2.94,11.08-4.52,10.35-4.43,21.01-6.45,32.18-3.85,13.17,3.06,21.95,13.13,23.32,26.57.87,8.51-2.96,16.46-10.93,19.48-6.06,2.3-12.75,3.33-19.25,4.02-6.45.68-6.71.4-6.86,7.55,18.24,3.36,34.18,9.37,35.32,32.94,2.41.07,5.46.53,8.41.17,4.54-.56,4.9-2.53,3.64-6.9-1.06-3.68-1.5-8-.64-11.67,1.59-6.77,4.25-13.3,6.6-19.88,4.5-12.61,7.13-25.44,2.5-38.48-5.94-16.73-15.77-30.43-32.87-37.36-10.65-4.31-21.28-3.63-31.55,1.61-5.23,2.67-10.35,5.57-15.68,8.02-18.54,8.51-36.38,7.31-53.33-4.3-8.62-5.9-17.54-10.94-28.09-12.7-12.59-2.1-24.38-.03-35.54,5.86-4.08,2.15-7.94,4.74-11.79,7.3-16.19,10.75-33.21,12.25-50.99,4.54-5.15-2.23-10.1-4.93-15.07-7.56-16.92-8.95-35-6.92-48.68,6.57C3.93,44.65,1.34,65.57,10.45,89.94c2.75,7.34,5.14,14.87,6.88,22.5.68,2.98-.38,6.69-1.58,9.69-1.2,3-.13,4.69,2.2,5.18,3.5.74,7.18.63,11.11.91-1.64-11.35,3.3-18.63,10.85-24.55,5.63-4.41,12.19-6.72,19.23-7.81,5.93-.91,5.92-.96,4.97-7.27-4.15-.33-8.42-.28-12.52-1.1-4.62-.92-9.31-2.11-13.56-4.08-8.66-4.02-12.46-11.81-11.12-21.26,2.34-16.57,16.86-27.22,35.15-26,8.9.6,17.07,3.41,25.04,7.19,10.57,5.01,21.56,6.12,32.85,2.77,2.5-.74,4.81-2.1,7.3-2.9,1.04-.34,2.68-.4,3.38.2.69.59,1.03,2.36.67,3.28-4.49,11.64-6.59,23.81-8.42,36.06-.18,1.22-1.37,2.69-2.49,3.32-8.85,4.96-16.15,11.75-22.88,19.19-.84.93-1.47,2.72-1.2,3.88,2.2,9.62-.79,17.63-7.68,24.16-10.71,10.15-23.89,11.72-37.79,9.92-7.02-.91-13.11-3.84-17.97-9.21-.67-.74-2.28-.82-3.46-.85-4.19-.12-8.58.68-12.54-.29-6.72-1.65-8.43-7.34-5.8-13.66,1.14-2.75,1.16-6.47.39-9.4-1.6-6.14-3.99-12.08-6.19-18.05-6.28-17.07-7.93-34.15.7-50.89C14.08,25.05,25.11,12.1,43.06,7.03c10.78-3.04,21.27-2.03,31.31,3.12,5.89,3.02,11.72,6.2,17.76,8.89,15.33,6.82,30.16,5.63,44.27-3.48,8.4-5.43,16.65-11.01,26.59-13.51,18.17-4.58,34.88-1.36,50.47,8.69,2.84,1.83,5.63,3.73,8.51,5.49,13.41,8.22,27.46,9.42,41.95,3.34,5.63-2.36,11.2-5.02,16.47-8.11,16.97-9.93,37.84-7.75,53.83,6.55,12.81,11.46,20.79,25.84,23.36,42.92,1.28,8.47-1.28,16.62-3.5,24.67-1.26,4.56-3.34,8.88-4.83,13.38-1.45,4.38-2.95,8.78-3.8,13.3-.43,2.28-.27,5.4.99,7.14,3.74,5.16-.22,11.99-4.87,13.02-4.25.94-8.81.82-13.21.62-1.89-.08-2.99,0-4.49,1.38-2.63,2.41-5.52,5.01-8.78,6.19-15.36,5.56-30.39,4.81-43.78-5.21-8.69-6.5-12.99-15.37-10.12-26.64.19-.73.16-1.86-.27-2.35-5.87-6.61-12.1-12.84-19.98-17.83ZM123.92,50.71c-16.42,5.78-30.88,1.69-45.46-4.9-6.26-2.83-13.79-3.78-20.76-3.87-13-.17-22.22,7.37-24.83,18.7-2.06,8.95.73,14.77,9.06,18.57,7.35,3.36,15.16,3.95,23.11,3.49,4.21-.24,4.79.23,4.89,4.47.06,2.57.01,5.14.01,7.72,3.06.33,5.66.74,8.27.83.95.03,2.24-.43,2.84-1.13,10.29-11.93,23.28-20.33,36.61-28.32,1.19-.71,2.51-1.86,2.92-3.09,1.25-3.77,2.09-7.68,3.34-12.48ZM288.12,99.99l-.2.55c-2.97.33-6,.4-8.9,1.05-13.67,3.04-17.49,14.44-8.62,25.39,3.65,4.51,8.31,7.5,13.81,9.23,6.92,2.18,14.02,2.76,21.1,1.45,3.73-.69,7.57-1.93,10.82-3.84,7.4-4.36,8.78-11.78,4.06-18.95-3.34-5.07-7.82-8.94-13.6-10.67-6.04-1.81-12.31-2.84-18.48-4.21ZM58.68,139.22c.09-.26.18-.52.27-.77,2.61-.24,5.24-.32,7.82-.76,10.24-1.72,18.86-5.97,23.28-16.05,3.88-8.86.57-16.49-8.69-19.16-12.42-3.58-24.53-2.06-35.77,4.31-3.04,1.73-5.73,4.49-7.87,7.33-5.78,7.68-4.02,16.2,4.64,20.33,5.05,2.41,10.85,3.23,16.32,4.76ZM91.65,101.57c8.41-6.67,16.39-12.97,24.31-19.34.69-.55,1.23-1.54,1.42-2.42.48-2.29.73-4.63,1.16-7.56-12.21,7.28-23.42,14.89-32.69,25.3,2.39,1.66,4.42,3.06,5.8,4.03ZM239.27,73.58c.75,3.18-.65,6.57,2.73,9.19,6.99,5.4,13.65,11.23,20.34,17,.88.76,1.15,2.2,1.71,3.33.4-.38.8-.76,1.2-1.13,1.76-1.32,3.51-2.63,5.48-4.1-9.04-10.26-19.88-17.64-31.46-24.28Z"/>
    <path class="cls-1" d="M164.99,173.2c0-4.5.11-9-.03-13.5-.14-4.69-1.92-8.76-4.02-13.02-2.76-5.59-4.59-11.87-5.6-18.05-1.95-11.89.35-23.63,2.45-35.36,1.14-6.37,1.67-12.87,1.99-19.34.31-6.25-1.63-12.08-4.69-17.53-1.04-1.85-2.14-3.68-2.98-5.63-3.56-8.23-.91-15.14,7.56-18.07,12.28-4.25,24.88-4.22,37.21-.3,10.14,3.23,12.87,11.48,6.87,21.26-5.81,9.49-7.44,19.47-5.8,30.21.83,5.43,1.82,10.84,2.8,16.24,2.31,12.67,3.07,25.32-.47,37.89-.77,2.74-1.63,5.68-3.29,7.91-3.84,5.15-5,10.98-4.72,17,.65,14.35,1.58,28.7,2.8,43.02.23,2.69,2.34,5.22,3.58,7.82,2.34-1.47,4.7-2.92,7.01-4.44.61-.4,1.04-1.08,1.58-1.59,7.13-6.77,16.11-4.55,17.69,5.12,1.17,7.13,1.03,14.77-.09,21.94-3.63,23.07-11.23,44.8-24.36,64.32-1.78,2.65-4.2,4.96-6.66,7.02-.72.61-2.6-.15-3.95-.28.15-1.23-.17-2.95.52-3.6,9.04-8.48,13.8-19.52,18.33-30.64,6.69-16.4,11.68-33.26,11.78-51.18.01-2.57-.43-5.28-1.33-7.68-1.5-4.02-3.94-4.51-7.2-1.74-2,1.69-3.71,3.74-5.75,5.37-6.57,5.26-12.83,3.56-15.43-4.45-1.18-3.63-1.68-7.56-1.96-11.39-.87-11.84-1.66-23.69-2.13-35.55-.3-7.81,1.13-15.07,5.57-22.08,5.24-8.27,5.39-18.17,4.6-27.69-.73-8.7-2.28-17.34-3.73-25.96-2.3-13.71-1.66-26.77,6.15-39,4.14-6.47,2.15-11.07-5.19-13.05-10.45-2.82-21.06-2.84-31.47.2-6.59,1.92-8.73,6.38-4.97,12.05,9.72,14.66,8.73,30.3,5.45,46.3-2.68,13.08-4.42,26.19-1.03,39.36.95,3.67,3.18,7,4.53,10.59,1.42,3.81,3.6,7.79,3.51,11.64-.37,16.59-1.46,33.17-2.29,49.75,0,.12-.05.24-.08.37-1.12,4.78-2,9.94-7.58,11.55-5.23,1.51-8.75-2-11.98-5.35-2.37-2.45-4.54-2.22-6.87-.24-3.32,2.83-4.64,6.68-4.12,10.78,1.02,8.15,2.06,16.35,3.9,24.35,3.11,13.43,7.76,26.41,14.41,38.51,2.85,5.19,6.92,9.7,10.24,14.66.74,1.1.63,2.77.92,4.18-1.45,0-3.52.61-4.25-.12-2.9-2.88-5.9-5.88-7.93-9.38-12.68-21.78-20.69-45.14-22.8-70.36-.48-5.79.71-11.22,4.78-15.68,4.99-5.45,10.6-5.45,15.94-.39,1.71,1.62,4.08,2.55,6.15,3.8,1.21-2.2,3.23-4.31,3.5-6.62,1.3-11.29,2.14-22.64,3.14-33.96-.07,0-.14-.01-.22-.02Z"/>
    <path class="cls-1" d="M270.27,196.97c-2.75,0-4.93.31-6.94-.12-1.14-.24-2.01-1.71-3-2.63,1.01-.88,1.99-2.44,3.05-2.51,4.57-.28,9.18-.12,14-.12v-19.93c-2.51,0-5.01.29-7.39-.12-1.26-.22-2.3-1.66-3.44-2.55,1.1-.94,2.19-2.67,3.31-2.69,11.24-.2,22.49-.19,33.73,0,1.05.02,2.08,1.63,3.12,2.5-1.07.95-2.01,2.39-3.25,2.73-1.72.47-3.66.12-5.79.12v19.91c4.23,0,8.41,0,12.6,0,2.03,0,4.45-.14,4.43,2.69-.02,2.76-2.38,2.74-4.44,2.74-1.61,0-3.22,0-5.48,0,0,1.86,0,3.43,0,5-.06,24.87-.16,49.75-.12,74.62,0,2.74-.67,4.83-2.84,6.51-1.28.99-2.36,2.24-3.59,3.29-4.68,4-7.98,8.39-9.47,14.9-2.98,12.99-15.12,21.68-28.51,21.74-20.12.09-40.24.05-60.37.02-13.81-.02-23.68-9.7-23.76-23.55-.12-20.63-.03-41.25-.03-61.88,0-32.5,0-65,0-97.51,0-1.12-.34-2.44.12-3.33.63-1.22,1.89-2.11,2.88-3.14.84,1.05,1.93,1.99,2.43,3.17.4.96.1,2.22.1,3.34,0,52.75,0,105.51,0,158.26,0,9.47,4.56,16.11,12.52,18.22,1.55.41,3.21.57,4.81.58,20.5.04,40.99.1,61.49,0,12.04-.06,21.81-8.36,23.93-19.82.43-2.31.11-4.01-1.76-5.63-3.21-2.78-6.11-5.92-9.33-8.68-2.1-1.8-2.77-3.82-2.77-6.54-.01-25-.14-49.99-.24-74.99,0-1.35,0-2.7,0-4.61ZM287.54,288.89c3.34-3.15,6.62-6.01,9.58-9.17,1.05-1.13,1.83-2.98,1.87-4.51.18-8.11.09-16.23.09-24.35,0-3.34,0-6.68,0-10.1h-23.01c0,12.11-.03,23.94.05,35.78,0,.87.54,1.95,1.18,2.58,3.27,3.24,6.65,6.36,10.25,9.77ZM276.21,197.36c0,12.07-.03,23.66.08,35.25,0,.76,1.13,2.14,1.75,2.15,6.8.16,13.61.1,20.48.1v-37.5h-22.31ZM291.7,190.91v-18.68h-8.22v18.68h8.22Z"/>
    <path class="cls-1" d="M120.06,98.05c.47,1.11,1.49,2.55,1.66,4.09.99,8.93,1.36,17.95,2.75,26.81,2.43,15.45,8.04,29.88,15.83,43.41,1.74,3.03,1.5,4.85-.95,7.42-7.91,8.31-11.88,18.67-14.13,29.72-4.76,23.44-2.53,45.98,8.9,67.31,3.54,6.6,6.91,13.3,10.32,19.97.56,1.11,1.25,2.32,1.26,3.49.02,1.05-.62,2.82-1.31,3-1.01.27-2.95-.23-3.41-1.02-18.64-32.16-31.63-65.38-18.68-103.29,2.61-7.63,5.87-14.92,11.22-21.02,1.76-2,1.6-3.4.43-5.56-11.75-21.75-17.55-45.03-17.7-69.73-.02-3.1.86-4.51,3.79-4.6Z"/>
    <path class="cls-1" d="M178.91,130.44c-7.21.01-13.11-5.92-13.07-13.15.04-7.29,5.95-13.17,13.15-13.08,6.96.08,12.85,5.98,12.96,12.98.12,7.08-5.94,13.24-13.04,13.25ZM186.26,117.24c-.06-4.14-3.27-7.42-7.33-7.46-4.19-.04-7.58,3.42-7.52,7.67.06,4.1,3.34,7.43,7.36,7.48,4.18.05,7.55-3.41,7.49-7.69Z"/>
  </g>
</svg>