<?xml version="1.0" encoding="UTF-8"?>
<svg id="Layer_2" data-name="Layer 2" xmlns="http://www.w3.org/2000/svg" viewBox="0 0 407.86 407.19">
  <defs>
    <style>
      .cls-1 {
        fill: #000;
        stroke-width: 0px;
      }
    </style>
  </defs>
  <g id="Layer_1-2" data-name="Layer 1">
    <path class="cls-1" d="M407.86,85.99c-3.59-12.78-13.25-16.59-25.19-16.98-13.85-.46-27.49,1.49-41.14,3.52-25.41,3.77-50.54,9.37-76.25,11.35-7.45.57-8.88-1.35-8.61-8.27.55-13.78.17-27.6.16-41.4,0-20.88-3.87-26.75-22.56-34.21h-7.96c-18.56,7.71-22.38,13.58-22.38,34.36,0,12.99-.24,25.99.12,38.98.13,5.12-1.08,6.95-6.49,6.39-16.65-1.72-33.35-1.89-50.04-.53-2.35.19-4.87-.26-6.88,1.38-2.06,1.68-2.61,4-1.76,6.46,1.29,3.78,4.48,3.97,7.81,3.86,17.23-.59,34.59-1.91,51.63.75,40.31,6.29,80.19,5.06,120.12-3.03,21.52-4.36,43.24-8.24,65.39-7.38,10.31.4,12.52,3.16,11.76,13.33-.27,3.74-1.27,7.26-2.78,10.7-3.95,9.06-9.59,17.02-15.7,24.71-12.75,16.04-27.94,29.74-42.41,44.13-3.14,3.12-6.54,6.5-2.31,10.7,4.2,4.16,7.67.8,10.8-2.28,12.29-12.09,25.15-23.63,36.25-36.85,11.37-13.55,23.26-26.89,26.99-45.06.12-.2.22-.4.3-.61.98-2.44-.64-5.33,1.13-7.64v-6.38ZM229.74,12.62c7.4-.5,12.83,3.93,14.59,11.68.52,2.29.72,4.69.75,7.04.09,7.41.03,14.81.03,22.22,0,8.46-.2,16.93.08,25.38.14,4.27-1.28,5.26-5.46,5.1-24.02-.93-24.14-.83-23.98-24.42.08-11.61-.95-23.27.65-34.83,1.04-7.56,5.81-11.65,13.34-12.17Z"/>
    <path class="cls-1" d="M324.77,191.3c-2.86-2.82-5.76-2.01-8.49.28-1.42,1.19-2.7,2.55-4.05,3.82-14.55,13.61-28.06,28.24-41.77,42.66-3.61,3.79-7.65,7.16-11.49,10.73,2-7.53,5.25-13.85,7.89-20.42,9.75-24.3,15.08-49.12,7.76-75.2-1.26-4.5-1.85-10.61-8.54-8.93-6.84,1.72-4.36,7.33-3.01,11.83,3.41,11.4,3.88,22.94,2.07,34.63-4.2,27.05-16.23,50.74-31.5,72.99-2.82,4.11-5.03,8.95-9.36,11.73-30.33,19.5-61.32,37.74-96.35,47.76-8.75,2.5-16.73,6.4-24.27,11.48-16.63,11.22-30.03,26.03-44.51,39.64-7.52,7.08-14.84,14.52-24.44,18.86-10.51,4.75-17.29,1.44-20.61-9.52-1.72-5.71-1.72-11.53-1.57-17.34,1-38.18,5.47-76.25,3.68-114.52-.12-2.38.12-4.83-.34-7.13-.59-2.91-2.7-4.5-5.76-4.41-3.04.08-5.05,1.6-5.41,4.7-.25,2.1-.26,4.24-.23,6.35.4,26.55-.01,53.04-2.3,79.54-1.52,17.64-3.83,35.38-.36,53.15,3.94,20.11,20.28,28.56,38.7,19.73,4.79-2.3,9.3-5.1,13.22-8.72,13.44-12.43,26.8-24.94,40.23-37.38,7.58-7.03,15.58-13.47,25.76-18.2-.45,3.24-.86,5.8-1.16,8.38-1.17,9.92-7.46,17.33-12.25,25.53-4.3,7.35-2.49,15.61,3.9,20.62,6.18,4.84,14.07,4.62,20.4-.64,3.93-3.26,6.75-7.47,9.43-11.72,9.36-14.86,13.15-31.08,11.68-48.56-.22-2.68-.52-6.09,3.13-5.99,3.74.1,1.87,3.74,1.89,5.64.2,14.33.1,28.66.12,43,0,4.78.19,9.54,2,14.08,4.74,11.95,16.44,18.49,29.44,16.4,12.36-1.98,21.39-12.61,21.71-26.66.38-16.45.1-32.91.11-49.37v-13.44c12.84,14.51,20.87,20.73,32.95,25.98,11.69,5.08,23.17-.94,24.1-12.97.66-8.56-4.5-13.81-11.63-17.25-10.16-4.9-17.71-12.29-22.95-22.27-1.67-3.18-1.46-4.91,1.75-7,26.25-17.1,47.77-39.45,68.95-62.21,6.68-7.17,14.09-13.67,21.05-20.6,2.75-2.74,3.61-5.94.43-9.06ZM140.28,339.89c-.73,15.87-5.14,29.92-15.1,41.99-1.91,2.3-3.93,5.02-7.12,2.75-3.47-2.47-1.87-5.54.22-8.21,8.24-10.49,12.89-22.38,12.76-35.73-.06-5.13,2.05-7.69,6.5-7.58,5.62.14.95,5.06,2.74,6.78ZM197.74,380.09c-.09,8.72-6.71,14.83-14.59,14.61-7.64-.22-13.91-6.08-14.07-14.41-.34-18.78-.09-37.56-.2-56.34-.02-2.46.84-3.83,2.99-4.89,8.25-4.06,16.44-8.26,25.96-13.07,0,25.48.17,49.8-.09,74.1ZM249.9,323.01c3.11,1.54,6.9,3.43,4.52,7.63-2.46,4.35-5.98,1.38-8.93-.06-13.47-6.57-23.81-16.39-30.57-29.84-1.52-3.04,1.36-7.59,4.01-7.47,2.75.02,2.93,2.01,3.57,3.26,6.16,11.92,15.46,20.53,27.4,26.48Z"/>
    <path class="cls-1" d="M117.75,94.07c-18.83,3.04-36.39,9.29-51.58,21.15-21.38,16.69-33.37,39.27-40.5,64.89-4.14,14.85-6.53,30-8.1,45.3-.41,4-1.75,7.53-6.62,7.3-4.37-.2-5.59-3.35-5.63-4.97,4.29-43.17,13.07-82.4,43.44-113.06,18.6-18.79,41.7-28.5,67.54-32.39,4.22-.64,7.7,0,8.28,4.82.58,4.75-2.68,6.29-6.83,6.96Z"/>
  </g>
</svg>