<?xml version="1.0" encoding="UTF-8"?>
<svg id="Layer_2" data-name="Layer 2" xmlns="http://www.w3.org/2000/svg" viewBox="0 0 336 335.48">
  <defs>
    <style>
      .cls-1 {
        fill: #000;
      }

      .cls-1, .cls-2 {
        stroke-width: 0px;
      }

      .cls-2 {
        fill: #fefefe;
      }
    </style>
  </defs>
  <g id="Layer_1-2" data-name="Layer 1">
    <g>
      <path class="cls-2" d="M335.98,266.21c-.06-30.74-5.36-60.54-16.34-89.27-7.07-18.49-16.7-35.59-28.03-51.79-2.44-3.49-5.24-5.68-9.3-2.86-4.05,2.82-3,6.31-.53,9.71,1.03,1.41,2.02,2.85,2.99,4.3,15.88,23.6,26.81,49.29,33.5,76.97,7.13,29.54,5.63,59.53,5.71,89.45.04,14.98-11.61,23.83-26.18,20.17-6.63-1.66-12.34-5.32-18.06-8.83-7.91-4.86-16.07-7.49-25.57-5.87-7.85,1.34-15.87,1.68-23.81,2.51-10.69,1.12-17.55-3.96-21.89-13.3-2.11-4.55-3.75-9.22-4.56-14.17-3.33-20.28-3.06-40.8-4.28-61.22-.35-5.86-.05-11.75-.05-18.79,9.01,7.11,16.89,13.93,25.4,19.83,5.64,3.91,6.63,7.12.83,11.15-13.33,9.25-13.22,22.82-12.12,36.77.29,3.66,1.75,6.28,5.87,6.34,4.58.07,6.01-2.76,6.05-6.79.02-1.49.25-3.03-.01-4.48-2.01-11.39,2.8-19.63,12.53-26.33,3.09,8.39,6.2,16.53,9.07,24.75,1.36,3.9,3.71,6.23,7.79,4.88,4.39-1.45,5.06-4.71,3.42-9.03-4.07-10.69-7.95-21.47-11.65-32.3-1.22-3.58-3.67-5.82-6.43-8-21.75-17.16-43.62-34.18-65.18-51.58-5.32-4.3-9.11-3.98-14.29.2-21.76,17.54-43.79,34.76-65.81,51.98-3.11,2.43-5,5.38-6.27,9-3.31,9.39-6.79,18.72-10.14,28.1-1.51,4.2-4.04,9.15,2.08,11.42,6.61,2.45,7.76-3.32,9.39-7.72,2.66-7.19,5.25-14.4,7.9-21.69,9.06,6.2,14.54,13.78,12.52,25.11-.31,1.69-.05,3.48-.04,5.23.04,3.85,1,7.11,5.64,7.25,5.02.16,5.96-3.19,6.39-7.37,1.46-14.24.01-27.32-12.85-36.53-1.78-1.27-3.02-3.29-4.74-5.22,10.44-8.21,20.71-16.29,31.73-24.97.82,18.42-1.07,35.53-1.77,52.67-.35,8.46-.65,16.95-2.24,25.34-1.27,6.66-3.08,13.08-6.49,18.98-4.42,7.63-10.73,11.45-19.83,10.34-7.67-.93-15.5-.89-23.07-2.28-9.49-1.73-17.71.73-25.73,5.3-6.05,3.45-11.93,7.25-18.78,9.08-14.98,4-26.47-4.71-26.53-20.24-.05-11.98.06-23.97-.02-35.96-.34-48.63,13.42-92.88,41.17-132.77,2.69-3.86,4.67-7.73.28-11.09-5-3.82-7.73.67-10.1,4.11-15.07,21.9-26.5,45.55-34.21,71.05C-1.57,233.8-.32,270.81.55,307.72c.32,13.95,10.4,23.77,24.2,26.75,11.94,2.58,23.36.11,32.7-6.92,10.49-7.91,21.37-8.48,33.3-6.4,4.42.78,8.89,1.42,13.36,1.71,16.29,1.04,27-5.31,34.26-20.14,4.45-9.08,6.78-18.74,7.38-28.79,1.49-25.42,3.67-50.83,2.88-76.33-.09-2.76.73-4.45,2.89-6.27,16.52-13.98,16.42-13.98,32.9-.26,2.35,1.96,3.39,3.84,3.2,6.91-1.25,20.25,1.05,40.42,1.77,60.63.55,15.23,1.98,30.29,8.45,44.52,5.4,11.89,14.33,18.11,27.13,19.17,7.51.62,14.98.32,22.36-1.19,10.93-2.24,21.22-2.11,30.27,5.89,3.72,3.3,8.61,4.97,13.4,6.4,25.75,7.71,45-6.62,45-33.47,0-11.24.01-22.48-.02-33.72ZM93.59,183.21c-10.43,7.95-21.25,14.72-34.7,16.16-3.19.34-6.27,1.58-9.41,2.35-4.01.99-5.15,3.77-4.27,7.4.85,3.48,3.48,4.76,6.86,4.06,4.64-.97,9.25-2.05,13.82-3.3,3.9-1.07,5.26-.38,4.53,4.12-3.09,19.14-2.97,19.16-19.83,28.62-3.47,1.95-6.9,3.99-10.43,5.84-3.98,2.09-5.68,5.15-3.29,9.15,2.23,3.74,5.57,3.4,9.1,1.39,8.87-5.05,17.8-10.02,26.76-14.91,3.31-1.81,5.12-4.2,5.69-8.11,1.25-8.63,3.13-17.17,4.54-25.78.68-4.18,2.49-7.07,6.14-9.52,11.8-7.91,23.62-15.87,34.91-24.49,21.87-16.7,38.07-36.6,34.64-66.62-.4-3.45-.02-6.99-.06-10.49-.03-1.9.24-2.99,2.64-3.47,13.2-2.64,16.32-.24,16.32,13.06,0,1.25.17,2.53-.03,3.75-3.37,21.21,7.61,36.82,20.53,51.37,12.74,14.36,29.93,23.11,45.31,34.09,6.15,4.38,9.8,8.98,10.53,16.6.7,7.41,2.8,14.69,3.96,22.07.52,3.29,1.95,5.5,4.79,7.06,9.15,5.06,18.31,10.14,27.4,15.31,3.51,2,6.81,2.37,9.11-1.36,2.51-4.08.6-7.03-3.24-9.16-7.41-4.1-14.77-8.3-22.19-12.38-2.48-1.36-4.57-2.71-5.02-5.93-.75-5.43-1.73-10.84-2.94-16.19-1.06-4.7.99-4.97,4.66-3.98,4.33,1.17,8.72,2.1,13.08,3.13,3.72.88,6.55-.23,7.48-4.1.89-3.69-.55-6.34-4.48-7.28-3.63-.88-7.21-2.19-10.89-2.61-13.23-1.54-23.58-8.78-33.7-16.54-.94-.72-2.29-1.52-2.49-2.48-.69-3.39,9.5-14.13,13.13-13.97,3.99.17,7.98.47,11.96.82,3.99.35,7.17-.8,7.71-5.13.54-4.28-2.03-6.37-6.16-6.72-3.48-.29-6.97-.88-10.45-.8-3.76.1-5.35-1.04-5.25-5.06.1-4.22-.53-8.47-.96-12.69-.36-3.59-2.57-5.32-6.07-5.24-3.66.1-5.26,2.51-5.63,5.82-.16,1.46-.01,3.01.29,4.46,2.57,12.15-.62,22.59-9.54,31.42-7.6-5.1-15.7-10.01-22.02-17.3-1.76-2.03-2.76-3.88-2.44-6.63,1.46-12.71,3.88-25.15,10.47-36.34,8.69-14.77,21.01-18.11,36.24-10.11,5.59,2.92,10.25,7.07,15.14,10.93,2.87,2.27,5.66,1.87,7.98-.67,2.33-2.54,2.62-5.62,0-8.02-9.88-9.03-20.55-16.86-34.43-18.16-17.23-1.61-30.41,7.69-38.95,26.71-3.15,7.03-4.53,14.61-6.92,22.13-4.03-3.46-4.02-7.59-4.01-11.86.06-37.47.04-74.94.02-112.4,0-2.25.02-4.52-.28-6.73-.39-2.92-2.63-4.28-5.23-4.48-2.65-.21-5.05.96-5.77,3.75-.55,2.13-.65,4.42-.68,6.64q-.15,14.1-14.44,13.38c-.25-.02-.5-.04-.75,0-2.9.38-3.95-.82-3.84-3.78.17-4.73.13-9.49-.11-14.23-.18-3.42-2.26-5.7-5.72-5.74-3.8-.05-5.93,2.19-6.05,6.1-.06,1.99-.06,3.99-.06,5.99,0,37.22-.01,74.44.02,111.66,0,4.16.21,8.31-4.16,11.55-2.48-9.9-4.83-19.54-9.98-28.16-7.86-13.13-18.49-21.62-34.62-20.51-14.51,1.01-25.63,8.97-35.78,18.53-2.64,2.48-2.13,5.51.28,7.97,2.45,2.49,5.24,2.59,8.04.36,4.87-3.87,9.53-8.02,15.13-10.92,15.23-7.9,27.53-4.49,36.24,10.24,5.03,8.49,6.74,18.05,9.36,27.41,2.74,9.83-.64,16.34-7.87,21.87-5.1,3.91-10.46,7.46-15.39,10.94-9.21-8.8-11.96-19.14-9.77-30.96.18-.98.22-1.99.29-2.99.25-3.83-.46-7.14-5.05-7.69-4.98-.59-6.55,2.47-6.87,6.77-.37,4.96.82,11.11-1.69,14.54-2.68,3.68-9.37.99-14.17,2.22-.72.19-1.48.25-2.21.39-3.26.61-4.72,2.91-4.58,5.89.17,3.39,2.25,5.53,5.79,5.67,1.98.07,4.04-.02,5.96-.49,9.35-2.33,15.48.9,19.44,9.78,1.49,3.35,1.66,4.67-1.42,7.01ZM158.45,44.57c.6-8.77.23-7.96,10.75-9.05,9.11-.94,7.89,3.98,8.57,9.85.99,8.59-2.98,9.69-9.89,8.07-8.16,2.57-9.95-1.3-9.43-8.87ZM169.08,65.59c9.06-1.52,8.13,3.76,8.68,9.81.78,8.56-3.19,9.7-9.86,7.85-9.39,3.21-8.8-2.45-9.6-9.11-1.23-10.26,5.22-7.63,10.78-8.55Z"/>
      <path class="cls-1" d="M336,299.93c0,26.85-19.25,41.18-45,33.47-4.79-1.43-9.68-3.1-13.4-6.4-9.05-8-19.34-8.13-30.27-5.89-7.38,1.51-14.85,1.81-22.36,1.19-12.8-1.06-21.73-7.28-27.13-19.17-6.47-14.23-7.9-29.29-8.45-44.52-.72-20.21-3.02-40.38-1.77-60.63.19-3.07-.85-4.95-3.2-6.91-16.48-13.72-16.38-13.72-32.9.26-2.16,1.82-2.98,3.51-2.89,6.27.79,25.5-1.39,50.91-2.88,76.33-.6,10.05-2.93,19.71-7.38,28.79-7.26,14.83-17.97,21.18-34.26,20.14-4.47-.29-8.94-.93-13.36-1.71-11.93-2.08-22.81-1.51-33.3,6.4-9.34,7.03-20.76,9.5-32.7,6.92-13.8-2.98-23.88-12.8-24.2-26.75-.87-36.91-2.12-73.92,8.79-109.97,7.71-25.5,19.14-49.15,34.21-71.05,2.37-3.44,5.1-7.93,10.1-4.11,4.39,3.36,2.41,7.23-.28,11.09-27.75,39.89-41.51,84.14-41.17,132.77.08,11.99-.03,23.98.02,35.96.06,15.53,11.55,24.24,26.53,20.24,6.85-1.83,12.73-5.63,18.78-9.08,8.02-4.57,16.24-7.03,25.73-5.3,7.57,1.39,15.4,1.35,23.07,2.28,9.1,1.11,15.41-2.71,19.83-10.34,3.41-5.9,5.22-12.32,6.49-18.98,1.59-8.39,1.89-16.88,2.24-25.34.7-17.14,2.59-34.25,1.77-52.67-11.02,8.68-21.29,16.76-31.73,24.97,1.72,1.93,2.96,3.95,4.74,5.22,12.86,9.21,14.31,22.29,12.85,36.53-.43,4.18-1.37,7.53-6.39,7.37-4.64-.14-5.6-3.4-5.64-7.25-.01-1.75-.27-3.54.04-5.23,2.02-11.33-3.46-18.91-12.52-25.11-2.65,7.29-5.24,14.5-7.9,21.69-1.63,4.4-2.78,10.17-9.39,7.72-6.12-2.27-3.59-7.22-2.08-11.42,3.35-9.38,6.83-18.71,10.14-28.1,1.27-3.62,3.16-6.57,6.27-9,22.02-17.22,44.05-34.44,65.81-51.98,5.18-4.18,8.97-4.5,14.29-.2,21.56,17.4,43.43,34.42,65.18,51.58,2.76,2.18,5.21,4.42,6.43,8,3.7,10.83,7.58,21.61,11.65,32.3,1.64,4.32.97,7.58-3.42,9.03-4.08,1.35-6.43-.98-7.79-4.88-2.87-8.22-5.98-16.36-9.07-24.75-9.73,6.7-14.54,14.94-12.53,26.33.26,1.45.03,2.99.01,4.48-.04,4.03-1.47,6.86-6.05,6.79-4.12-.06-5.58-2.68-5.87-6.34-1.1-13.95-1.21-27.52,12.12-36.77,5.8-4.03,4.81-7.24-.83-11.15-8.51-5.9-16.39-12.72-25.4-19.83,0,7.04-.3,12.93.05,18.79,1.22,20.42.95,40.94,4.28,61.22.81,4.95,2.45,9.62,4.56,14.17,4.34,9.34,11.2,14.42,21.89,13.3,7.94-.83,15.96-1.17,23.81-2.51,9.5-1.62,17.66,1.01,25.57,5.87,5.72,3.51,11.43,7.17,18.06,8.83,14.57,3.66,26.22-5.19,26.18-20.17-.08-29.92,1.42-59.91-5.71-89.45-6.69-27.68-17.62-53.37-33.5-76.97-.97-1.45-1.96-2.89-2.99-4.3-2.47-3.4-3.52-6.89.53-9.71,4.06-2.82,6.86-.63,9.3,2.86,11.33,16.2,20.96,33.3,28.03,51.79,10.98,28.73,16.28,58.53,16.34,89.27.03,11.24.02,22.48.02,33.72Z"/>
      <path class="cls-1" d="M295.91,248.4c-7.41-4.1-14.77-8.3-22.19-12.38-2.48-1.36-4.57-2.71-5.02-5.93-.75-5.43-1.73-10.84-2.94-16.19-1.06-4.7.99-4.97,4.66-3.98,4.33,1.17,8.72,2.1,13.08,3.13,3.72.88,6.55-.23,7.48-4.1.89-3.69-.55-6.34-4.48-7.28-3.63-.88-7.21-2.19-10.89-2.61-13.23-1.54-23.58-8.78-33.7-16.54-.94-.72-2.29-1.52-2.49-2.48-.69-3.39,9.5-14.13,13.13-13.97,3.99.17,7.98.47,11.96.82,3.99.35,7.17-.8,7.71-5.13.54-4.28-2.03-6.37-6.16-6.72-3.48-.29-6.97-.88-10.45-.8-3.76.1-5.35-1.04-5.25-5.06.1-4.22-.53-8.47-.96-12.69-.36-3.59-2.57-5.32-6.07-5.24-3.66.1-5.26,2.51-5.63,5.82-.16,1.46-.01,3.01.29,4.46,2.57,12.15-.62,22.59-9.54,31.42-7.6-5.1-15.7-10.01-22.02-17.3-1.76-2.03-2.76-3.88-2.44-6.63,1.46-12.71,3.88-25.15,10.47-36.34,8.69-14.77,21.01-18.11,36.24-10.11,5.59,2.92,10.25,7.07,15.14,10.93,2.87,2.27,5.66,1.87,7.98-.67,2.33-2.54,2.62-5.62,0-8.02-9.88-9.03-20.55-16.86-34.43-18.16-17.23-1.61-30.41,7.69-38.95,26.71-3.15,7.03-4.53,14.61-6.92,22.13-4.03-3.46-4.02-7.59-4.01-11.86.06-37.47.04-74.94.02-112.4,0-2.25.02-4.52-.28-6.73-.39-2.92-2.63-4.28-5.23-4.48-2.65-.21-5.05.96-5.77,3.75-.55,2.13-.65,4.42-.68,6.64q-.15,14.1-14.44,13.38c-.25-.02-.5-.04-.75,0-2.9.38-3.95-.82-3.84-3.78.17-4.73.13-9.49-.11-14.23-.18-3.42-2.26-5.7-5.72-5.74-3.8-.05-5.93,2.19-6.05,6.1-.06,1.99-.06,3.99-.06,5.99,0,37.22-.01,74.44.02,111.66,0,4.16.21,8.31-4.16,11.55-2.48-9.9-4.83-19.54-9.98-28.16-7.86-13.13-18.49-21.62-34.62-20.51-14.51,1.01-25.63,8.97-35.78,18.53-2.64,2.48-2.13,5.51.28,7.97,2.45,2.49,5.24,2.59,8.04.36,4.87-3.87,9.53-8.02,15.13-10.92,15.23-7.9,27.53-4.49,36.24,10.24,5.03,8.49,6.74,18.05,9.36,27.41,2.74,9.83-.64,16.34-7.87,21.87-5.1,3.91-10.46,7.46-15.39,10.94-9.21-8.8-11.96-19.14-9.77-30.96.18-.98.22-1.99.29-2.99.25-3.83-.46-7.14-5.05-7.69-4.98-.59-6.55,2.47-6.87,6.77-.37,4.96.82,11.11-1.69,14.54-2.68,3.68-9.37.99-14.17,2.22-.72.19-1.48.25-2.21.39-3.26.61-4.72,2.91-4.58,5.89.17,3.39,2.25,5.53,5.79,5.67,1.98.07,4.04-.02,5.96-.49,9.35-2.33,15.48.9,19.44,9.78,1.49,3.35,1.66,4.67-1.42,7.01-10.43,7.95-21.25,14.72-34.7,16.16-3.19.34-6.27,1.58-9.41,2.35-4.01.99-5.15,3.77-4.27,7.4.85,3.48,3.48,4.76,6.86,4.06,4.64-.97,9.25-2.05,13.82-3.3,3.9-1.07,5.26-.38,4.53,4.12-3.09,19.14-2.97,19.16-19.83,28.62-3.47,1.95-6.9,3.99-10.43,5.84-3.98,2.09-5.68,5.15-3.29,9.15,2.23,3.74,5.57,3.4,9.1,1.39,8.87-5.05,17.8-10.02,26.76-14.91,3.31-1.81,5.12-4.2,5.69-8.11,1.25-8.63,3.13-17.17,4.54-25.78.68-4.18,2.49-7.07,6.14-9.52,11.8-7.91,23.62-15.87,34.91-24.49,21.87-16.7,38.07-36.6,34.64-66.62-.4-3.45-.02-6.99-.06-10.49-.03-1.9.24-2.99,2.64-3.47,13.2-2.64,16.32-.24,16.32,13.06,0,1.25.17,2.53-.03,3.75-3.37,21.21,7.61,36.82,20.53,51.37,12.74,14.36,29.93,23.11,45.31,34.09,6.15,4.38,9.8,8.98,10.53,16.6.7,7.41,2.8,14.69,3.96,22.07.52,3.29,1.95,5.5,4.79,7.06,9.15,5.06,18.31,10.14,27.4,15.31,3.51,2,6.81,2.37,9.11-1.36,2.51-4.08.6-7.03-3.24-9.16ZM167.9,83.25c-9.39,3.21-8.8-2.45-9.6-9.11-1.23-10.26,5.22-7.63,10.78-8.55,9.06-1.52,8.13,3.76,8.68,9.81.78,8.56-3.19,9.7-9.86,7.85ZM167.88,53.44c-8.16,2.57-9.95-1.3-9.43-8.87.6-8.77.23-7.96,10.75-9.05,9.11-.94,7.89,3.98,8.57,9.85.99,8.59-2.98,9.69-9.89,8.07Z"/>
    </g>
  </g>
</svg>