<?xml version="1.0" encoding="UTF-8"?>
<svg id="Layer_2" data-name="Layer 2" xmlns="http://www.w3.org/2000/svg" viewBox="0 0 359.75 383.73">
  <defs>
    <style>
      .cls-1 {
        fill: #000;
        stroke-width: 0px;
      }
    </style>
  </defs>
  <g id="Layer_1-2" data-name="Layer 1">
    <path class="cls-1" d="M351.85,208.03c8.9-19.52,8.65-39.2-.93-58.47-2.18-4.38-1.53-7.74.6-11.86,10.63-20.64,10.91-41.68,1.11-62.67-2.24-4.8-2.26-8.59.38-13.27,4.73-8.38,7.41-17.46,5.48-27.3-3.92-20.01-15.31-30.99-35.72-34.46h-13.49c-14.77,4.39-26.36,12.4-31.51,27.71-1.11,3.32-3.68,1.73-5.65,1.71-15.85-.19-28.13,6.36-35.98,20.03-2.38,4.15-4.04,3.94-7.89,2.63-19.48-6.66-37.41-3.44-53.16,9.87-3.23,2.73-4.43,3.41-7.88-.09-12.61-12.8-27.85-15.88-44.6-9.4-3.86,1.49-6.07.98-9.19-1.51-8.63-6.88-18.75-10.33-29.79-10.38-4.63-.02-8.52-1.18-12.62-3.32-15.06-7.86-30.03-7.07-43.62,3.14-13.29,9.98-18.92,23.8-15.31,40.21,1.41,6.42,1.88,11.56-2.37,17.1-2.69,3.51-3.53,8.42-2.63,12.91.75,3.71-.21,6.6-1.64,9.91-4.99,11.6-5.13,23.37,1.01,34.59,2.1,3.84,1.61,6.33-.55,9.89-9.46,15.59-7.42,35.17,5.17,48.36,3.34,3.48,3.43,5.58,1.14,9.74-13.3,24.19.99,53.84,28.02,58.97,14.95,2.84,27.3-2.26,38.16-12.59,11.13,23.68,30.56,30.61,54.41,28.2,4.36-.44,4.24,1.15,4.55,4.18,1.24,12.17,4.95,23.46,13.48,32.56,4.78,5.09,9.98,9.8,15.17,14.48,5.97,5.38,10.13,11.8,10.88,19.85.64,6.79,4.02,11.45,9.48,14.98h8.99c9.09-1.66,11.95-8.34,12.28-16.3.4-9.7,1.06-19.47-.84-29.11-.83-4.27-.48-6.98,5.02-5.77,7.36,1.62,14.54-.1,21.27-2.66,6.04-2.31,10.47-1.31,15.88,2.16,27.8,17.81,62.58,7.94,73.95-21.19,1.53-3.92,4.08-6.65,7.85-8.59,5.81-3,11.03-6.84,14.93-12.22,15.34-21.17,16.46-43.84,6.34-67.27-2.29-5.32-2.59-9.45-.18-14.75ZM132.17,285.74c-26.36,5.08-45.36-11.51-43.74-38.4.8-13.13-2.63-24.76-12.19-34.02-2.61-2.52-2.31-4.14-.7-6.87,7.82-13.36,7.94-26.98.53-40.53-1.39-2.54-1.32-4.19.3-6.57,6.5-9.57,8.13-20.2,5.87-31.44-.41-2.06-1.45-3.97,1.98-4.04,2.34-.06,5.21-1.51,5.66,2.55,1.29,11.84,8.06,19.96,17.78,25.66-.36,2.32-2.15,2.52-3.33,3.3-13.25,8.77-21.77,20.5-18.96,36.91,3.13,18.27,13.59,31.73,31.95,36.75,7.09,1.94,9.07,3.67,6.13,10.64-2.21,5.24-2.92,11.12-2.44,16.91.32,3.98,1.63,7.63,6.65,7.27,4.54-.33,5.5-3.59,5.29-7.49-.04-.74-.16-1.5-.1-2.24.54-6.76,2.01-13.35,4.7-19.54,3.34-7.7,11.29-4.74,17.04-6.31,11.27-3.07,22.91-4.82,34.42-6.93,17.38-3.18,33.28-.38,46.68,12,.73.67,1.54,1.27,2.35,1.85,3.11,2.25,6.15,2.23,8.56-.89,2.43-3.14,1.46-6.03-1.34-8.52-11.5-10.23-24.41-17.12-40.24-17.47-18.19-.39-35.57,4.37-53.12,8.09-7.09,1.5-14.19,2.76-21.49,2.64-15.46-.25-27.84-9.44-32.39-24.16-4.61-14.91,6.59-30.56,24.84-34.41,3.12-.66,6.43-.57,9.65-.65,3.74-.09,6.55-1.72,6.92-5.43.37-3.73-2-5.88-5.77-6.47-6.66-1.04-13.27-2.4-19.21-5.78-6.55-3.72-11.49-8.68-12.66-16.6-.43-2.94-.56-5.23,2.68-6.81,2.73-1.33,4.28-.5,6.44,1.25,15.71,12.73,31.64,14.03,49.11,3.94,2.52-1.46,3.84-1.63,6.3.15,16.83,12.13,34.43,10.91,52.28,2.42,1.34-.64,2.62-1.45,3.83-2.32,1.89-1.35,4.34-1.65,5.37.11,1.7,2.87-1.68,2.8-3.13,3.59-8.01,4.37-12.6,11.12-14.1,20.02-.74,4.39.13,8.53,5.19,9.12,4.55.53,6.51-2.73,6.69-7.13.11-2.54,1.16-4.8,2.67-6.87,4.34-5.96,6.93-6.07,11.58-.41,7.01,8.53,16.09,13.13,26.98,14.41,4.49.53,8.49-.47,9.04-5.42.5-4.59-2.86-6.17-7.23-6.54-10.16-.85-17.86-5.69-22.61-14.94-1.83-3.56-2.36-5.6,3.07-5.92,9.7-.58,18.97-3.55,28.44-7.65-.02,9.9,1.85,18.54,7.32,26.03,1.79,2.46.23,4.11-.78,6.06-11.03,21.32-10.93,42.55.83,63.55,1.3,2.33,2.03,3.98.45,6.66-6.08,10.31-8.77,21.67-8.98,33.56-.08,4.19-.92,5.66-5.51,4.75-8.23-1.64-16.5-.69-24.3,2.27-3.5,1.33-5.13.58-7.41-2.07-14.43-16.79-32.87-23.4-54.36-18.66-21.55,4.75-35.3,18.89-41.42,39.93-1.4,4.82-3.86,6.3-8.06,7.11ZM172.03,295.23c1.1,8.11,3.73,15.73,9.72,21.39,7.16,6.77,10.71,14.97,11.31,24.49.56,8.71.53,17.45.7,26.19.04,1.8-.36,3.8-2.33,4.18-2.05.41-2.23-1.59-2.35-3.03-1.37-16.49-12.66-26.35-23.81-36.58-16.22-14.87-20.27-34.09-12.05-54.48,6.81-16.85,19.55-26.55,37.45-27.91,16.64-1.26,30.27,5.6,39.24,19.99,3.76,6.03,7.33,6.82,13.38,3.18,8.55-5.14,18.07-4.79,27.63-2.99,2.54.47,3.12,1.97,3.64,4,.85,3.37,1.76,6.73,2.8,10.05,1.3,4.13,3.48,7.69,8.53,5.94,5.14-1.79,4.23-5.68,2.75-9.87-5.11-14.34-4.72-28.87-.87-43.44,1.48-5.6,3.75-10.85,7.39-15.37,2.99-3.71,2.61-6.92-.11-10.76-13.55-19.19-13.82-40.97-.64-59.96,2.92-4.21,3.22-7.51-.36-11.23-3.36-3.48-5.8-7.68-6.63-12.39-1.54-8.72-2.24-16.74,7.15-22.93,11.17-7.36,19.26-18.04,24.81-30.35,1.53-3.37,2.59-7.01,3.4-10.63.92-4.15,2.05-9-3.92-10.27-5.89-1.25-6.68,3.47-7.89,7.7-7.56,26.26-26.98,40.38-51.24,49.1-10.72,3.84-21.94,4.57-33.21,1.93-3.54-.84-6.53-.18-9.73,2.12-16.2,11.67-33.76,10.21-47.77-3.72-3.29-3.27-6.22-3.26-9.8-.45-17.47,13.68-29.49,12.9-44.8-3.01-3.59-3.75-6.73-2.99-10.56-.59-8.77,5.52-18.32,7.45-28.64,5.85-11.49-1.79-20.72-6.99-26.64-17.23-2.14-3.7-4.93-6.19-9.04-4.01-4.73,2.51-3.46,6.58-1.28,10.31,5.36,9.18,12.98,16.05,22.99,19.33,6.68,2.19,8.79,6.71,9.61,12.62,1.2,8.56-.39,16.7-6.51,22.94-4.99,5.08-4.33,8.77-.33,14.14,7.04,9.43,7.14,19.84,1.7,30.3-1.69,3.23-3.53,4.88-7.66,3.35-3.17-1.18-6.87-1.19-10.33-1.23-3.07-.03-5.2,1.73-5.55,4.97-.38,3.52,1.23,5.8,4.72,6.49,2.94.57,6,.61,8.87,1.4,11.86,3.25,20.61,14.82,20.85,27.26.23,12.22-8.47,24.11-20.26,27.67-12.23,3.69-25.09-.84-32.27-11.38-7.11-10.44-6.45-24.23,1.63-34.11q7-8.57-2.04-15.4c-13.19-9.91-15.8-28.45-4.97-41,4.71-5.47,4.75-9.05.45-14.75-6.9-9.13-7.12-19.55-1.67-29.61,2.16-3.97,3.27-7.49,1.94-11.99-1.58-5.34.46-10.07,4.84-13.17,4.98-3.53,4.93-6.99,2.23-12.07-5.68-10.67-4.76-21.34,2.65-30.9,7.4-9.55,17.45-12.54,30.56-9.96-4.81,4.24-8.79,7.68-10.8,12.66-1.26,3.11-.8,6.06,2.3,7.77,2.98,1.64,5.6.82,7.91-1.87,12.76-14.82,35.3-15.53,49.81-.92,5.19,5.23,8.85,5.93,15.28,2.06,13.69-8.22,30.61-3.03,38.79,10.92,5.28,8.98,7.85,9.14,14.48.89,13.39-16.67,34.88-20.8,53.78-10.35,7.68,4.25,9.86,3.46,12.46-4.49,5.04-15.44,18.11-23.39,33.8-19.61,7.06,1.71,9.51-.66,10.78-7.1,2.49-12.63,12.07-21.45,24.35-23.11,11.69-1.57,23.77,4.81,29.24,15.45,5.69,11.08,3.99,23.77-5.33,33.06-4.82,4.8-4.39,8.27-.55,13.42,13.32,17.84,13.02,45.29-.74,62.92-3.97,5.08-3.92,8.56-.12,13.69,12.37,16.68,12.33,41.15-.03,58.17-3.57,4.91-3.35,8.19.11,13.14,11.96,17.11,12.3,35.36,3.08,53.75-3.93,7.84-10.05,13.73-18.97,15.72-3.95.88-5.73,3.26-6.95,6.87-10.52,31.34-40.71,38.32-64.27,14.81-3.94-3.93-7.02-4.27-11.53-.73-18.82,14.78-48.28,3.9-52.7-19.39-.79-4.17-1.96-7.58-6.83-6.95-5.33.7-5.62,4.76-5.03,9.1ZM259.24,202.29c2.78,2.19,5.6,2.12,8.02-.43,2.43-2.55,2.26-5.4.07-8.06-1.11-1.34-2.39-2.54-3.66-3.74-20.92-19.86-46.14-27.75-74.53-26.46-4.23.2-5.92-.18-6.1-5.22-.41-11.16-7-18.81-16.33-24.27-3.8-2.23-8.16-4.42-11.1.55-2.91,4.93.79,7.55,4.85,9.79,6.19,3.39,10.71,8.13,10.89,15.78-.4,5.75-2.96,10.51-6.93,14.51-8.22,8.29-18.3,11.72-29.86,10.96-4.04-.27-7.88,0-8.35,5.05-.5,5.4,3.39,6.69,7.73,6.93,16.13.92,30.12-4.01,40.61-16.49,3.1-3.7,6.39-5.13,10.67-5.45,27.13-1.99,51.36,4.63,71.27,24.03.89.87,1.78,1.76,2.75,2.52Z"/>
  </g>
</svg>