<?xml version="1.0" encoding="UTF-8"?>
<svg id="Layer_2" data-name="Layer 2" xmlns="http://www.w3.org/2000/svg" viewBox="0 0 330.51 384">
  <defs>
    <style>
      .cls-1 {
        fill: #000;
        stroke-width: 0px;
      }
    </style>
  </defs>
  <g id="Layer_1-2" data-name="Layer 1">
    <path class="cls-1" d="M155.5,0c8.34,4.37,8.77,6.29,4.55,21.2,1.11.1,2.14.29,3.18.29,24.42-.06,48.28,3.48,71.57,10.9,1.43.46,3.47.17,4.84-.52,5.12-2.59,10.06-5.54,15.1-8.29,6.23-3.39,10.92-2.75,15.95,2.23,7.37,7.3,14.68,14.66,22.01,22,6.05,6.07,6.49,10.86.93,18.96,1.32.94,3.04,1.83,4.33,3.14,22.54,22.99,32.63,50.9,32.57,82.79-.03,16.27-.62,32.49-5.01,48.3-5.62,20.25-17.81,36.38-32.25,51.06-3.5,3.56-6.85,7.38-10.8,10.38-7.05,5.35-8.61,12.54-8.03,20.63.31,4.35.94,8.69,1.59,13,.65,4.31-.83,7.2-4.28,7.83-3.53.64-5.95-1.35-6.78-5.7-1.75-9.12-2.85-18.26-.84-27.51,1.21-5.56,4.03-10.03,8.09-14.02,8.11-7.96,16.29-15.89,23.79-24.42,12.54-14.26,19.87-31.02,21.79-50,1.86-18.32,2.8-36.66-1.02-54.86-4.51-21.49-15.23-39.43-31.52-54.07-.89-.8-2.83-1.44-3.77-1.03-10.26,4.56-20.41,9.34-31.12,14.3,4.27,4.43,8.28,8.64,12.34,12.79,3.01,3.08,4.82,6.61,4.77,11.02-.08,5.99-3.34,10.93-8.96,13.02-3.62,1.35-7.33,2.48-11.04,3.57-3.34.98-6.3-.53-7.21-3.49-.95-3.07.46-5.9,3.77-7.13,2.92-1.09,5.93-1.94,8.88-2.95,3.88-1.33,4.43-3.25,1.63-6.23-4.96-5.28-10.06-10.44-15.05-15.7-5.16-5.45-4.2-10.32,2.65-13.51,13.47-6.26,26.96-12.47,40.44-18.71,1.12-.52,2.23-1.08,3.63-1.76-.87-.98-1.55-1.81-2.3-2.57-6.62-6.64-13.31-13.2-19.84-19.93-1.73-1.78-2.97-2.25-5.36-.91-18.7,10.55-37.51,20.92-56.27,31.37-4.23,2.35-4.4,3.58-1.02,6.96,7.06,7.08,14.16,14.13,21.2,21.22,4.67,4.7,4.38,8.88-.94,12.8-12.26,9.06-24.56,18.06-36.84,27.09-.99.73-1.94,1.52-2.7,2.89,1.18-.36,2.36-.72,3.53-1.1,10.68-3.47,21.36-6.93,32.03-10.42,3.2-1.05,5.98-.76,7.76,2.44,1.76,3.16.23,6.63-3.62,8-4.8,1.72-9.68,3.22-13.74,4.56,0,6.09.26,11.69-.04,17.26-1.22,22.51-11.2,40.31-29.35,53.57-3.32,2.42-6.6,2.13-8.63-.51-2.12-2.77-1.34-6.02,2.14-8.61,17.73-13.21,25.91-30.85,24.53-52.91-.09-1.47-.4-2.93-.67-4.88-4.85,1.57-9.39,3.04-14.01,4.54,1.23,12.79-1.82,24.1-10,33.73-2.4,2.83-5.3,5.3-8.24,7.59-3.05,2.37-6.25,1.88-8.26-.78-1.93-2.56-1.39-5.92,1.63-8.16,7.47-5.56,12.26-12.73,13.49-22.05,1.54-11.68-2.39-21.36-11.14-29.13-4.37-3.88-5.35-6.84-3.04-9.71,2.5-3.11,5.85-2.8,10.37,1.11,2.35,2.03,4.54,4.24,7.09,6.64,3.55-2.64,7.32-5.44,11.85-8.81-4.23-3.97-8.21-7.63-12.09-11.4-1.21-1.18-2.98-2.63-3.01-3.98-.04-1.97.74-4.86,2.16-5.71,1.61-.96,4.97-.98,6.41.11,4.45,3.37,8.37,7.44,12.45,11.29.97.92,1.77,2.02,2.83,3.25,5.92-4.33,11.64-8.52,17.68-12.94-.94-1.03-1.7-1.93-2.54-2.77-5.73-5.75-11.53-11.45-17.22-17.25-7.38-7.54-6-17.72,3.19-23,7.9-4.54,15.92-8.87,23.89-13.3,1.07-.6,2.11-1.25,3.22-2.81-7.83-1.61-15.59-3.88-23.49-4.69-13.52-1.39-27.13-1.84-40.7-2.77-2.42-.17-3.59.77-4.25,3.06-.86,2.97-2.05,5.84-3.39,9.57,4.65,0,8.75-.17,12.83.03,10.45.53,15.61,9.48,10.88,18.83-8.9,17.6-17.86,35.17-26.81,52.74-.56,1.11-1.17,2.22-1.93,3.2-2.81,3.62-7.08,5.01-10.94,3.66-4.21-1.47-6.92-5.09-6.49-9.85.59-6.46,1.69-12.87,2.61-19.29.88-6.17,1.81-12.34,2.79-19.04-6.45,0-12.64,0-18.84,0-11.76,0-16.78-6.7-13.58-18.11,1.27-4.53,2.55-9.06,3.99-14.16-16.57,6.66-30.55,15.9-41.92,28.92-.99,1.13-1.89,2.33-2.87,3.46-2.75,3.14-5.84,3.61-8.48,1.33-2.44-2.1-2.82-5.57-.2-8.32,6.02-6.31,11.95-12.81,18.63-18.37,10.34-8.61,22.27-14.71,35-19.09,2.77-.95,4.24-2.41,4.92-5.29,1.27-5.33,3.12-10.53,4.4-15.87,1.16-4.84,3.57-8.43,8.3-10.26h32.25ZM111.23,64.5c8.95,0,17.04,0,25.13,0,7.94,0,10.24,2.83,9.01,10.69-1.48,9.47-2.8,18.97-4.19,28.46.24.09.48.18.72.27,7.86-15.46,15.72-30.91,24.22-47.62-7.35,0-13.56.05-19.78-.01-7.2-.08-9.89-4-7.42-10.81,3.66-10.08,7.4-20.14,11.09-30.21.44-1.2.77-2.45,1.19-3.8h-24.85c-4.99,17.52-9.94,34.89-15.11,53.05Z"/>
    <path class="cls-1" d="M158.5,384c-8.67-2.39-13.34-8.36-16.94-16.45-3.77-8.46-8.56-16.69-14.16-24.06-7.93-10.42-19.26-13.53-32.13-11.71-10.51,1.48-21.05,2.75-31.61,3.82-8.79.9-17.14-1.08-25.02-5-14.69-7.31-20.87-26.23-12.92-39.56.24-.41.41-.86.74-1.56-3.89-2.42-9.59-2.21-10.83-8.15-1.01-4.82-.39-9.14,2.46-13.4-1.57-1.37-3.08-2.65-4.55-3.98-6.2-5.59-5.88-13.07.61-18.2,2.4-1.9,4.51-4.17,7.34-6.82-3.29-1.33-5.79-2.27-8.24-3.34-9.81-4.27-14.2-11.22-13.08-20.75.69-5.88,4.24-10.01,8.66-13.5,7.47-5.91,14.54-12.12,20.04-20.08,2.83-4.09,3.22-7.52.14-11.47-1.45-1.85-2.52-4.02-3.7-6.07-3.41-5.95-4.07-12.11-.6-18.18,5.42-9.47,5.13-20.17,7.1-30.4,1.39-7.19,3.64-14.23,5.84-21.23,1.07-3.4,4.22-4.69,7.14-3.63,2.94,1.07,4.55,4.09,3.28,7.37-4.13,10.72-5.59,21.91-7.07,33.21-.84,6.42-3.6,12.65-5.98,18.77-1.3,3.34-1.53,6.15.42,9.19,1.82,2.83,3.54,5.74,5.17,8.69,3.1,5.62,2.87,11.12-.44,16.69-5.38,9.05-12.45,16.53-20.66,23.02-2.06,1.62-4.18,3.21-6,5.08-3.66,3.76-3.09,8.73,1.38,11.42,2.43,1.46,5.19,2.41,7.85,3.46,10.04,3.96,12.32,11.96,5.68,20.5-2.13,2.74-4.61,5.21-6.4,7.21,2.15,2.49,4.53,5.34,7.02,8.11,3.57,3.96,3.5,6.5-.32,10.22-.94.91-1.69,2.02-2.77,3.34,2.26,1.16,4.16,2.02,5.95,3.06,5.89,3.42,7.6,9.41,4.45,15.38-5.85,11.07-1.69,22.02,10.04,26.83,8.07,3.31,16.36,2.95,24.73,1.87,8.17-1.06,16.32-2.32,24.51-3.28,18.85-2.21,33.63,5.1,44.12,20.42,5.24,7.66,9.19,16.25,13.29,24.63,3.19,6.51,6.04,8.28,12.99,6.5,33.96-8.73,67.91-17.48,101.85-26.25,6.94-1.79,9.3-6.2,7.02-12.96-.76-2.25-1.67-4.44-2.32-6.72-.99-3.49.38-6.33,3.35-7.33,3.04-1.03,6.05.25,7.12,3.65,1.59,5.07,3.63,10.27,3.81,15.47.32,8.99-5.93,16.05-15.17,18.47-25.95,6.78-51.94,13.44-77.91,20.18-9.53,2.47-19.03,5.02-28.55,7.53h-6.75Z"/>
    <path class="cls-1" d="M95.31,153.77c.42-13.76,5.91-25.18,16.82-33.88,3.69-2.94,8.28-1.81,9.44,2.17.96,3.29-.89,5.36-3.24,7.32-11.11,9.28-14.77,24.07-9.26,37.25,2.26,5.41,5.81,9.84,10.47,13.41,3.38,2.59,4.11,5.99,2.01,8.68-2.09,2.67-5.55,2.81-8.94.15-11.32-8.88-17.06-20.54-17.31-35.1Z"/>
    <path class="cls-1" d="M69.23,154.88c.78-23.23,9.48-41.67,27.06-55.73,3.35-2.68,6.82-2.54,8.92.15,2.12,2.73,1.4,5.95-2.01,8.72-17.7,14.36-24.75,32.91-21.84,55.39.61,4.67-.98,7.53-4.49,8-3.22.43-5.9-1.94-6.55-6.2-.57-3.69-.8-7.44-1.09-10.32Z"/>
    <path class="cls-1" d="M121.75,154.36c.05-9.43,7.88-17.14,17.27-17.02,9.26.13,16.85,7.77,16.9,17.05.06,9.38-7.75,17.22-17.12,17.22-9.4,0-17.1-7.8-17.05-17.25ZM138.9,160.32c3.06-.05,5.66-2.67,5.72-5.75.06-3.22-2.7-6.02-5.88-5.96-3.22.06-5.87,2.9-5.72,6.13.14,3.06,2.85,5.63,5.88,5.59Z"/>
    <path class="cls-1" d="M86.04,183.54c2.01,1.48,3.69,2.45,5.03,3.76,4.81,4.68,9.42,9.57,14.28,14.2,2.74,2.61,3.45,5.62,1.43,8.24-1.91,2.47-5.39,3.22-7.95.85-5.91-5.49-11.59-11.27-16.99-17.26-1.07-1.18-1.07-4.13-.42-5.82.59-1.52,2.74-2.45,4.62-3.97Z"/>
  </g>
</svg>