<?xml version="1.0" encoding="UTF-8"?>
<svg id="Layer_2" data-name="Layer 2" xmlns="http://www.w3.org/2000/svg" viewBox="0 0 194.45 228">
  <defs>
    <style>
      .cls-1 {
        fill: #000;
        stroke-width: 0px;
      }
    </style>
  </defs>
  <g id="Layer_1-2" data-name="Layer 1">
    <path class="cls-1" d="M88.88,227.91c-5.47,0-10.95,0-16.42,0-3.35,0-6.71.06-10.06.07-4.39.01-5.96-1.41-6.49-5.76-1.04-8.44-2.27-16.86-3.11-25.32-.94-9.49-1.7-19.01-2.22-28.53-.66-12.02-.39-24.04.85-36.02.51-4.92,1.17-9.83,2-14.71.89-5.21-.42-9.55-4.08-13.37-10.56-11.01-21.03-22.1-31.54-33.16-4.87-5.12-9.75-10.24-14.61-15.37-.63-.67-1.26-1.34-1.8-2.08-1.85-2.53-1.88-4.67.11-7.1,1.6-1.94,3.42-3.69,5.15-5.51C17.57,29.63,28.5,18.19,39.43,6.76c1.66-1.73,3.29-3.49,5.06-5.1,2.3-2.09,3.91-2.21,6.42-.35,3.59,2.67,7.08,5.47,10.57,8.27,15.88,12.75,31.8,25.47,47.61,38.32,7.94,6.45,14.69,14.1,21,22.12,3.38,4.3,5.75,9.19,7.36,14.43,2.54,8.31,2.69,16.74,1.33,25.25-1.88,11.74-3.78,23.48-5.63,35.23-1.83,11.63-3.62,23.27-5.41,34.9-1.72,11.2-3.42,22.41-5.14,33.61-.53,3.47-1.04,6.95-1.71,10.39-.58,2.93-1.66,3.83-4.68,3.96-3.35.15-6.71.16-10.06.18-5.75.03-11.51,0-17.26,0v-.08ZM112.7,218.61c.11-.62.21-1.17.3-1.72,1.4-9.03,2.8-18.07,4.19-27.1,1.56-10.1,3.12-20.2,4.69-30.29,1.63-10.49,3.3-20.98,4.92-31.47,1.28-8.28,2.72-16.55,3.73-24.87,1.07-8.83-.59-17.28-5.52-24.75-5.44-8.24-12.05-15.6-19.63-21.87-17.21-14.23-34.69-28.13-52.07-42.15-1.67-1.35-3.39-2.63-5.14-3.97-3.04,3.25-5.99,6.43-9.13,9.79.31.2.57.32.78.5,12.87,11.67,25.74,23.34,38.59,35.04,1.18,1.07,2.47,1.41,3.95,1.19.82-.12,1.65-.31,2.44-.55,2.71-.82,5.44-1.14,8.27-.83,9.91,1.09,17.05,10.84,15,20.62-1.19,5.68-4.51,9.79-9.56,12.51-2.42,1.31-4.22,3.1-5.21,5.69-.3.78-.7,1.52-1.11,2.25-4.6,8.09-13.82,11.41-22.1,7.97-8.38-3.48-12.45-12.16-9.89-21.23.74-2.61.06-4.62-1.94-6.42-11.73-10.61-23.41-21.27-35.12-31.91-1.41-1.28-2.86-2.5-4.35-3.79-2.87,3.05-5.64,6-8.43,8.98,3.53,3.77,6.96,7.45,10.41,11.11,9.23,9.8,18.47,19.59,27.71,29.37,3.29,3.48,6.74,6.83,9.89,10.44,4.03,4.62,5.93,10.05,4.13,16.11-1.46,4.93-1.79,9.97-2.23,15.01-.82,9.44-1.14,18.9-.86,28.37.16,5.63.27,11.26.7,16.87.81,10.47,1.81,20.92,2.81,31.38.21,2.25.57,4.53,1.17,6.7.69,2.52,2.41,3.67,5,3.59,1.91-.06,3.81-.37,5.72-.53.74-.06.75-.54.78-1.09.32-7.26.66-14.52.97-21.78.71-16.43,1.4-32.87,2.16-49.3.08-1.8-.43-3.21-1.73-4.37-.57-.5-1.19-.94-1.76-1.43-1.45-1.24-3.05-2.36-4.31-3.77-6.39-7.21-5.75-18.24,1.53-24.49,5.7-4.9,12.22-5.46,19.08-2.73,2.33.93,4.57,1.04,7.01.38,2.06-.56,4.22-.96,6.35-.99,8.51-.11,15.27,5.44,17.13,13.86,1.76,7.96-2.24,15.86-9.91,19.24-2.83,1.24-4.17,3.17-4.28,6.25-.45,12.13-.98,24.26-1.5,36.38-.35,8.22-.73,16.43-1.12,24.65-.14,3.02-.36,6.04-.55,9.14h8.04ZM95.57,218.63c.14-.84.35-1.66.39-2.48.43-8.85.84-17.7,1.24-26.56.47-10.29.94-20.58,1.39-30.87.26-5.78.43-11.57.76-17.35.24-4.15,2.05-6.04,6.11-6.73.51-.09,1.06-.01,1.54-.18,1.26-.42,2.72-.66,3.7-1.46,3.66-2.97,3.53-10.24-.21-13.13-2.64-2.04-5.71-2.56-8.83-1.41-3,1.1-4.47,3.56-4.99,6.65-.08.46-.16,1.06-.46,1.32-1.33,1.12-2.7,2.22-4.16,3.18-.8.53-1.7.28-2.38-.45-1.28-1.38-2.29-2.92-2.11-4.9.15-1.58.4-3.16.7-4.72.16-.86,0-1.37-.92-1.54-1.09-.21-2.17-.57-3.27-.69-3.71-.42-6.73,1.42-8.08,4.83-1.49,3.8-.57,7.58,2.38,9.82,1.54,1.17,3.31,1.71,5.17,2.05,3.14.58,4.46,2.19,4.48,5.37,0,.44,0,.88-.02,1.32-.31,6.22-.66,12.44-.93,18.66-.48,11.33-1.04,22.65-1.32,33.98-.19,7.7.01,15.42.05,23.13,0,.7.09,1.41.14,2.15h9.63ZM86.62,90.89c-.6-.4-1.02-.7-1.45-.98-1.92-1.22-3.92-2.33-5.73-3.69-2.19-1.63-2.38-3.88-.79-6.36,1.28-1.99,2.94-2.37,5.41-1.18,1.29.62,2.52,1.38,3.84,1.95,3.13,1.36,6.09,1.16,8.66-1.28,4.98-4.74,3.6-12.01-2.75-14.66-2.68-1.12-5.15-.74-7.42,1.04-.72.57-1.39,1.2-2.14,1.73-1.98,1.39-4.03,1.44-6.03.07-.98-.67-1.91-1.45-2.79-2.25-12.69-11.57-25.35-23.16-38.04-34.74-1.46-1.34-3.02-2.57-4.58-3.9-2.62,2.74-5.13,5.38-7.68,8.05.39.37.65.62.91.86,14.32,13.04,28.64,26.08,42.97,39.11,2.74,2.49,3.12,4.6,1.64,8.03-.66,1.52-1.16,3.16-1.43,4.79-.64,3.8.47,6.08,3.58,7.69.77.4,1.61.7,2.44.97,2.08.67,4.03.4,5.78-.93,1.84-1.4,3.65-2.82,5.6-4.33Z"/>
    <path class="cls-1" d="M174.8,40.59c-1.83,3.85-4.87,6.68-7.59,9.75-6.38,7.2-12.8,14.36-19.23,21.51-.77.85-1.63,1.66-2.59,2.28-1.79,1.15-3.62.79-5.29-.87-1.45-1.44-1.68-3.07-.62-4.9.36-.62.78-1.21,1.26-1.74,8.25-9.16,16.51-18.32,24.79-27.46,1.72-1.9,4.05-2.07,6.39-1.99.35.01.76.42,1.01.74.67.88,1.27,1.82,1.87,2.69Z"/>
    <path class="cls-1" d="M194.45,118.01c-.39,3.16-3.53,4.99-6.83,3.92-3.53-1.14-7.05-2.29-10.55-3.52-8.31-2.92-16.61-5.88-24.92-8.83-2.27-.81-3.36-2.62-3.85-4.82-.12-.55.17-1.37.54-1.84,1.98-2.48,2.84-2.72,6.14-1.61,5.14,1.73,10.25,3.53,15.37,5.32,6.58,2.31,13.17,4.61,19.73,6.99,1.06.38,2.12,1,2.92,1.78.68.66.98,1.71,1.44,2.59Z"/>
    <path class="cls-1" d="M148.39,87.72c.1-3.02,1.47-4.84,3.99-5.49,10.11-2.61,20.23-5.21,30.35-7.78,2.19-.56,4.58.52,5.69,2.47.81,1.44-.63,4.59-2.4,5.09-7.44,2.09-14.89,4.16-22.35,6.21-3.65,1-7.31,1.97-10.99,2.89-.44.11-1.06-.06-1.45-.31-.73-.47-1.42-1.05-2-1.7-.43-.47-.68-1.11-.83-1.38Z"/>
    <path class="cls-1" d="M115.09,107.51c-3.29-.17-6.51-.7-9.54-2.03-1.93-.85-3.67-1.97-4.86-3.76-1.66-2.49-2.03-5.12-.44-7.77,2.65-4.42,6.31-7.84,10.89-10.16,4.12-2.08,8.37-.65,10.14,3.63,1.19,2.88,1.79,6.02,2.49,9.08.34,1.49.59,3.11.39,4.61-.55,4.19-3.99,6.78-8.24,6.46-.28-.02-.56-.04-.83-.06Z"/>
  </g>
</svg>