<?xml version="1.0" encoding="UTF-8"?>
<svg id="Layer_2" data-name="Layer 2" xmlns="http://www.w3.org/2000/svg" viewBox="0 0 329.43 511.63">
  <defs>
    <style>
      .cls-1 {
        fill: #000;
      }

      .cls-1, .cls-2, .cls-3, .cls-4, .cls-5, .cls-6, .cls-7, .cls-8, .cls-9, .cls-10 {
        stroke-width: 0px;
      }

      .cls-2 {
        fill: #fcfcfc;
      }

      .cls-3 {
        fill: #0d0d0d;
      }

      .cls-4 {
        fill: #0c0c0c;
      }

      .cls-5 {
        fill: #0b0b0b;
      }

      .cls-6 {
        fill: #0f0f0f;
      }

      .cls-7 {
        fill: #080808;
      }

      .cls-8 {
        fill: #fdfdfd;
      }

      .cls-9 {
        fill: #010101;
      }

      .cls-10 {
        fill: #f3f3f3;
      }
    </style>
  </defs>
  <g id="Layer_1-2" data-name="Layer 1">
    <path class="cls-1" d="M249.35,209.2c.41,4.8-2.77,7.01-7.1,7.89-4.41-.61-7.45-2.74-7.45-7.54-.01-4.24,2.55-6.94,6.57-7.24,4.54-.34,7.59,2.32,7.98,6.89Z"/>
    <path class="cls-1" d="M285.75,256.87c-4.16,0-6.82,2.51-7.08,6.7-.29,4.64,2.3,7.74,6.85,7.86,4.4.11,7.15-2.71,7.94-7.43-.66-4.3-3.1-7.14-7.71-7.13ZM301.18,325.04c-4.16.13-6.88,2.76-7.03,6.8-.17,4.51,2.64,7.14,7.1,7.83,4.59-.51,7.68-3.01,7.62-7.49-.06-4.44-3.01-7.28-7.69-7.14ZM301.18,325.04c-4.16.13-6.88,2.76-7.03,6.8-.17,4.51,2.64,7.14,7.1,7.83,4.59-.51,7.68-3.01,7.62-7.49-.06-4.44-3.01-7.28-7.69-7.14ZM285.75,256.87c-4.16,0-6.82,2.51-7.08,6.7-.29,4.64,2.3,7.74,6.85,7.86,4.4.11,7.15-2.71,7.94-7.43-.66-4.3-3.1-7.14-7.71-7.13ZM285.75,256.87c-4.16,0-6.82,2.51-7.08,6.7-.29,4.64,2.3,7.74,6.85,7.86,4.4.11,7.15-2.71,7.94-7.43-.66-4.3-3.1-7.14-7.71-7.13ZM301.18,325.04c-4.16.13-6.88,2.76-7.03,6.8-.17,4.51,2.64,7.14,7.1,7.83,4.59-.51,7.68-3.01,7.62-7.49-.06-4.44-3.01-7.28-7.69-7.14ZM301.18,325.04c-4.16.13-6.88,2.76-7.03,6.8-.17,4.51,2.64,7.14,7.1,7.83,4.59-.51,7.68-3.01,7.62-7.49-.06-4.44-3.01-7.28-7.69-7.14ZM285.75,256.87c-4.16,0-6.82,2.51-7.08,6.7-.29,4.64,2.3,7.74,6.85,7.86,4.4.11,7.15-2.71,7.94-7.43-.66-4.3-3.1-7.14-7.71-7.13ZM327.09,320.03c-.41-.9-.86-1.85-1.52-2.56-3.51-3.8-4.11-7.03-1.08-12.11,3.59-6.02,4.05-13.29,1.1-20.22-3.11-7.32-6.2-14.65-9.33-21.97-4.46-10.43-8.52-21.2-20.57-25.48-1.9-.67-2.23-2.13-2.5-3.84-4-25.41-23.8-37.69-42.63-50.5-3.44-2.34-4.23-3.72-3.19-7.43,3.67-13.11,6.96-26.33,10.55-39.46,2.78-10.19,15.93-13.99,24.14-7.07,5.6,4.73,11.05,9.63,16.72,14.26,3.93,3.21,8.39,6.79,13,1.51,4.4-5.04,1.23-9.14-2.91-12.66-4.57-3.89-9.37-7.54-13.55-11.8-1.99-2.03-8.1-2.94-3.84-7.99,3.02-3.58,5.13-9.09,11.83-6.12,3.31,1.47,6.92,2.38,10.47,3.15,4.32.93,8.23,0,9.56-4.79,1.24-4.47-.74-7.37-5.12-9.38-20.36-9.32-24.94-8.36-39.57,9-.86,1.02-1.62,2.14-2.57,3.06-7.7,7.4-20.26,7.34-27.72-.08-1.42-1.41-2.83-2.82-4.26-4.22-3.63-3.54-7.74-4.48-11.38-.59-3.18,3.4-2.5,7.38.6,10.77,2.02,2.21,3.94,4.64,6.34,6.36,5.13,3.68,5.52,8.01,3.8,13.77-4.19,14-7.56,28.24-11.72,42.24-3.49,11.72-11.8,19.61-23.13,23.24-14.21,4.55-28.93,7.52-43.24,11.8-5.31,1.58-8.56.43-12.23-3.36-12.99-13.39-26.1-26.68-39.58-39.56-4.27-4.08-4.98-7.89-3.47-13.19,3.57-12.45,6.92-24.97,10.08-37.53,3.35-13.35,4.78-27.86,23.8-28.38,3.63-.09,6.27-4.05,5.13-8.33-1.18-4.43-4.41-6.6-9.07-5.7-3.25.63-6.4,1.75-9.62,2.59-6.31,1.66-28.05-13.49-28.53-20.02-.09-1.14.71-2.52,1.45-3.53,4.73-6.39,4.25-13.75,4.16-21.08-.07-5.67-.42-11.35-7.95-11.18-6.9.17-7.13,5.69-7.34,10.88q-.73,18.1-17.53,14.38c-.32-.07-.62-.25-.94-.33-4.72-1.14-8.86-.53-10.43,4.74-1.55,5.22,1.3,8.22,6.06,9.66,3.49,1.06,7.03,2.02,10.59,2.8,14.66,3.19,20.86,16.71,30.98,25.42,1.85,1.59.21,4.37-.4,6.62-3.66,13.46-7.27,26.93-10.83,40.42q-5.72,21.7-27.6,24.97c-.99.14-1.98.29-2.97.44-2.5.38-4.73.05-5.74-2.65-5-13.33-15.56-10.65-25.91-9.33-5.2.67-9.59,2.18-9.37,8.01.23,5.96,4.81,7.32,10.06,6.86,1.65-.15,3.31-.31,4.97-.46,3-.27,5.89-.68,7.56,2.93,1.69,3.64-1.69,4.53-3.12,6.43-1.19,1.58-2.81,2.84-4.08,4.37-2.95,3.55-3.41,7.5.06,10.69,3.42,3.14,8.03,3.01,10.62-.68,8.9-12.65,22.62-12.05,35.57-14.19,5.56-.92,9.27.37,13.11,4.43,10.09,10.63,19.77,21.92,31.22,30.89,12.35,9.68,12.77,19.13,7.71,33.05-5.46,15.03-10.65,28.2-28.57,30.88-1.85.28-3.65,1.58-5.25,2.7-2.86,2-3.21,4.94-2.24,8.03,1.04,3.31,3.74,4.94,6.9,4.59,3.23-.36,6.43-1.55,9.51-2.72,11.66-4.43,11.59-4.46,15.94,7.58,1.75,4.87,4.12,10.07,10.47,7.89,6.04-2.08,5.92-7.3,3.76-12.51-4.78-11.54-5.36-22.92.62-34.34,1.67-3.19,2.73-6.85,3.34-10.41,2.15-12.54,8.71-19.79,21.97-21.02,6.19-.57,12.32-2.78,18.27-4.84,10.04-3.48,16.72-5.14,23.8,7.79,7.35,13.44,19.8,24.88,34.07,32.82,1.76.98,3.1,1.94,3.36,4.39,1.85,17.65,11.5,32.25,18.95,47.71.93,1.91,3.07,2.93,1.58,6.01-7.36,15.22-8.58,31.88-10.45,48.34-.33,2.87-.76,5.08-3.46,6.5-8.67,4.54-15.05,12.01-22.71,17.85-11.25,8.56-20.08,18.37-16.63,34.66-27.36-1.5-47.37-13.19-61.38-35.23-3.61-5.68-6.24-10.48-.16-17.46,7.02-8.07,3.67-20.94-5.02-27.24-9.27-6.72-21.62-4.99-28.48,3.98-6.7,8.77-6.54,22.59,2.93,27.39,10.73,5.44,14.02,15.03,19.53,23.66,3.6,5.65,7.93,10.67,12.68,15.36,13.23,13.06,29.53,20.18,48.64,24.05-17.74,10.95-35.86,13.48-54.8,13.37-6.23-.04-10.15-1.58-13.9-6.92-14.35-20.45-33.99-33.44-58.59-38.33-12.8-2.55-25.86-2.1-38.85-1.89-4.56.07-7.7-.83-10.89-4.91-8.04-10.29-21.84-10.91-30.62-2.27-8.19,8.07-8.14,21.65.11,29.57,9.16,8.79,22.85,7.59,31.23-3.34,2.37-3.09,4.51-4.17,8.13-4.08,9.32.23,18.69-.38,27.97.33,23.23,1.78,42.22,11.72,57.87,31.67-19.67,0-37.52-.14-55.38.08-5.83.07-10.11-.57-14.16-6.12-6.79-9.29-20.76-9.46-29.25-1.7-8.07,7.39-8.7,20.48-1.38,28.81,7.4,8.43,21.73,10.55,28.26,1.82,6.82-9.11,14.91-7.56,23.57-8.12,46.07-2.95,93.58,9.16,139.33-14.47-13.38,19.82-30.19,30.57-51.76,33.73-5.86.87-10.89,1.41-14.49-6.18-4.22-8.9-15.11-11.37-24.29-7.85-8.99,3.45-13.64,12.29-12.64,22.38.92,9.3,8.01,13.04,14.35,17.64h10c8.42-2.68,13.83-10.16,24.17-10.98,33.39-2.63,57.83-19.86,72.16-50.52,2.02-4.31,3.57-6.68,9.45-5.3,6.91,1.63,13.77-1.18,19.59-5.4,4.99-3.62,12.4-7.26,7.25-14.73-5.04-7.3-10.39-1.69-15.03,2.11-.25.21-.56.36-.84.54-6.51,4.04-12.94,3.99-17.92-2-4.97-5.98-4.29-12.66,1.36-17.9,8.06-7.45,16.46-14.56,25.03-21.42,5.13-4.1,11.02-4.6,16.56-.42,5.22,3.93,6.26,9.41,3.96,15.17-2.06,5.18-3.26,10.18,2.98,12.53,6.78,2.57,9.34-2.65,11.4-7.93,1.24-3.17,1.84-6.4,1.54-9.76-.3-3.32,1.05-5.12,3.92-7.1,14.27-9.88,25.27-52.67,17.93-68.49ZM25.78,413.81c-.33,2.21-2.36,4.18-5.83,3.77-3.49-.42-4.97-2.79-4.66-6.31.29-3.35,2.89-4.72,5.39-4.59,3.07.16,5.57,2.06,5.1,7.13ZM46.28,464.5c-2.69-.1-4.9-1.73-4.97-5.05-.07-3.62,1.77-5.76,5.21-5.83,3.44-.08,5.39,2.02,5.42,3.15.01,6.23-2.5,7.85-5.66,7.73ZM139.05,496.1c-3.12-.18-5.04-2.17-5.17-4.99-.15-3.33,1.78-5.54,5.4-5.71,3.79-.18,5.06,2.39,5.85,5.44-.82,3.15-2.4,5.46-6.08,5.26ZM265.42,244.21c-2.61,3.61-6.38.51-8.56-1.57-8.61-8.22-17.19-16.52-25.15-25.36-4.47-4.97-4.04-11.25.31-16.32,3.99-4.67,9.86-6.81,15.1-3.07,11.33,8.1,20.66,18.45,29.56,29.11.93,1.12.81,3.12.95,3.76.59,9.57-8.69,8.6-12.21,13.45ZM274.5,270.83c-3.15-7.57-2.29-14.55,5.68-18.71,6.85-3.58,14.39-.09,18.45,8.38,3.87,8.05,7.4,16.26,10.92,24.47,5.6,13.12,2.73,17.84-11.8,19.03-5.78,2.61-8.79-.93-11.06-5.99-4.07-9.06-8.37-18.02-12.19-27.18ZM314.24,334.51c-1.44,10.48-3.28,20.94-5.66,31.24-2.42,10.55-6.97,12.03-16.44,6.24-4.15-2.54-11.22-2.52-9.52-10.54,2.07-10.71,3.86-21.48,6.3-32.11,1.87-8.1,7.64-11.54,15.69-9.85,7.91,1.67,10.63,7.71,9.63,15.02ZM301.18,325.04c-4.16.13-6.88,2.76-7.03,6.8-.17,4.51,2.64,7.14,7.1,7.83,4.59-.51,7.68-3.01,7.62-7.49-.06-4.44-3.01-7.28-7.69-7.14ZM293.46,264c-.66-4.3-3.1-7.14-7.71-7.13-4.16,0-6.82,2.51-7.08,6.7-.29,4.64,2.3,7.74,6.85,7.86,4.4.11,7.15-2.71,7.94-7.43ZM285.75,256.87c-4.16,0-6.82,2.51-7.08,6.7-.29,4.64,2.3,7.74,6.85,7.86,4.4.11,7.15-2.71,7.94-7.43-.66-4.3-3.1-7.14-7.71-7.13ZM301.18,325.04c-4.16.13-6.88,2.76-7.03,6.8-.17,4.51,2.64,7.14,7.1,7.83,4.59-.51,7.68-3.01,7.62-7.49-.06-4.44-3.01-7.28-7.69-7.14ZM301.18,325.04c-4.16.13-6.88,2.76-7.03,6.8-.17,4.51,2.64,7.14,7.1,7.83,4.59-.51,7.68-3.01,7.62-7.49-.06-4.44-3.01-7.28-7.69-7.14ZM285.75,256.87c-4.16,0-6.82,2.51-7.08,6.7-.29,4.64,2.3,7.74,6.85,7.86,4.4.11,7.15-2.71,7.94-7.43-.66-4.3-3.1-7.14-7.71-7.13ZM285.75,256.87c-4.16,0-6.82,2.51-7.08,6.7-.29,4.64,2.3,7.74,6.85,7.86,4.4.11,7.15-2.71,7.94-7.43-.66-4.3-3.1-7.14-7.71-7.13ZM285.75,256.87c-4.16,0-6.82,2.51-7.08,6.7-.29,4.64,2.3,7.74,6.85,7.86,4.4.11,7.15-2.71,7.94-7.43-.66-4.3-3.1-7.14-7.71-7.13Z"/>
    <path class="cls-9" d="M233.52,0c4.72,9.01,1.95,28.26-5.47,35.77-7.01,7.1-14,14.01-18.3,23.37-2.29,4.98-2.72,8.28,1.94,11.89,3.38,2.62,6.48,5.83,8.98,9.3,2.31,3.21,2.18,6.97-1.18,9.83-2.93,2.5-6.02,2.45-9.08.14-.79-.6-1.76-1.12-2.28-1.91-7.74-11.67-17.74-14.22-30.49-8.4-4.7,2.14-9.74,1.01-11.17-4.76-1.42-5.74,2.52-8.26,7.62-9.51,10.19-2.49,20.79-3.91,24.57-16.65,1.28-4.31,2.57-7.79.66-12.06-1.76-3.93-3.17-8.02-4.6-12.09-1.43-4.07-.09-7.32,3.73-9.1,4.37-2.05,7.82-.4,9.91,3.76,1.48,2.95,2.57,6.1,3.91,9.36,5.14-2.16,6.95-6.03,7.74-11.32.91-6.07,1.1-12.57,5.51-17.63h7.99Z"/>
    <path class="cls-9" d="M183.92,144.55c-.2,4.29-2.94,6.84-6.85,6.92-4.35.09-7.43-2.45-7.52-7.23-.09-4.84,2.97-6.88,7.24-7.51,4.5.77,7.34,3,7.13,7.82Z"/>
    <path class="cls-9" d="M174.8,109.55c-13.01-.98-24.02,4.96-29.53,16.14-5.89,11.97-4.48,23.27,4.16,33.32,4.31,5.02,8.99,9.9,14.24,13.89,9.52,7.25,20.28,8.12,31,2.89,11.11-5.42,16.58-14.81,16.96-24.7-.09-19.09-20.07-40.29-36.83-41.54ZM181.54,163.87c-9.48.01-24.26-14.68-24.41-24.27-.14-8.31,6.75-15.46,14.93-15.46,9.12,0,24.45,15.21,24.61,24.44.14,8.18-6.89,15.28-15.13,15.29Z"/>
    <path class="cls-5" d="M284.53,395.92c-.35,4.23-2.63,7.41-7.23,7.45-4.5.04-7.44-2.84-7.51-7.43-.06-4.17,2.64-6.86,6.68-7.19,4.6-.37,7.35,2.24,8.06,7.16Z"/>
    <path class="cls-8" d="M293.46,264c-.79,4.72-3.54,7.54-7.94,7.43-4.55-.12-7.14-3.22-6.85-7.86.26-4.19,2.92-6.7,7.08-6.7,4.61,0,7.05,2.83,7.71,7.13Z"/>
    <path class="cls-2" d="M308.87,332.18c.06,4.48-3.03,6.98-7.62,7.49-4.46-.69-7.27-3.32-7.1-7.83.15-4.04,2.87-6.67,7.03-6.8,4.68-.14,7.63,2.7,7.69,7.14Z"/>
    <path class="cls-8" d="M242.25,217.09c-4.41-.61-7.45-2.74-7.45-7.54-.01-4.24,2.55-6.94,6.57-7.24,4.54-.34,7.59,2.32,7.98,6.89.41,4.8-2.77,7.01-7.1,7.89Z"/>
    <path class="cls-10" d="M151.73,360.47c-.34,3.41-2.15,5.49-5.66,5.38-3.6-.11-5.18-2.51-5.08-5.85.09-3.07,2.12-4.86,5.06-4.88,3.31-.01,5.5,1.73,5.69,5.35Z"/>
    <path class="cls-2" d="M183.92,144.55c-.2,4.29-2.94,6.84-6.85,6.92-4.35.09-7.43-2.45-7.52-7.23-.09-4.84,2.97-6.88,7.24-7.51,4.5.77,7.34,3,7.13,7.82Z"/>
    <path class="cls-6" d="M293.46,264c-.79,4.72-3.54,7.54-7.94,7.43-4.55-.12-7.14-3.22-6.85-7.86.26-4.19,2.92-6.7,7.08-6.7,4.61,0,7.05,2.83,7.71,7.13Z"/>
    <path class="cls-3" d="M308.87,332.18c.06,4.48-3.03,6.98-7.62,7.49-4.46-.69-7.27-3.32-7.1-7.83.15-4.04,2.87-6.67,7.03-6.8,4.68-.14,7.63,2.7,7.69,7.14Z"/>
    <path class="cls-4" d="M242.25,217.09c-4.41-.61-7.45-2.74-7.45-7.54-.01-4.24,2.55-6.94,6.57-7.24,4.54-.34,7.59,2.32,7.98,6.89.41,4.8-2.77,7.01-7.1,7.89Z"/>
    <path class="cls-7" d="M183.92,144.55c-.2,4.29-2.94,6.84-6.85,6.92-4.35.09-7.43-2.45-7.52-7.23-.09-4.84,2.97-6.88,7.24-7.51,4.5.77,7.34,3,7.13,7.82Z"/>
  </g>
</svg>