<?xml version="1.0" encoding="UTF-8"?>
<svg id="Layer_2" data-name="Layer 2" xmlns="http://www.w3.org/2000/svg" viewBox="0 0 384 384">
  <defs>
    <style>
      .cls-1 {
        fill: #000;
      }

      .cls-1, .cls-2 {
        stroke-width: 0px;
      }

      .cls-2 {
        fill: #fff;
      }
    </style>
  </defs>
  <g id="Layer_1-2" data-name="Layer 1">
    <path class="cls-1" d="M319.5,384h-19.5c-14.95-3.48-29.32-8.44-40.41-19.58-3.89-3.91-7.01-3.76-11.7-2.14-104.19,36.09-216.06-24.51-242.42-131.31-2.31-9.37-3.67-18.97-5.47-28.47,0-11,0-22,0-33,.46-1.66,1.15-3.29,1.35-4.98C10.7,85.37,69.17,20.95,146.88,4.31,154.38,2.71,161.96,1.43,169.5,0c11,0,22,0,33,0,1.92.46,3.82,1.1,5.77,1.36,65.03,8.78,113.39,42.27,143.78,100.04,24.8,47.14,27.08,96.74,10.07,147.24-.79,2.34-1.68,6.22-.52,7.39,12.23,12.32,18.8,27.36,22.39,43.98v19.5c-.48,1.36-1.13,2.69-1.42,4.09-3.99,19.64-13.74,35.99-30.64,46.58-9.84,6.17-21.56,9.32-32.44,13.83ZM318.93,186.72c-1.87-70.18-57.4-128.48-126.25-131.09-86.46-3.27-151.6,73.62-134.17,158.39,15.63,76.03,98.55,122.54,171.08,96,3.53-1.29,5.61-2.75,6.02-7.19,3.33-36.2,31.11-64.04,67.08-67.23,4.35-.39,6.41-2.11,7.22-5.89,3.06-14.32,6.03-28.66,9.03-42.99ZM347.19,244.51c25.38-65.52,6.12-155.47-70.36-203.63C205.22-4.21,111.5,10.61,55.57,75.8.58,139.89,1.46,235.11,58.01,299.72c56.18,64.18,141.15,67.5,186.27,46.87-2.8-7.42-5.6-14.83-8.56-22.67-34.04,11.23-68.14,11.57-101.82-1.53-33.69-13.1-59.19-35.82-76.28-67.64-30.06-55.94-19.99-124.55,24.7-170.38,44.09-45.21,113.05-56.84,169.21-28.42,28.3,14.32,50.01,35.53,64.46,63.75,19.18,37.48,20.84,76.43,7.97,116.05,7.89,2.98,15.31,5.78,23.23,8.77ZM250.22,309.24c-.11,32.96,26.41,59.72,59.21,59.74,32.46.02,59.27-26.46,59.54-58.82.28-32.94-26.1-59.73-59-59.93-33.14-.2-59.64,25.96-59.75,59.01Z"/>
    <path class="cls-2" d="M319.5,384c10.88-4.51,22.6-7.66,32.44-13.83,16.91-10.59,26.65-26.94,30.64-46.58.28-1.4.94-2.73,1.42-4.09v64.5h-64.5Z"/>
    <path class="cls-1" d="M228.56,154.42c5.54,5.01,10.61,9.45,15.5,14.07,3.78,3.58,4.95,7.81.75,11.7-3.8,3.53-7.8,2.42-11.23-1.07-4.69-4.78-9.34-9.6-13.95-14.35-7.55,7.73-14.45,14.8-22.5,23.04,4.44,4.02,9.25,8.3,13.96,12.69,3.71,3.45,5.5,7.64,1.59,11.76-4.23,4.47-8.55,2.6-12.3-1.27-4.34-4.47-8.66-8.96-12.5-12.93-7.35,7.49-14.25,14.53-23.09,23.53,3.68,3.05,8.92,7.18,13.92,11.58,3.85,3.39,5.26,7.66,1.37,11.75-3.96,4.17-8.19,2.76-11.72-.99-4.6-4.89-9.04-9.94-14.07-15.5-9.3,9.53-17.52,17.89-25.67,26.33-3.7,3.84-7.87,6.07-12.3,1.78-4.49-4.34-2.27-8.52,1.55-12.26,8.37-8.18,16.67-16.42,25.9-25.52-5.19-4.96-9.82-9.39-14.46-13.82-3.93-3.75-5.65-8.06-1.33-12.33,4.12-4.06,8.24-2.17,11.7,1.53,4.43,4.73,8.78,9.53,13.03,14.15,7.83-7.98,14.79-15.07,23.16-23.61-4.39-3.83-9.52-8.15-14.46-12.69-3.78-3.48-5.17-7.72-1.11-11.74,4.07-4.03,8.2-2.44,11.76,1.23,4.52,4.64,8.98,9.33,13.08,13.6,7.46-7.58,14.38-14.6,22.41-22.75-3.88-3.64-8.71-8.16-13.51-12.71-3.7-3.51-5.45-7.61-1.38-11.7,3.93-3.95,8.19-2.82,11.77.98,4.45,4.71,8.8,9.53,13.87,15.04,9.26-9.28,17.45-17.95,26.22-25.97,2.33-2.13,6.77-3.7,9.7-3.06,5.32,1.17,5.99,8.05,1.44,12.7-8.54,8.72-17.34,17.17-27.12,26.81Z"/>
    <path class="cls-1" d="M309.4,317.9c-4.92,5.84-8.3,10.16-12.01,14.18-3.34,3.63-7.5,4.36-11.21.82-3.8-3.62-2.95-7.71.57-11.17,3.91-3.84,8.03-7.49,13.66-12.7-5.08-4.36-9.55-7.91-13.67-11.81-3.58-3.38-4.31-7.48-.53-11.17,3.8-3.71,7.83-2.72,11.19.81,3.78,3.97,7.28,8.2,11.54,13.04,4.87-5.04,8.59-8.98,12.41-12.83,3.66-3.69,7.85-4.95,11.71-.73,3.47,3.79,2.53,7.96-1.13,11.21-4.09,3.63-8.48,6.92-14.03,11.41,6.14,5.42,10.41,8.89,14.33,12.73,3.48,3.41,4.28,7.6.53,11.23-3.75,3.62-7.92,2.64-11.24-.87-3.74-3.96-7.12-8.27-12.12-14.15Z"/>
  </g>
</svg>