<?xml version="1.0" encoding="UTF-8"?>
<svg id="Layer_2" data-name="Layer 2" xmlns="http://www.w3.org/2000/svg" viewBox="0 0 335.55 372.94">
  <defs>
    <style>
      .cls-1 {
        fill: #000;
        stroke-width: 0px;
      }
    </style>
  </defs>
  <g id="Layer_1-2" data-name="Layer 1">
    <path class="cls-1" d="M266.87,182.03c-1.68-33.64-15.02-58.67-42.18-75.45-50.11-30.96-100.46-61.53-150.62-92.4-4.02-2.47-11.55-4.38-7.03-11.3,3.98-6.1,8.92-1.04,12.93,1.4,49,29.9,97.98,59.83,146.9,89.86,41.36,25.39,57.89,62.9,48.52,110.32-10.4,52.62-20.96,105.2-31.65,157.76-.94,4.61-.31,12.28-8.36,10.43-7.39-1.7-3.92-8.14-3.04-12.58,10.56-53.35,21.35-106.65,31.95-159.99,1.31-6.58,1.91-13.3,2.58-18.06Z"/>
    <path class="cls-1" d="M175.73,183.78c-11.7-.09-22.16-7.41-24.66-19.16-3-14.07-10.99-23.23-23-30.57-28.56-17.44-56.65-35.64-84.93-53.54-1.06-.67-2.66-1.06-3.09-2.01-1.28-2.79-2.11-5.78-3.11-8.7,3.05-.39,6.85-2.13,9.03-.93,9.18,5.03,17.89,10.93,26.75,16.53,21.75,13.74,43.39,27.66,65.26,41.19,12.37,7.65,20.48,18.08,23.48,32.34,1.55,7.39,5.49,12.28,13.34,12.99,7.52.68,12.01-3.32,15.65-11.22,2.75-5.98,6.49-11.69,10.71-16.76,5.46-6.57,6.98-12.75,3.16-19.05-3.74-6.15-10.56-8.57-18.26-5.69-11.76,4.4-22.24,2.5-32.69-4.21-31.52-20.24-63.29-40.11-94.94-60.14-1.68-1.06-3.94-1.96-4.7-3.53-.96-1.97-1.6-5.15-.62-6.69.97-1.53,4.18-2.37,6.32-2.21,2.02.15,3.97,1.91,5.87,3.1,31.28,19.7,62.63,39.28,93.74,59.23,7.77,4.98,15.03,6.51,23.95,3.18,12.38-4.62,24.68.08,31.25,10.78,6.66,10.83,4.72,22.92-4.36,32.94-3.73,4.12-6.78,9.18-8.94,14.32-4.68,11.12-13.68,17.88-25.21,17.79Z"/>
    <path class="cls-1" d="M178.3,193.84c17.35,3.3,34.06,8.93,45.54,24.37,4.66,6.27,5.56,15.92-.26,20.75-20.11,16.72-22.34,40.22-26.04,63.39-2.21,13.79-4.8,27.52-7.07,41.31-.68,4.16-2.09,7.64-6.95,6.83-4.83-.8-5.09-4.51-4.36-8.69,4.08-23.34,7.9-46.73,12.06-70.06,2.53-14.2,9.45-26.14,19.83-36.13,6.37-6.13,5.63-7.47.25-14.05-8.28-10.13-20.3-12-31.45-15.28-3.61-1.06-10.13,1.77-12.7,4.94-2.36,2.91-3.3,10.37-1.25,12.91,13.57,16.81,11.36,35.15,7.63,54.21-3.88,19.82-6.97,39.8-10.3,59.73-.76,4.54-1.83,8.95-7.63,7.77-5.37-1.09-4.68-5.61-3.98-9.69,4.21-24.59,8.4-49.18,12.65-73.76,1.83-10.6.17-20.11-6.74-28.86-6.23-7.89-6.92-17-2.26-26.05,4.64-9.02,12.33-13.4,23.04-13.63Z"/>
    <path class="cls-1" d="M129.85,191.38c-25-13.86-49.96-26.07-73.12-41.05-18.53-11.99-34.93-27.3-52.14-41.3-2.03-1.65-4.06-4.15-4.55-6.57-.36-1.8,1.76-5.84,2.79-5.84,2.8-.01,6.14.92,8.33,2.65,16.98,13.48,32.63,29,50.85,40.46,23.56,14.82,49,26.69,73.87,39.35,10.46,5.32,10.98,5.6,5.45,15.98-11.04,20.73-16.56,42.08-13.29,66.21,3.53,26.13-3.87,51.55-10.63,76.68-1.1,4.09-1.85,8.46-3.91,12.05-1.41,2.46-5.05,5.53-7.26,5.23-4.5-.62-4.65-4.53-3.61-8.82,4.59-18.89,9.72-37.72,12.85-56.87,1.82-11.14,1.11-22.92-.03-34.25-2.11-20.95,3.34-40.05,11.9-58.67.93-2.02,1.92-4.01,2.5-5.23Z"/>
    <path class="cls-1" d="M234.38,198.89c-5.21-.45-10.71-.72-16.15-1.43-11.17-1.44-16.43-11.8-10.88-21.61,2.94-5.2,6.18-10.28,9.72-15.09,6.38-8.71,16.43-9,23.53-.74,3.9,4.54,7.32,9.48,11.05,14.17,4.21,5.29,6.05,10.95,2.61,17.3-3.42,6.31-9.08,8.09-15.86,7.42-1.24-.12-2.49-.02-4.01-.02ZM214.85,185.77c11.21.58,20.08,1.03,28.96,1.49.3-.86.59-1.73.89-2.59-4.99-6.48-9.99-12.96-15.89-20.61-4.78,7.44-8.67,13.5-13.95,21.72Z"/>
    <path class="cls-1" d="M327.01,128.38c1.73,1.41,4.75,2.68,5.02,4.39.34,2.15-.99,6.14-2.59,6.76-10.41,4.01-21.01,7.55-31.74,10.6-1.58.45-5.03-2.09-5.95-4.04-.67-1.43.84-5.51,2.29-6.08,10.62-4.12,21.46-7.66,32.97-11.63Z"/>
    <path class="cls-1" d="M285.98,128.55c-.97-.73-3.4-1.63-3.74-3.03-.51-2.1-.42-5.54.9-6.7,8.21-7.18,16.69-14.08,25.47-20.54,1.44-1.06,5.45-.26,7.07,1.1,1.2,1.01,1.48,5.51.41,6.45-8.75,7.66-17.9,14.86-26.97,22.14-.51.41-1.43.29-3.14.58Z"/>
    <path class="cls-1" d="M303.67,163.9c8.42.94,16.93,1.45,25.22,3.08,2.53.5,4.46,4.06,6.66,6.21-2.62,1.64-5.26,4.7-7.84,4.65-8.45-.14-16.89-1.31-25.3-2.3-4.34-.51-10.14-.4-9.42-6.84.72-6.38,6.18-5.13,10.68-4.8Z"/>
  </g>
</svg>