<?xml version="1.0" encoding="UTF-8"?>
<svg id="Layer_2" data-name="Layer 2" xmlns="http://www.w3.org/2000/svg" viewBox="0 0 337.08 384">
  <defs>
    <style>
      .cls-1 {
        fill: #000;
        stroke-width: 0px;
      }
    </style>
  </defs>
  <g id="Layer_1-2" data-name="Layer 1">
    <path class="cls-1" d="M182.92,0c11.81,4.67,17.02,13.33,17.32,26.03.46,19.22,1.77,38.43,3.8,57.76,1.4-13.5,2.88-27,4.18-40.51,1.42-14.65,10.62-24.01,23.07-23.25,12.6.77,20.57,10.67,20.58,25.62.01,15.87,0,31.74,1.02,47.68,1.16-7.07,2.13-14.18,3.54-21.21,2.22-11.09,11.06-17.59,22.26-16.71,10.46.82,18.83,9.06,18.34,20-2.26,50.64-4.91,101.27-7.68,151.89-.34,6.17-1.72,12.44-3.7,18.3-.86,2.56-4.42,4.22-6.76,6.28-1.39-2.77-4.45-5.91-3.93-8.26,9.9-44.57,6.63-90.07,9.87-135.09.72-9.96.86-19.97,1.32-29.95.29-6.3-1.98-10.89-8.56-12.07-5.34-.96-9.58,3.22-10.64,10.1-4.57,29.86-9.1,59.72-13.64,89.58-.19,1.23-.43,2.46-.62,3.69-.66,4.51-2.04,8.84-7.65,8.1-5.08-.67-5.4-4.96-5.37-9.24.29-39.48.51-78.97.74-118.45.01-2.25.04-4.5.05-6.75.03-6.56-2.46-11.27-9.54-12.04-6.26-.69-10.53,3.32-11.44,11.09-1.31,11.16-2.25,22.36-3.31,33.55-2.58,27.1-4.97,54.22-7.96,81.28-.34,3.12-3.61,7.94-6.14,8.38-5.27.92-6.65-3.88-6.87-8.52-1.57-32.69-3.17-65.38-4.74-98.08-.56-11.73-1.04-23.46-1.65-35.19-.42-7.95-4.41-12.41-11-12.57-6.93-.17-11.47,4.46-11.91,12.51-.39,7.23-.51,14.48-.68,21.73-.09,3.95-1.38,7.65-5.79,6.68-2.11-.46-4.81-4.21-4.97-6.61-.52-8.21-.39-16.5.17-24.72.77-11.13,8.43-16.9,17.77-21.04h10.5Z"/>
    <path class="cls-1" d="M116.9,384c-.93-3.5-2.59-6.98-2.67-10.5-.31-14.24-.31-28.5-.06-42.74.14-7.95-2.38-14.59-7.51-20.55-8.15-9.47-16.03-19.18-24.15-28.68-13.07-15.3-21.41-33.06-26.85-52.21-.7-2.47,1.68-5.82,2.64-8.77,2.57,1.72,6.85,2.98,7.45,5.23,7.55,28.33,25.32,50.24,44.54,71.06,11.23,12.16,16.61,25.55,15.46,42.12-.8,11.44.05,22.99-.28,34.48-.1,3.54-1.68,7.04-2.58,10.56h-6Z"/>
    <path class="cls-1" d="M250.43,384c-1.12-2.87-3.17-5.73-3.22-8.62-.3-16.48-.73-33.01.16-49.45.45-8.27,2.87-16.67,5.71-24.53,3.63-10.05,8.65-19.6,12.95-29.42,1.61-3.68,3.45-7.21,8.18-5.26,4.69,1.92,3.81,5.84,2.22,9.53-3.45,8.01-6.58,16.2-10.57,23.94-5.53,10.7-8.15,21.81-7.86,33.85.33,13.48.27,26.98-.07,40.46-.08,3.19-1.96,6.34-3.01,9.51h-4.5Z"/>
    <path class="cls-1" d="M104.79,203.64c6.32-16.74,6.54-31.94,4.3-47.42-5.36-37.06-10.63-74.14-15.85-111.22-2.07-14.7,5.72-25.63,19.56-27.76,12.08-1.86,22.08,6.32,24.89,20.46,4.66,23.47,9.27,46.95,15.58,70.41,0-8.92-.03-17.85.02-26.77.02-2.74-.43-5.8.61-8.13.93-2.08,3.7-4.72,5.54-4.64,1.85.09,4.23,2.96,5.13,5.12.88,2.13.23,4.92.18,7.41-.45,22.49-.95,44.97-1.36,67.46-.09,5.09-.63,10-7,10.35-5.92.33-7.07-4.34-7.98-8.99-7.04-35.75-14.12-71.48-21.2-107.22-.34-1.71-.73-3.42-1.18-5.11-1.8-6.8-6.25-10.04-12.45-9.09-6.27.96-10.13,6.09-9.24,13.14,1.78,14.12,3.84,28.2,5.82,42.29,3.65,25.96,8.37,51.83,10.58,77.91,1.13,13.37-1.91,27.15-3.62,40.68-.79,6.23-4.78,10.47-11.44,11.04-6.33.54-10.09-3.08-12.9-8.37-7.48-14.11-15.06-28.18-22.78-42.16-4.16-7.53-10.9-10.94-17.84-9.54-7.38,1.48-9.22,4.48-6.83,11.7,3.37,10.18,6.87,20.32,10.4,30.45,1.38,3.97,2.83,8.22-2.54,9.97-5.26,1.71-6.82-2.53-8.15-6.49-3.19-9.45-6.2-18.98-9.67-28.33-2.95-7.93-4.55-15.65,2.34-22.22,7.18-6.84,16.04-7.71,25.2-5.28,8.22,2.18,13.62,7.95,17.55,15.3,7.76,14.5,15.62,28.94,24.33,45.07Z"/>
    <path class="cls-1" d="M57.59,306.09c-3.89-1.39-7.99-3.21-12.28-4.3-6.92-1.76-9.31-5.91-8.11-12.76.76-4.38,1.06-8.84,1.62-13.78-4.23-1.42-8.22-2.68-12.15-4.1-2.1-.76-4.35-1.45-6.1-2.75-4.43-3.29-2.55-29.63,2.37-32.31,1.49-.82,4.53-1.01,5.5-.08,1.55,1.49,2.8,4.2,2.71,6.34-.24,5.69-1.25,11.35-1.94,16.83,6.91,3.24,15.85,4.66,19.07,9.71,3.22,5.05.71,13.74.71,22.05,3.83,1.35,8.4,3.13,13.07,4.56,6,1.83,8.55,5.44,7.4,11.8-.83,4.62-1.11,9.34-1.69,14.43,5.16,1.8,10.48,2.82,14.83,5.45,2.84,1.72,5.88,5.71,6,8.8.27,6.65-.81,13.49-2.36,20.01-.55,2.32-4.07,3.93-6.24,5.87-1.57-2.65-4.38-5.27-4.46-7.97-.16-5.39,1.17-10.82,1.85-16-6.91-3.22-15.86-4.63-19.1-9.69-3.22-5.04-.71-13.75-.71-22.08Z"/>
    <path class="cls-1" d="M326.65,161.14c-3.91-5.57-7.95-10.43-10.86-15.89-1.14-2.15.24-5.64.48-8.52,2.81.7,5.62,1.37,8.41,2.15.37.1.58.78.88,1.18q15.07,19.59-.13,40.95c2.57,3.67,4.95,7.78,8,11.31,5.3,6.13,4.62,11.51-.78,17.11-3.1,3.21-5.73,6.88-8.8,10.62,3.41,4.86,7.48,9.21,9.7,14.35,1.4,3.23,1.32,8.36-.35,11.39-2.97,5.38-7.3,10.18-11.79,14.46-1.78,1.69-5.51,1.33-8.36,1.9-.09-2.89-1.3-6.44-.05-8.53,2.91-4.86,7-9.02,10.89-13.8-3.29-4.67-6.34-9.17-9.57-13.56-3.28-4.46-3.27-8.6.42-12.88,3.58-4.15,6.89-8.53,10.46-12.98-3.01-4.28-5.67-8.5-8.77-12.38-4.36-5.45-3.93-10.32.7-15.35,3.21-3.48,6.04-7.3,9.51-11.54Z"/>
    <path class="cls-1" d="M67.28,62.55c4.08,4.57,11.49,9.25,12.41,14.97.91,5.63-4.75,12.33-7.94,19.5,2.71,2.36,5.99,5.31,9.37,8.15,3.4,2.86,7.14,6.16,3.24,10.49-3.95,4.39-7.77.82-10.83-2.17-5.09-4.99-12.81-9.58-14.09-15.5-1.16-5.34,4.81-12.24,8.13-19.53-15.48-8.14-17.94-19.28-3.46-32.26-4.37-3.83-7.89-6.96-11.45-10.03-3.73-3.22-4.74-7.02-2.11-11.28,3.4-5.52,6.65-11.22,10.8-16.13,1.51-1.79,5.43-1.54,8.25-2.22.31,2.67,1.69,5.83.73,7.91-2.28,4.91-5.67,9.3-8.4,13.57,4.8,5.48,12.15,10.2,13,15.88.85,5.7-4.81,12.37-7.63,18.65Z"/>
    <path class="cls-1" d="M288.26,355.55c2.27,5.51,4.92,10.4,6.16,15.62.63,2.67-1.29,5.94-2.05,8.94-2.66-1.51-5.32-3.02-7.97-4.55-.18-.11-.27-.42-.35-.65-2.63-7.21-8.35-15.09-6.98-21.44,1.32-6.12,9.97-10.66,16-16.46-1.46-3.58-3.17-8.23-5.24-12.71-2.44-5.27-.96-9.11,3.65-12.18,4.13-2.75,8.21-5.57,12.58-8.54-2.08-5.16-4.62-9.86-5.73-14.88-.52-2.35,1.7-5.32,2.67-8,2.43,1.21,4.88,2.38,7.28,3.66.35.18.46.86.62,1.33,2.38,6.99,7.79,14.74,6.28,20.76-1.48,5.91-9.98,10.07-15.95,15.5,1.59,3.89,3.31,8.52,5.35,13,2.39,5.26.97,9.11-3.71,12.15-4.15,2.69-8.22,5.51-12.6,8.45Z"/>
    <path class="cls-1" d="M0,149.15c.11-18.39,14.25-32.58,28.7-32.12,2.07.07,5.38,2.43,5.71,4.18.34,1.82-1.72,5.25-3.61,6.16-22.38,10.74-22.65,11.2-14.56,34.91,2.82,8.26,5.96,16.44,8.22,24.85.58,2.14-1,5.75-2.8,7.28-.96.82-6.04-.75-6.6-2.24-5.73-15.38-10.91-30.96-15.06-43.02Z"/>
    <path class="cls-1" d="M328.55,72.69c0,4.98.6,10.06-.23,14.89-.47,2.77-2.98,6.96-5.09,7.31-4.78.78-5.77-3.38-5.74-7.51.05-8.46.06-16.93,0-25.39-.09-11.12-2.56-13.89-13.35-17.3-2.23-.71-3.7-3.84-5.52-5.85,2.34-1.72,4.63-4.84,7.03-4.93,11.48-.42,22.07,10.2,22.79,22.35.32,5.46.05,10.95.05,16.42.02,0,.05,0,.07,0Z"/>
  </g>
</svg>