<?xml version="1.0" encoding="UTF-8"?>
<svg id="Layer_2" data-name="Layer 2" xmlns="http://www.w3.org/2000/svg" viewBox="0 0 384 380.27">
  <defs>
    <style>
      .cls-1 {
        fill: #000;
        stroke-width: 0px;
      }
    </style>
  </defs>
  <g id="Layer_1-2" data-name="Layer 1">
    <path class="cls-1" d="M384,380.27h-55.93c-.86-19.85-2.23-39.06-2.32-58.27-.06-12.13-1.64-23.25-9.63-32.83-1.38-1.66-2.17-3.81-3.5-6.22,3.04-1.77,5.79-3.37,9.3-5.42,6.04,11.13,15.09,19.76,14.66,34.18-.56,18.67,1.5,37.42,2.46,56.76h33.26v-131.14c-9.11,7.42-18.67,10.66-29.54,7.39-9.3-2.8-14.71-9.88-19.58-18.75,2.73-1.87,5.5-3.77,8.72-5.98,2.22,3.04,4.08,5.9,6.24,8.5,6.7,8.06,17.78,8.62,25.05,1.11,6.17-6.37,10.33-13.12,9.94-23.05-.87-22.22-.27-44.5-.27-66.76v-8.96c-13.29.07-26.05.58-37.06,6.58-38.9,21.19-80.88,27.66-124.37,28.13-13.24.14-26.49.82-39.7,1.66-11.68.74-19.23,8.58-26.51,16.61-1.16,1.28-2.19,2.67-3.43,4.19-2.92-1.79-5.64-3.47-9.06-5.57,5.71-9.53,13.22-16.64,22.63-21.45,4.95-2.53,6.41-5.73,6.74-11.06,1.86-30.44,4.14-60.85,6.33-91.27.16-2.18.7-4.33,1.16-7.03,7.42,2.05,14.32,3.98,21.24,5.88,16.4,4.5,22.79.98,28.09-15.9-3.75-2.1-7.61-4.27-12.23-6.86,1.57-3.12,3.07-6.07,4.57-9.06,6.86,2.6,13.21,5,19.62,7.42.82-2.47,1.19-2.99,1.09-3.39-1.12-4.55-1.26-12.27-3.68-13.06-9.07-3-19-5.52-28.39-4.91-13.09.86-26.01,4.59-38.96,7.29-7.47,1.56-12.08,6-14.25,13.65-4.03,14.16-8.72,28.13-13.17,42.16-.14.44-.57.78-1.18,1.59-2.87-.86-5.9-1.78-9.81-2.95,4.37-14.33,8.96-28.23,12.81-42.33,3.7-13.57,11.95-21.23,25.88-23.54,13.29-2.21,26.35-6.29,39.7-7.47,8.38-.74,17.14,2.13,25.66,3.77,12.43,2.4,12.41,2.55,14.82,15.16,1.26,6.58,2.5,13.16,3.81,20.03-1.79.71-3.12,1.62-4.5,1.71-7.75.48-11.3,4.87-13.98,11.96-5.38,14.22-18.41,20.38-33.34,16.94-4.33-1-8.61-2.23-14.12-3.67-2.18,29.95-4.31,59.17-6.43,88.19.78.52,1.2,1.04,1.59,1.02,31.38-1.91,62.94-2.47,94.08-6.37,16.75-2.1,33.68-8.07,48.91-15.59,21.37-10.55,43.33-14.58,66.63-14.08v261.08Z"/>
    <path class="cls-1" d="M0,249.73c1.76-5.7,3.09-11.56,5.34-17.06,12.89-31.6,43.32-47.32,80.89-41.95,10.83-35.18,21.67-70.38,32.75-106.39,3.59,1.05,6.76,1.98,10.7,3.14-5.09,16.59-9.97,32.5-14.86,48.4-5.06,16.45-10.12,32.91-15.23,49.35-1.89,6.07-1.58,10.26,5.38,13.73,6.94,3.45,12.64,9.38,19.71,14.87-3.75,3.13-6.33,5.29-8.84,7.39-32.15-26.02-62.04-27.56-86.18-4.74-21.21,20.06-24.49,52.78-7.67,76.55,16.9,23.88,48.82,31.78,74.66,18.47,29.15-15.01,38.37-44.43,25.16-81.53,2.65-1.51,5.4-3.08,7.88-4.49.94.45,1.67.57,1.75.87,2.23,8.13,7.87,8.86,15.35,8.48,45.91-2.34,91.84-4.21,137.77-6.25.93-.04,1.85-.3,3.37-.55-1.51-4.78-2.9-9.22-4.56-14.46,3.33-1.15,6.47-2.25,9.68-3.36,7.71,19.43,15.22,38.35,23,57.97-2.62,1.34-5.62,2.87-9.33,4.77-5.14-11.48-10.01-22.35-15.03-33.56-50.56,2.24-101.17,4.49-151.57,6.73-.57,9.4-.12,18.25-1.79,26.69-6.53,33.06-35.02,56.32-68.12,56.4-33.16.08-61.54-22.99-68.76-55.87-.31-1.4-.97-2.72-1.46-4.08,0-6.5,0-13,0-19.51Z"/>
    <path class="cls-1" d="M299.32,110.11c.25,5.48.39,8.43.51,11.03-5.14,2.8-9.86,5.45-14.65,7.96-9.57,5.01-19.27,5.2-28.57-.34-8.74-5.2-16.66-4.89-25.06.92-9.65,6.68-20.04,6.64-30.53,1.5-3.99-1.95-8.15-3.59-12.89-5.66v-10.68c5.73,1.89,11.28,2.9,16,5.45,8.16,4.42,15.49,4.34,23.11-.98,10.67-7.45,21.85-7.82,33.06-1.19,8.01,4.74,15.38,4.02,23.13-.96,4.42-2.84,9.69-4.36,15.91-7.05Z"/>
    <path class="cls-1" d="M163.16,267.63c-.15-2.55-.32-5.71-.62-10.94,6.26,2.02,11.65,2.89,16.13,5.39,8.35,4.67,15.87,4.66,23.75-.81,10.41-7.22,21.39-7.72,32.35-1.3,8.22,4.81,15.76,4.43,23.77-.82,4.36-2.86,9.68-4.25,15.62-6.75v11.17c-4.13,2.21-8.3,4.29-12.31,6.64-9.83,5.76-19.96,6.56-29.83.79-9.02-5.28-17.05-5.13-25.71.89-9.63,6.69-20.03,6.56-30.47,1.29-3.94-1.98-8.08-3.56-12.68-5.56Z"/>
    <path class="cls-1" d="M95.18,278.47c-2.09,3.04-3.9,5.65-5.94,8.61-12.6-7.09-25.14-7.85-38.28.16-2-2.84-3.94-5.59-5.85-8.31,11.98-11.11,34.25-11.48,50.08-.47Z"/>
    <path class="cls-1" d="M42.38,256.09v-10.36h10.18v10.36h-10.18Z"/>
    <path class="cls-1" d="M87.19,256.64v-10.82h10.24c.13,2.82.26,5.87.45,10.11-3.62.24-6.96.46-10.69.71Z"/>
  </g>
</svg>