<svg width="142" height="39" viewBox="0 0 142 39" fill="none" xmlns="http://www.w3.org/2000/svg">
<g clip-path="url(#clip0_495_1233)">
<mask id="mask0_495_1233" style="mask-type:luminance" maskUnits="userSpaceOnUse" x="0" y="0" width="142" height="39">
<path d="M142 0H0V38.6905H142V0Z" fill="white"/>
</mask>
<g mask="url(#mask0_495_1233)">
<path fill-rule="evenodd" clip-rule="evenodd" d="M1.56409 7.86327V4.97693C1.56409 2.93134 2.94209 1.61609 5.02777 1.61609C7.11349 1.61609 8.49146 2.96775 8.49146 4.97693V8.55719H9.98132V4.90409C9.98132 2.09107 8.00745 0.227783 5.02777 0.227783C2.04833 0.227783 0.0742483 2.09107 0.0742483 4.90409V7.93632C0.0742483 13.8546 8.56594 13.7815 8.56594 18.4938V21.8551C8.56594 23.937 7.15084 25.2892 5.02777 25.2892C2.90497 25.2892 1.48961 23.937 1.48961 21.8551V17.8732H0V21.9279C0 24.7776 2.01097 26.6773 5.02777 26.6773C8.04459 26.6773 10.0558 24.7776 10.0558 21.9279V18.421C10.0558 12.5029 1.56409 12.5757 1.56409 7.86327Z" fill="#2E2D2B"/>
<path fill-rule="evenodd" clip-rule="evenodd" d="M13.0879 26.6771H21.1773V25.2412H14.6286V13.9813H20.5995V12.5455H14.6286V1.66342H21.1773V0.227783H13.0879V26.6771Z" fill="#2E2D2B"/>
<path fill-rule="evenodd" clip-rule="evenodd" d="M23.7109 26.6771H31.9929V24.7122H25.8681V14.2458H31.4539V12.281H25.8681V2.19235H31.9929V0.227783H23.7109V26.6771Z" fill="#2E2D2B"/>
<path fill-rule="evenodd" clip-rule="evenodd" d="M43.2072 21.5383C43.2072 23.4655 41.936 24.7123 39.9714 24.7123H36.7355V2.19235H39.9714C41.936 2.19235 43.2072 3.43955 43.2072 5.36634V21.5383ZM40.0867 0.227783H34.5784V26.677H40.0867C43.2842 26.677 45.3641 24.6744 45.3641 21.6518V5.25299C45.3641 2.23036 43.2842 0.227783 40.0867 0.227783Z" fill="#2E2D2B"/>
<mask id="mask1_495_1233" style="mask-type:alpha" maskUnits="userSpaceOnUse" x="48" y="0" width="11" height="27">
<path d="M48.4019 0.227539H58.3402V26.677H48.4019V0.227539Z" fill="white"/>
</mask>
<g mask="url(#mask1_495_1233)">
<path fill-rule="evenodd" clip-rule="evenodd" d="M48.4019 2.79704H51.9455V26.677H54.7963V2.79704H58.3402V0.227539H48.4019V2.79704Z" fill="#2E2D2B"/>
</g>
<path fill-rule="evenodd" clip-rule="evenodd" d="M69.3905 21.5626C69.3905 23.1334 68.3105 24.1931 66.7088 24.1931C65.1074 24.1931 64.0275 23.1334 64.0275 21.5626V5.34219C64.0275 3.77136 65.1074 2.71192 66.7088 2.71192C68.3105 2.71192 69.3905 3.77136 69.3905 5.34219V21.5626ZM66.7088 0.227539C63.4314 0.227539 61.2712 2.23717 61.2712 5.26936V21.599C61.2712 24.6679 63.4314 26.6771 66.7088 26.6771C69.9864 26.6771 72.1466 24.6679 72.1466 21.599V5.26936C72.1466 2.23717 69.9864 0.227539 66.7088 0.227539Z" fill="#2E2D2B"/>
<path fill-rule="evenodd" clip-rule="evenodd" d="M79.0572 8.11879V5.4155C79.0572 4.13666 79.9142 3.29662 81.2553 3.29662C82.5582 3.29662 83.4152 4.13666 83.4152 5.4155V8.92268H86.8416V5.4155C86.8416 2.31002 84.6065 0.227783 81.2553 0.227783C77.8658 0.227783 75.6314 2.31002 75.6314 5.4155V8.48386C75.6314 14.366 83.4897 14.5849 83.4897 18.2748V21.4165C83.4897 22.7317 82.5958 23.6084 81.2553 23.6084C79.8765 23.6084 78.9833 22.7317 78.9833 21.4165V17.544H75.5569V21.4532C75.5569 24.5948 77.8282 26.6771 81.2553 26.6771C84.6442 26.6771 86.9162 24.5948 86.9162 21.4532V17.9462C86.9162 12.0277 79.0572 11.8085 79.0572 8.11879Z" fill="#2E2D2B"/>
<path fill-rule="evenodd" clip-rule="evenodd" d="M95.6725 0.227539C92.283 0.227539 90.011 2.30977 90.011 5.45189V21.4529C90.011 24.5946 92.283 26.6768 95.6725 26.6768C99.0614 26.6768 101.333 24.5946 101.333 21.4529V16.1924H97.9069V21.4162C97.9069 22.7315 97.013 23.6082 95.6725 23.6082C94.3313 23.6082 93.4374 22.7315 93.4374 21.4162V5.48853C93.4374 4.17306 94.3313 3.29638 95.6725 3.29638C97.013 3.29638 97.9069 4.17306 97.9069 5.48853V10.3471H101.333V5.45189C101.333 2.30977 99.0614 0.227539 95.6725 0.227539Z" fill="#2E2D2B"/>
<path fill-rule="evenodd" clip-rule="evenodd" d="M109.31 16.5508L110.35 6.49996V4.34627H111.082V6.49996L112.122 16.5508H109.31ZM107.538 0.227783L103.994 26.677H108.27L108.963 20.0268H112.507L113.201 26.677H117.669L114.164 0.227783H107.538Z" fill="#2E2D2B"/>
<path fill-rule="evenodd" clip-rule="evenodd" d="M124.487 0.227539H120.249V26.6768H128.955V22.8983H124.487V0.227539Z" fill="#2E2D2B"/>
<path fill-rule="evenodd" clip-rule="evenodd" d="M141.075 4.57295V0.227783H131.907V26.677H141.075V22.3319H136.761V15.3792H140.651V11.1474H136.761V4.57295H141.075Z" fill="#2E2D2B"/>
<path fill-rule="evenodd" clip-rule="evenodd" d="M137.259 32.1957C137.048 32.184 136.815 32.2459 136.608 32.3943C136.065 32.7855 135.847 33.3463 135.75 33.9686C135.718 34.1679 135.85 34.155 135.979 34.124C136.588 33.9775 137.195 33.8286 137.803 33.6779C137.914 33.6504 137.997 33.5812 138.056 33.4822C138.39 32.9205 137.969 32.1991 137.259 32.1957ZM136.971 37.3069C136.441 37.1965 135.929 37.0526 135.486 36.7188C134.346 35.8585 134.089 34.2622 134.914 33.0727C135.69 31.9523 137.301 31.6052 138.518 32.2948C138.919 32.5222 139.173 32.8618 139.334 33.2806C139.437 33.5489 139.39 33.6948 139.073 33.7662C138.104 33.9854 137.139 34.228 136.174 34.4631C135.746 34.5671 135.72 34.6083 135.824 35.0323C136.239 36.7156 138.106 36.7941 139.066 36.151C139.15 36.095 139.225 35.8961 139.353 36.0478C139.445 36.156 139.31 36.2691 139.232 36.3553C138.792 36.8401 138.244 37.1366 137.587 37.2414C137.479 37.2584 137.374 37.2848 137.266 37.3069H136.971Z" fill="#2E2D2B"/>
<path fill-rule="evenodd" clip-rule="evenodd" d="M127.302 37.3069C126.536 37.1599 125.844 36.8838 125.358 36.2489C124.716 35.4097 124.586 34.4964 125.008 33.5378C125.414 32.6176 126.155 32.0887 127.177 31.9692C128.059 31.8661 128.842 32.0814 129.418 32.7751C129.711 33.1265 129.666 33.2076 129.228 33.3111C129.157 33.3282 129.085 33.3445 129.013 33.3596C128.515 33.4641 128.512 33.4641 128.482 32.9685C128.432 32.141 127.705 32.0691 127.128 32.2974C126.824 32.4178 126.608 32.657 126.451 32.9362C125.983 33.771 125.962 34.6386 126.351 35.4939C126.835 36.5561 128.401 36.8615 129.434 36.1278C129.511 36.0727 129.587 35.9168 129.7 36.0344C129.793 36.1312 129.682 36.2345 129.613 36.3144C129.166 36.8276 128.607 37.1472 127.919 37.2432C127.81 37.258 127.704 37.2853 127.597 37.3069H127.302Z" fill="#2E2D2B"/>
<path fill-rule="evenodd" clip-rule="evenodd" d="M132.173 37.3069C131.844 37.2181 131.504 37.1781 131.189 37.0263C130.021 36.463 129.399 35.2593 129.666 34.0474C129.937 32.8215 131.04 31.9217 132.342 31.9337C133.087 31.9403 133.776 32.1665 134.259 32.7749C134.521 33.1042 134.479 33.2018 134.076 33.3036C134.041 33.3124 134.005 33.3255 133.969 33.3309C133.776 33.3605 133.568 33.5064 133.401 33.4228C133.219 33.3314 133.363 33.0983 133.336 32.9288C133.224 32.2314 132.479 31.9446 131.829 32.37C131.28 32.7301 131.047 33.2801 130.949 33.8882C130.898 34.2069 130.908 34.5326 130.973 34.8542C131.287 36.4032 132.942 37.042 134.275 36.1305C134.351 36.0782 134.427 35.9172 134.54 36.036C134.634 36.1351 134.515 36.2374 134.449 36.316C134.017 36.8281 133.454 37.1217 132.789 37.2402C132.682 37.2594 132.575 37.2844 132.468 37.3069H132.173Z" fill="#2E2D2B"/>
<path fill-rule="evenodd" clip-rule="evenodd" d="M141.842 37.1629C141.032 37.1642 140.221 37.1674 139.41 37.1649C139.306 37.1647 139.148 37.2087 139.12 37.0821C139.086 36.9312 139.259 36.9551 139.352 36.9212C139.759 36.7722 139.897 36.5737 139.904 36.05C139.914 35.2716 139.908 34.493 139.908 33.7145C139.908 32.7679 139.9 31.8216 139.911 30.8753C139.916 30.5195 139.884 30.2148 139.494 30.0407C139.299 29.9533 139.373 29.8219 139.543 29.7758C139.946 29.6668 140.352 29.5723 140.758 29.4762C140.927 29.436 141.018 29.5113 141.028 29.6765C141.035 29.796 141.035 29.916 141.035 30.0359C141.036 32.0601 141.034 34.0848 141.037 36.1089C141.038 36.7002 141.238 36.9007 141.842 36.947V37.1629Z" fill="#2E2D2B"/>
<path fill-rule="evenodd" clip-rule="evenodd" d="M121.165 30.7781C121.128 30.7733 121.091 30.7685 121.054 30.7639C120.579 31.8857 120.101 33.0071 119.629 34.1307C119.543 34.3347 119.681 34.3196 119.818 34.2861C120.579 34.1007 121.34 33.9138 122.101 33.7304C122.248 33.6951 122.315 33.6286 122.253 33.4762C121.89 32.5772 121.528 31.6775 121.165 30.7781ZM124.136 37.1647C123.693 37.165 123.25 37.1666 122.807 37.1636C122.725 37.1631 122.608 37.1734 122.593 37.0705C122.576 36.9578 122.695 36.9622 122.774 36.9385C123.313 36.7769 123.382 36.6647 123.23 36.1312C123.051 35.5072 122.815 34.9025 122.582 34.2962C122.497 34.0736 122.372 34.0424 122.16 34.0963C121.315 34.3105 120.469 34.5194 119.621 34.7199C119.416 34.7684 119.302 34.8847 119.236 35.0659C119.101 35.4387 118.952 35.8074 118.833 36.1849C118.685 36.6561 118.813 36.8365 119.317 36.9337C119.425 36.9546 119.62 36.9062 119.6 37.0716C119.584 37.2125 119.396 37.1638 119.281 37.1647C118.679 37.1695 118.077 37.1679 117.474 37.1638C117.383 37.1631 117.249 37.1825 117.237 37.0564C117.227 36.9515 117.351 36.9519 117.431 36.9328C117.812 36.8411 118.043 36.5809 118.189 36.2517C119.025 34.371 119.851 32.4861 120.686 30.6056C120.797 30.3568 120.786 30.18 120.52 30.0375C120.327 29.9341 120.395 29.819 120.568 29.7726C120.97 29.6642 121.377 29.5696 121.783 29.4737C122.048 29.4111 122.087 29.621 122.15 29.7826C122.582 30.8791 123.009 31.9777 123.439 33.0749C123.83 34.0713 124.224 35.0665 124.614 36.063C124.785 36.499 125.04 36.8468 125.549 36.9422C125.62 36.9556 125.716 36.9731 125.706 37.0596C125.694 37.1656 125.583 37.162 125.5 37.1627C125.045 37.1657 124.591 37.1643 124.136 37.1647Z" fill="#2E2D2B"/>
<path fill-rule="evenodd" clip-rule="evenodd" d="M88.9588 36.4436C88.8835 36.5544 88.7905 36.6593 88.6798 36.7579C88.5683 36.8564 88.4419 36.9417 88.2992 37.0137C88.1565 37.0856 88.0031 37.142 87.8377 37.1832C87.6723 37.2242 87.4969 37.2449 87.313 37.2449C86.9814 37.2449 86.6747 37.1873 86.3921 37.0724C86.1096 36.9572 85.8646 36.7981 85.6573 36.5947C85.45 36.3912 85.2874 36.15 85.1702 35.8703C85.0531 35.591 84.9941 35.2849 84.9941 34.9519C84.9941 34.6192 85.0531 34.3133 85.1702 34.0336C85.2874 33.7543 85.45 33.5129 85.6573 33.3094C85.8646 33.1061 86.1096 32.9471 86.3921 32.8319C86.6747 32.7168 86.9814 32.6592 87.313 32.6592C87.5892 32.6592 87.8661 32.7127 88.1423 32.8194C88.4185 32.9263 88.6549 33.1029 88.8523 33.3495L88.4561 33.6394C88.4099 33.5693 88.3475 33.4994 88.268 33.4298C88.1884 33.3599 88.0968 33.2982 87.9946 33.2447C87.8916 33.1915 87.7816 33.1483 87.6645 33.1153C87.5473 33.0825 87.4301 33.0661 87.313 33.0661C87.0276 33.0661 86.7727 33.1176 86.5462 33.2202C86.3197 33.3228 86.128 33.4605 85.9711 33.633C85.8142 33.8056 85.6935 34.0061 85.6097 34.2341C85.5259 34.4622 85.484 34.7016 85.484 34.9519C85.484 35.2027 85.5259 35.4422 85.6097 35.6702C85.6935 35.8983 85.8142 36.0983 85.9711 36.2711C86.128 36.4436 86.3197 36.5813 86.5462 36.6841C86.7727 36.7868 87.0276 36.838 87.313 36.838C87.4301 36.838 87.5466 36.8277 87.6616 36.8072C87.7766 36.7868 87.8902 36.7517 88.001 36.7026C88.1118 36.6531 88.2168 36.5865 88.3148 36.5023C88.4135 36.4181 88.5044 36.3122 88.5882 36.1846L88.9588 36.4436Z" fill="#2E2D2B"/>
<path fill-rule="evenodd" clip-rule="evenodd" d="M91.6922 37.134C91.6837 37.0559 91.6787 36.9787 91.6766 36.9028C91.6745 36.8267 91.6738 36.75 91.6738 36.6718H91.661C91.6148 36.75 91.5559 36.8217 91.4849 36.8875C91.4139 36.9533 91.3344 37.0097 91.2463 37.0568C91.1583 37.1042 91.0646 37.141 90.9666 37.1679C90.8679 37.1948 90.7706 37.2079 90.6741 37.2079C90.2971 37.2079 90.0187 37.1103 89.8384 36.9152C89.6588 36.7202 89.5686 36.4417 89.5686 36.08V34.2495H89.9832V35.8458C89.9832 36.006 89.996 36.1478 90.0209 36.2712C90.0464 36.3943 90.089 36.4981 90.1501 36.5823C90.2104 36.6665 90.2921 36.7305 90.395 36.7735C90.4973 36.8165 90.6258 36.8381 90.7813 36.8381C90.8026 36.8381 90.8608 36.8299 90.9574 36.8136C91.0532 36.7971 91.1554 36.7518 91.2619 36.6779C91.3684 36.6039 91.4643 36.4931 91.5481 36.3449C91.6319 36.1972 91.6738 35.9917 91.6738 35.7286V34.2495H92.0884V36.4993C92.0884 36.5773 92.0912 36.6759 92.0976 36.7951C92.104 36.9141 92.1111 37.027 92.1196 37.134H91.6922Z" fill="#2E2D2B"/>
<path fill-rule="evenodd" clip-rule="evenodd" d="M93.1066 35.1494C93.1066 35.0219 93.1031 34.8924 93.0967 34.7611C93.0903 34.6295 93.0853 34.4591 93.0811 34.2495H93.4893V34.7855H93.5021C93.5312 34.7078 93.5731 34.6325 93.6277 34.5606C93.6824 34.4889 93.7477 34.424 93.8258 34.3667C93.9032 34.3091 93.9934 34.2627 94.0956 34.2278C94.1986 34.193 94.3143 34.1755 94.4443 34.1755C94.5614 34.1755 94.6643 34.1878 94.7524 34.2124L94.6707 34.6132C94.6161 34.5927 94.5366 34.5823 94.4322 34.5823C94.2724 34.5823 94.1368 34.6123 94.0239 34.6715C93.9103 34.7313 93.8166 34.8073 93.7406 34.8997C93.6654 34.9921 93.61 35.0918 93.5745 35.1985C93.539 35.3055 93.5205 35.4081 93.5205 35.5067V37.134H93.1066V35.1494Z" fill="#2E2D2B"/>
<path fill-rule="evenodd" clip-rule="evenodd" d="M96.8192 35.6979C96.7148 35.6979 96.5835 35.7029 96.4273 35.7131C96.2696 35.7233 96.1191 35.7482 95.9743 35.7874C95.8301 35.8263 95.7066 35.8868 95.6037 35.969C95.5007 36.0514 95.4496 36.1642 95.4496 36.3081C95.4496 36.4027 95.4695 36.4835 95.5092 36.5513C95.549 36.6192 95.6022 36.6747 95.6697 36.7177C95.7364 36.761 95.811 36.7919 95.8926 36.8103C95.9743 36.8288 96.0573 36.8381 96.1411 36.8381C96.2916 36.8381 96.423 36.8133 96.5338 36.7642C96.6445 36.7148 96.7375 36.6481 96.8135 36.5639C96.8888 36.4797 96.9441 36.3809 96.9796 36.268C97.0151 36.1551 97.0329 36.0347 97.0329 35.9075V35.6979H96.8192ZM97.0329 35.3649V35.2909C97.0329 34.7939 96.7815 34.5453 96.2789 34.5453C95.9352 34.5453 95.6356 34.6585 95.3807 34.8842L95.1294 34.5945C95.4056 34.3152 95.8202 34.1755 96.3733 34.1755C96.516 34.1755 96.653 34.196 96.7851 34.237C96.9172 34.2782 97.0315 34.341 97.1273 34.425C97.2239 34.5092 97.3013 34.6153 97.3602 34.7424C97.4184 34.8699 97.4475 35.022 97.4475 35.1985V36.4867C97.4475 36.5976 97.4532 36.7139 97.4639 36.8349C97.4738 36.9562 97.4859 37.0559 97.4979 37.134H97.0961C97.0833 37.0641 97.0741 36.9881 97.0677 36.906C97.0613 36.8236 97.0584 36.7437 97.0584 36.6654H97.0457C96.9243 36.8588 96.7808 36.9975 96.6154 37.0814C96.45 37.1657 96.2476 37.2079 96.0091 37.2079C95.8791 37.2079 95.7535 37.1904 95.6321 37.1554C95.5106 37.1206 95.4027 37.0673 95.3083 36.9952C95.2139 36.9234 95.1386 36.8349 95.0818 36.7302C95.0257 36.6253 94.9973 36.5031 94.9973 36.3636C94.9973 36.1294 95.0591 35.9455 95.1826 35.8119C95.3062 35.6783 95.4609 35.5788 95.6477 35.5131C95.8337 35.4471 96.0332 35.4061 96.2448 35.3898C96.4564 35.3731 96.6502 35.3649 96.8256 35.3649H97.0329Z" fill="#2E2D2B"/>
<path fill-rule="evenodd" clip-rule="evenodd" d="M99.9297 34.6192H99.082V36.3205C99.082 36.427 99.0919 36.5144 99.1132 36.5823C99.1338 36.6501 99.1636 36.7024 99.2006 36.7393C99.2389 36.7766 99.2836 36.8021 99.3362 36.8164C99.3887 36.831 99.4462 36.8381 99.5087 36.8381C99.5797 36.8381 99.6535 36.8278 99.7288 36.8071C99.8041 36.7866 99.8736 36.76 99.9361 36.7272L99.9553 37.103C99.7998 37.1728 99.6138 37.2079 99.3958 37.2079C99.3163 37.2079 99.2332 37.1974 99.1473 37.1769C99.0614 37.1562 98.9833 37.1175 98.9123 37.0599C98.8406 37.0026 98.7824 36.9243 98.7362 36.8255C98.6901 36.7272 98.6673 36.5975 98.6673 36.4373V34.6192H98.0447V34.2494H98.6673V33.4358H99.082V34.2494H99.9297V34.6192Z" fill="#2E2D2B"/>
<path fill-rule="evenodd" clip-rule="evenodd" d="M102.782 35.4698C102.782 35.1945 102.699 34.9717 102.531 34.8012C102.363 34.6305 102.129 34.5454 101.827 34.5454C101.693 34.5454 101.563 34.5711 101.438 34.6223C101.312 34.6738 101.202 34.7425 101.108 34.829C101.014 34.915 100.939 35.0138 100.882 35.1246C100.825 35.2356 100.797 35.3508 100.797 35.4698H102.782ZM100.784 35.8026C100.797 35.9464 100.833 36.0821 100.891 36.2093C100.95 36.337 101.027 36.4467 101.124 36.5391C101.22 36.6315 101.331 36.7045 101.457 36.7578C101.582 36.8115 101.718 36.8381 101.865 36.8381C102.087 36.8381 102.279 36.7878 102.44 36.6873C102.601 36.5864 102.723 36.4703 102.807 36.3388L103.128 36.5976C102.952 36.8156 102.758 36.9717 102.547 37.0662C102.335 37.1606 102.108 37.208 101.865 37.208C101.647 37.208 101.445 37.17 101.259 37.0939C101.072 37.0179 100.912 36.9121 100.778 36.7765C100.644 36.641 100.538 36.4806 100.461 36.2958C100.383 36.1108 100.344 35.9096 100.344 35.6917C100.344 35.474 100.382 35.2726 100.458 35.0875C100.533 34.9027 100.637 34.7425 100.772 34.6068C100.906 34.4712 101.063 34.3654 101.243 34.2893C101.423 34.2134 101.618 34.1755 101.827 34.1755C102.05 34.1755 102.248 34.2145 102.425 34.2925C102.601 34.3706 102.748 34.4744 102.868 34.6036C102.987 34.7334 103.078 34.8854 103.141 35.06C103.203 35.2347 103.235 35.4205 103.235 35.6176V35.8026H100.784Z" fill="#2E2D2B"/>
<path fill-rule="evenodd" clip-rule="evenodd" d="M104.24 35.6918C104.24 35.852 104.266 36.002 104.319 36.1418C104.371 36.2815 104.445 36.4028 104.542 36.5052C104.638 36.6081 104.754 36.6894 104.89 36.749C105.027 36.8084 105.181 36.8382 105.353 36.8382C105.52 36.8382 105.676 36.8084 105.821 36.749C105.965 36.6894 106.09 36.6081 106.195 36.5052C106.299 36.4028 106.381 36.2815 106.44 36.1418C106.498 36.002 106.528 35.852 106.528 35.6918C106.528 35.5316 106.498 35.3816 106.44 35.2418C106.381 35.1021 106.299 34.981 106.195 34.8782C106.09 34.7758 105.965 34.6943 105.821 34.6346C105.676 34.5753 105.52 34.5454 105.353 34.5454C105.181 34.5454 105.027 34.5753 104.89 34.6346C104.754 34.6943 104.638 34.7758 104.542 34.8782C104.445 34.981 104.371 35.1021 104.319 35.2418C104.266 35.3816 104.24 35.5316 104.24 35.6918ZM106.923 37.134H106.509V36.6534H106.496C106.429 36.7519 106.35 36.8362 106.257 36.906C106.165 36.9761 106.068 37.0335 105.968 37.0785C105.867 37.1238 105.764 37.1566 105.657 37.1771C105.55 37.1975 105.449 37.208 105.353 37.208C105.122 37.208 104.912 37.17 104.721 37.094C104.531 37.018 104.366 36.9121 104.228 36.7768C104.09 36.6411 103.982 36.4809 103.904 36.2958C103.827 36.111 103.788 35.9096 103.788 35.6918C103.788 35.474 103.827 35.2726 103.904 35.0878C103.982 34.9027 104.09 34.7426 104.228 34.6069C104.366 34.4714 104.531 34.3657 104.721 34.2896C104.912 34.2136 105.122 34.1756 105.353 34.1756C105.449 34.1756 105.55 34.1858 105.657 34.2065C105.764 34.2268 105.867 34.2598 105.968 34.3049C106.068 34.3502 106.165 34.4077 106.257 34.4776C106.35 34.5477 106.429 34.6317 106.496 34.7302H106.509V32.4744H106.923V37.134Z" fill="#2E2D2B"/>
<path fill-rule="evenodd" clip-rule="evenodd" d="M112.258 35.6918C112.258 35.5316 112.232 35.3816 112.179 35.2418C112.127 35.1021 112.053 34.981 111.956 34.8782C111.86 34.7758 111.744 34.6943 111.608 34.6346C111.471 34.5753 111.317 34.5454 111.146 34.5454C110.974 34.5454 110.817 34.5753 110.675 34.6346C110.532 34.6943 110.408 34.7758 110.304 34.8782C110.199 34.981 110.117 35.1021 110.058 35.2418C110 35.3816 109.97 35.5316 109.97 35.6918C109.97 35.852 110 36.002 110.058 36.1418C110.117 36.2815 110.199 36.4028 110.304 36.5052C110.408 36.6081 110.532 36.6894 110.675 36.749C110.817 36.8084 110.974 36.8382 111.146 36.8382C111.317 36.8382 111.471 36.8084 111.608 36.749C111.744 36.6894 111.86 36.6081 111.956 36.5052C112.053 36.4028 112.127 36.2815 112.179 36.1418C112.232 36.002 112.258 35.852 112.258 35.6918ZM109.575 32.4744H109.99V34.7302H110.002C110.069 34.6317 110.149 34.5477 110.241 34.4776C110.333 34.4077 110.43 34.3502 110.53 34.3049C110.631 34.2598 110.734 34.2268 110.841 34.2065C110.948 34.1858 111.05 34.1756 111.146 34.1756C111.376 34.1756 111.586 34.2136 111.777 34.2896C111.968 34.3657 112.132 34.4714 112.271 34.6069C112.409 34.7426 112.516 34.9027 112.595 35.0878C112.672 35.2726 112.71 35.474 112.71 35.6918C112.71 35.9096 112.672 36.111 112.595 36.2958C112.516 36.4809 112.409 36.6411 112.271 36.7768C112.132 36.9121 111.968 37.018 111.777 37.094C111.586 37.17 111.376 37.208 111.146 37.208C111.05 37.208 110.948 37.1975 110.841 37.1771C110.734 37.1566 110.631 37.1238 110.53 37.0785C110.43 37.0335 110.333 36.9761 110.241 36.906C110.149 36.8362 110.069 36.7519 110.002 36.6534H109.99V37.134H109.575V32.4744Z" fill="#2E2D2B"/>
<path fill-rule="evenodd" clip-rule="evenodd" d="M114.507 36.6346L115.406 34.2495H115.909L114.438 37.8857C114.35 38.1079 114.238 38.2842 114.102 38.4158C113.966 38.5473 113.77 38.6128 113.515 38.6128C113.452 38.6128 113.388 38.611 113.323 38.6069C113.258 38.6026 113.195 38.5906 113.131 38.5699L113.175 38.1756C113.263 38.2207 113.368 38.2433 113.49 38.2433C113.636 38.2433 113.751 38.198 113.835 38.1079C113.919 38.0173 113.992 37.8898 114.055 37.7255L114.269 37.1706L113.062 34.2495H113.584L114.507 36.6346Z" fill="#2E2D2B"/>
</g>
</g>
<defs>
<clipPath id="clip0_495_1233">
<rect width="142" height="39" fill="white"/>
</clipPath>
</defs>
</svg>
