<?xml version="1.0" encoding="UTF-8" standalone="no"?>
<svg
   xmlns:dc="http://purl.org/dc/elements/1.1/"
   xmlns:cc="http://creativecommons.org/ns#"
   xmlns:rdf="http://www.w3.org/1999/02/22-rdf-syntax-ns#"
   xmlns:svg="http://www.w3.org/2000/svg"
   xmlns="http://www.w3.org/2000/svg"
   viewBox="0 0 456.25 104.6375"
   height="104.6375"
   width="456.25"
   xml:space="preserve"
   version="1.1"
   id="svg2"><metadata
     id="metadata8"><rdf:RDF><cc:Work
         rdf:about=""><dc:format>image/svg+xml</dc:format><dc:type
           rdf:resource="http://purl.org/dc/dcmitype/StillImage" /></cc:Work></rdf:RDF></metadata><defs
     id="defs6" /><g
     transform="matrix(1.25,0,0,-1.25,0,104.6375)"
     id="g10"><g
       transform="scale(0.1,0.1)"
       id="g12"><path
         id="path14"
         style="fill:#cd1e25;fill-opacity:1;fill-rule:nonzero;stroke:none"
         d="M 2704.35,837.039 2704.35,0 3650,0 l 0,508.598 c 0,181.461 -147.05,328.488 -328.52,328.488 l -617.13,-0.047" /><path
         id="path16"
         style="fill:#ffffff;fill-opacity:1;fill-rule:nonzero;stroke:none"
         d="m 3262.42,299.727 c 1.12,-19.164 7.69,-35.344 19.77,-48.508 12.04,-13.114 26.84,-19.723 44.35,-19.723 18.14,0 33.2,5.231 45.18,15.621 14.35,12.031 21.72,29.039 22.28,50.969 0,19.156 -6.35,35.332 -18.91,48.445 -12.65,13.778 -28.78,20.598 -48.55,20.598 -18.59,0 -34.27,-6.813 -46.86,-20.598 -12.09,-13.613 -17.77,-29.285 -17.26,-46.804 m -197.19,388.082 0,-576.309 -134.85,0 0,443.098 -91.23,0 0,133.211 226.08,0 z m 319.7,-160.332 c -0.5,19.769 -6.86,34.238 -18.94,43.531 -11.53,9.316 -25.16,13.469 -41.03,12.316 -15.36,-1.054 -28.28,-6.761 -38.67,-17.211 -10.44,-9.902 -15.62,-22.226 -15.62,-36.98 -0.56,-18.125 4.36,-32.598 14.81,-43.637 10.4,-10.914 24.12,-16.672 41.07,-17.238 15.93,-0.586 29.61,4.922 41.13,16.469 12.03,11.472 17.78,25.683 17.25,42.75 M 3201.57,424.684 c -40,25.269 -60.23,62.25 -60.8,111.011 0,42.227 16.7,79.797 50.15,112.684 33.44,32.832 78.11,49.301 134.03,49.301 57.01,0 103.01,-16.469 138.14,-49.301 32.32,-30.223 48.51,-66.609 48.51,-109.422 0,-51.508 -19.78,-89.559 -59.21,-114.269 53.11,-29.016 79.65,-74.551 79.65,-136.473 0,-31.703 -8.4,-62.231 -25.46,-91.27 -16.96,-28.984 -41.33,-52.297 -73.19,-69.859 -31.2,-17.516 -66.78,-25.969 -106.85,-25.461 -61.92,0.508 -111.19,19.164 -147.96,55.93 -38.37,37.8 -57.58,80.258 -57.58,127.437 0,25.707 7.43,52.34 22.23,79.738 13.17,24.575 32.58,44.579 58.34,59.954" /><path
         id="path18"
         style="fill:#100f0d;fill-opacity:1;fill-rule:nonzero;stroke:none"
         d="m 0,613.598 110.324,0 210.715,-338.664 1.379,0 0,338.664 103.977,0 0,-504.813 -111.036,0 -210.004,337.914 -1.437,0 0,-337.914 -103.918,0 0,504.813" /><path
         id="path20"
         style="fill:#100f0d;fill-opacity:1;fill-rule:nonzero;stroke:none"
         d="m 563.719,267.152 c 2.816,-63.621 33.902,-92.605 89.781,-92.605 40.309,0 72.832,24.687 79.18,47.328 l 88.406,0 C 792.813,135.621 732.68,98.8516 649.969,98.8516 c -115.239,0 -186.692,79.1874 -186.692,192.2774 0,109.66 75.7,193.047 186.692,193.047 124.465,0 184.59,-104.586 177.523,-217.02 l -263.773,0 0,-0.004 z m 165.48,63.618 c -9.172,50.91 -31.136,77.769 -79.949,77.769 -63.617,0 -81.953,-49.449 -83.434,-77.769 l 163.383,0" /><path
         id="path22"
         style="fill:#100f0d;fill-opacity:1;fill-rule:nonzero;stroke:none"
         d="m 1043.43,407.133 -78.27,0 0,-181.012 c 0,-33.961 8.504,-42.465 42.47,-42.465 10.6,0 20.48,0.723 31.08,2.879 l 0,-78.476 c -17,-2.817 -38.917,-3.481 -58.69,-3.481 -61.512,0 -115.29,14.082 -115.29,86.871 l 0,392.434 100.43,0 0,-109.582 165.49,0 67.15,-248.18 1.38,0 60.85,248.18 97.57,0 62.23,-247.406 1.43,0 67.15,247.406 103.26,0 -115.29,-365.524 -103.26,0 -65,245.336 -1.38,0 -62.28,-245.336 -103.93,0 -94.7,298.403 -2.4,-0.047" /><path
         id="path24"
         style="fill:#100f0d;fill-opacity:1;fill-rule:nonzero;stroke:none"
         d="m 1771.91,484.191 c 115.24,0 189.46,-76.371 189.46,-193.011 0,-115.965 -74.22,-192.3284 -189.46,-192.3284 -114.57,0 -188.84,76.3674 -188.84,192.3284 0,116.64 74.26,193.011 188.84,193.011 m 0,-309.699 c 68.58,0 89.07,58.645 89.07,116.68 0,58.695 -20.48,117.391 -89.07,117.391 -67.92,0 -88.4,-58.696 -88.4,-117.391 0,-58.027 20.48,-116.68 88.4,-116.68" /><path
         id="path26"
         style="fill:#100f0d;fill-opacity:1;fill-rule:nonzero;stroke:none"
         d="m 1998.14,474.301 95.47,0 0,-67.867 1.43,0 c 18.39,45.945 67.92,77.726 116.63,77.726 7.07,0 15.58,-1.406 21.97,-3.508 l 0,-93.339 c -9.22,2.152 -24.07,3.558 -36.11,3.558 -73.5,0 -98.96,-53.043 -98.96,-117.367 l 0,-164.727 -100.44,0 0,365.524 0.01,0" /><path
         id="path28"
         style="fill:#100f0d;fill-opacity:1;fill-rule:nonzero;stroke:none"
         d="m 2254.14,613.598 100.44,0 0,-270.797 126.55,131.484 118.73,0 -137.83,-134.301 153.4,-231.199 -121.64,0 -100.4,163.281 -38.81,-37.39 0,-125.891 -100.44,0 0,504.813" /></g></g></svg>